<?xml version="1.0" encoding="UTF-8" standalone="no"?>
<!-- Generator: Adobe Illustrator 18.0.0, SVG Export Plug-In . SVG Version: 6.00 Build 0)  -->

<svg
   xmlns:dc="http://purl.org/dc/elements/1.1/"
   xmlns:cc="http://creativecommons.org/ns#"
   xmlns:rdf="http://www.w3.org/1999/02/22-rdf-syntax-ns#"
   xmlns:svg="http://www.w3.org/2000/svg"
   xmlns="http://www.w3.org/2000/svg"
   xmlns:sodipodi="http://sodipodi.sourceforge.net/DTD/sodipodi-0.dtd"
   xmlns:inkscape="http://www.inkscape.org/namespaces/inkscape"
   version="1.1"
   id="Layer_1"
   x="0px"
   y="0px"
   viewBox="0 0 401.67534 46.759808"
   enable-background="new 0 0 401.7 46.8"
   xml:space="preserve"
   sodipodi:docname="gba_label.svg"
   width="401.67535"
   height="46.759808"
   inkscape:version="0.92.4 5da689c313, 2019-01-14"><metadata
   id="metadata29"><rdf:RDF><cc:Work
       rdf:about=""><dc:format>image/svg+xml</dc:format><dc:type
         rdf:resource="http://purl.org/dc/dcmitype/StillImage" /><dc:title></dc:title></cc:Work></rdf:RDF></metadata><defs
   id="defs27" /><sodipodi:namedview
   pagecolor="#ffffff"
   bordercolor="#666666"
   borderopacity="1"
   objecttolerance="10"
   gridtolerance="10"
   guidetolerance="10"
   inkscape:pageopacity="0"
   inkscape:pageshadow="2"
   inkscape:window-width="1600"
   inkscape:window-height="900"
   id="namedview25"
   showgrid="false"
   inkscape:pagecheckerboard="true"
   fit-margin-top="0"
   fit-margin-left="0"
   fit-margin-right="0"
   fit-margin-bottom="0"
   inkscape:zoom="3.9007931"
   inkscape:cx="130.16894"
   inkscape:cy="24.47776"
   inkscape:window-x="0"
   inkscape:window-y="0"
   inkscape:window-maximized="0"
   inkscape:current-layer="Layer_1" />
<path
   d="m 141.07536,0.90181072 c 5.1,0 8.2,2.19999998 11.2,5.79999998 1.1,-1 2.2,-1.9 3.5,-2.7 3.1,-2 6.6,-3 10.1,-3 h 47 l -3.1,4.9 59,-0.1 5.4,9.3000003 4.8,-9.2000003 h 39.2 l 9.7,7.6000003 V 5.9018107 h 73.8 V 41.201811 h -68.1 l -9.9,-7.7 v 7.7 h -55.2 v 0 l -3.7,-6.1 c -3,3.4 -8.4,6.1 -17.3,6.1 h -49 c -1.6,1.6 -3.3,1.8 -5.3,1.7 l -0.5,3.2 h -18.9 l 0.4,-2.7 c -0.2,0.1 -0.4,0.3 -0.6,0.4 -4.4,2.7 -9.4,3.6 -14.1,2.5 -3.6,-0.8 -6.8,-2.8 -9.2,-5.4 -3.2,3.1 -7.5,5.2 -11.6,5.2 l -92.900004,0.1 -1.5,-8.5 -3.8,8.5 h -15.5 c -4.9,0.8 -9.8,0.1 -14.2,-2.1 -5.9999995,-3.2 -9.99999952,-8.8 -10.59999952,-15.1 -1.1,-10.5 3.00000002,-18.9 11.59999952,-24.2000003 8.3,-5.09999998 17.1,-6.2 26.2,-3 l 1.7,0.6 0.6,-1.4 h 17.4 l 1.3,7.8 2.6,-7.89999998 h 79.500004"
   id="path2"
   inkscape:connector-curvature="0"
   style="fill:#1f00cc" />
<path
   d="m 246.37536,29.601811 h -6.2 v -12.6 h 8.8 c 4.7,0 7,1.9 7,6 0,5 -2.5,6.6 -9.6,6.6 m 43.3,-17.9 h -7.2 l -0.2,0.4 -8.1,14.9 -8.7,-14.9 -0.2,-0.3 h -7.7 l 0.6,1 1.5,2.4 c -2.4,-2.3 -6,-3.5 -10.7,-3.5 h -15.5 v 19.4 l -11.5,-19 -0.2,-0.3 h -5.9 l -0.2,0.3 -13.1,22 -0.6,1 h 5.1 v 0 h 11.4 v -5.2 h -6.7 l 6.7,-12.1 9.5,16.9 0.2,0.3 h 7.6 v 0 h 11.7 c 10.1,0 15.3,-4 15.3,-11.8 0,-1.4 -0.2,-2.6 -0.5,-3.7 l 9.2,15.2 0.2,0.3 h 4.5 l 0.2,-0.3 12.7,-22 0.6,-1"
   id="path4"
   inkscape:connector-curvature="0"
   style="fill:#ffffff" />
<polyline
   points="334.4,11.7 333.7,11.7 333.7,25.6 316.2,11.9 316,11.7 311.4,11.7 311.4,31.1 299.9,12.1   299.7,11.7 293.8,11.7 293.6,12.1 280.5,34 279.9,35.1 286.9,35.1 286.9,35.1 296.5,35.1 296.5,29.9 289.8,29.9 296.5,17.8   306,34.7 306.2,35.1 313.8,35.1 313.8,35.1 317.6,35.1 317.6,21 335.1,34.9 335.3,35.1 339.9,35.1 339.9,11.7 334.4,11.7 "
   id="polyline6"
   style="fill:#ffffff"
   transform="translate(-0.02464352,0.00181072)" />
<path
   d="m 362.07536,11.701811 h -13.7 c -4.8,0 -6.4,1.5 -6.4,5.9 v 11.6 c 0,4.4 1.6,5.9 6.4,5.9 h 13.7 c 4.8,0 6.4,-1.5 6.4,-5.9 v -3.3 h -0.7 -5.4 -0.7 v 3.6 h -13.1 v -12.3 h 13.1 v 3.2 h 0.7 6.1 v -2.8 c 0,-4.5 -1.6,-5.9 -6.4,-5.9"
   id="path8"
   inkscape:connector-curvature="0"
   style="fill:#ffffff" />
<polyline
   points="395.2,29.6 377.4,29.6 377.4,25.5 388.1,25.5 388.1,20.4 377.4,20.4 377.4,17 395.6,17 395.6,11.7   370.7,11.7 370.7,35.1 395.9,35.1 395.9,29.6 395.2,29.6 "
   id="polyline10"
   style="fill:#ffffff"
   transform="translate(-0.02464352,0.00181072)" />
<path
   d="m 43.775356,23.601811 2.9,-6.5 1.3,6.5 h -4.2 m 39.9,-16.9000003 -7.8,18.3000003 -3.3,-18.3000003 h -6.8 l -8.8,27.0000003 -4.5,-27.0000003 h -8.4 l -12.8,29.0000003 1.9,-12.1 h -12.7 l -1,6.2 h 5.3 l -0.6,3.3 c -3,1.3 -8.2,0.9 -10.4,-3.1 -1.4,-2.5 -2.7,-8.1 3.2,-13.2 4.8,-4.2 13.1,-4.9 17.9,-2.7 0,0 0.6,-3.5 1.1,-6.8000003 -9.2,-3.2 -16.4,-0.5 -21.2,2.4 C 8.2753565,13.701811 5.1753565,19.901811 5.9753565,28.301811 c 1,9.7 13.4999995,15.8 24.1999995,9.7 0.1,-0.1 0.2,-0.1 0.2,-0.1 l -1,2.3 h 7.2 l 4.5,-10 h 7.9 l 1.7,10 h 11.6 l 5.9,-18.6 3.8,18.6 h 4.6 l 8.9,-20.6 0.9,20.6 h 6.8 l -1.3,-33.5000003 h -8.2"
   id="path12"
   inkscape:connector-curvature="0"
   style="fill:#ffffff" />
<polyline
   points="93.9,40.1 113,40.1 114.1,32.9 102.1,32.9 103.1,27 113.5,27 114.6,19.8 104.1,19.8 105,13.9   117,13.9 118.1,6.7 99.2,6.7 93.9,40.1 "
   id="polyline14"
   style="fill:#ffffff"
   transform="translate(-0.02464352,0.00181072)" />
<polyline
   points="187.1,17.6 182.9,6.7 175,6.7 183.1,24.3 180.6,40.1 187.5,40.1 189.6,26.1 201.9,6.7 193.9,6.7   187.1,17.6 "
   id="polyline16"
   style="fill:#ffffff"
   transform="translate(-0.02464352,0.00181072)" />
<path
   d="m 171.07536,26.601811 c -1.8,5.5 -6.3,8.7 -9.9,7.1 -3.6,-1.6 -5,-7.4 -3.2,-13 1.8,-5.5 6.3,-8.7 9.9,-7.1 3.7,1.7 5.1,7.5 3.2,13 m -2.6,-19.6000003 c -7.6,-1.7 -15.5,4.3000003 -17.6,13.5000003 -2.1,9.2 2.3,18.1 9.9,19.9 7.6,1.8 15.5,-4.3 17.6,-13.5 2.1,-9.2 -2.4,-18.1000003 -9.9,-19.9000003"
   id="path18"
   inkscape:connector-curvature="0"
   style="fill:#ffffff" />
<path
   d="m 138.07536,20.101811 c -3.8,0 -4.8,0 -4.8,0 l 1.1,-6.2 c 0,0 0.1,0 4.4,0 4.9,0 4,6.2 -0.7,6.2 m -0.8,13.5 c -3.8,0 -6,0 -6,0 l 1.1,-6.6 c 0,0 1.4,0 5.7,0 5.4,-0.1 5.3,6.6 -0.8,6.6 m 4,-26.7000003 c -3.7,-0.1 -12.8,0 -12.8,0 h 0.1 l -5.3,33.1000003 c 0,0 10.9,0 15.4,0 6.3,0 15.6,-9.3 7.2,-17 8.6,-9 0,-16.0000003 -4.6,-16.1000003"
   id="path20"
   inkscape:connector-curvature="0"
   style="fill:#ffffff" />
<path
   d="m 193.27536,36.901811 v -1.3 h 1.1 c 0.5,0 0.9,0.1 0.9,0.6 0,0.8 -0.8,0.7 -1.3,0.7 h -0.7 m 1.3,0.4 c 0.7,0 1.2,-0.3 1.2,-1.1 0,-0.3 -0.2,-0.7 -0.4,-0.8 -0.3,-0.2 -0.6,-0.2 -0.9,-0.2 h -1.7 v 3.9 h 0.5 v -1.7 h 0.8 l 1.1,1.7 h 0.6 l -1.2,-1.8 m -0.4,3.3 c 1.9,0 3.5,-1.5 3.5,-3.5 0,-1.9 -1.5,-3.4 -3.5,-3.4 -1.9,0 -3.5,1.5 -3.5,3.4 0,2 1.5,3.5 3.5,3.5 m 0,-0.6 c -1.6,0 -2.9,-1.2 -2.9,-2.9 0,-1.6 1.3,-2.9 2.9,-2.9 1.6,0 2.9,1.3 2.9,2.9 -0.1,1.7 -1.3,2.9 -2.9,2.9"
   id="path22"
   inkscape:connector-curvature="0"
   style="fill:#ffffff" />
</svg>