<?xml version="1.0" encoding="UTF-8" standalone="no"?>
<svg
   xmlns:dc="http://purl.org/dc/elements/1.1/"
   xmlns:cc="http://creativecommons.org/ns#"
   xmlns:rdf="http://www.w3.org/1999/02/22-rdf-syntax-ns#"
   xmlns:svg="http://www.w3.org/2000/svg"
   xmlns="http://www.w3.org/2000/svg"
   xmlns:sodipodi="http://sodipodi.sourceforge.net/DTD/sodipodi-0.dtd"
   xmlns:inkscape="http://www.inkscape.org/namespaces/inkscape"
   version="1.1"
   width="492.54977"
   height="456.68329"
   viewBox="0 0 749.63424 695.04737"
   id="svg52"
   sodipodi:docname="n64_label.svg"
   inkscape:version="0.92.4 5da689c313, 2019-01-14">
  <metadata
     id="metadata58">
    <rdf:RDF>
      <cc:Work
         rdf:about="">
        <dc:format>image/svg+xml</dc:format>
        <dc:type
           rdf:resource="http://purl.org/dc/dcmitype/StillImage" />
        <dc:title></dc:title>
      </cc:Work>
    </rdf:RDF>
  </metadata>
  <defs
     id="defs56" />
  <sodipodi:namedview
     pagecolor="#ffffff"
     bordercolor="#666666"
     borderopacity="1"
     objecttolerance="10"
     gridtolerance="10"
     guidetolerance="10"
     inkscape:pageopacity="0"
     inkscape:pageshadow="2"
     inkscape:window-width="1600"
     inkscape:window-height="900"
     id="namedview54"
     showgrid="false"
     fit-margin-top="0"
     fit-margin-left="0"
     fit-margin-right="0"
     fit-margin-bottom="0"
     inkscape:pagecheckerboard="true"
     inkscape:zoom="0.54823623"
     inkscape:cx="-196.76434"
     inkscape:cy="319.9685"
     inkscape:window-x="0"
     inkscape:window-y="0"
     inkscape:window-maximized="0"
     inkscape:current-layer="svg52" />
  <g
     transform="scale(3.738824)"
     id="g50">
    <path
       style="fill:#0222a9"
       d="m 111.6,82.6 4.4,-5 V 43.8 l -21,8.1 v 0 L 77.6,82.9 95,76.2 Z"
       id="path2"
       inkscape:connector-curvature="0" />
    <path
       style="fill:#011da9"
       d="m 148.9,129.7 v -57 l 21.3,-8.2 v 89.7 l -21.3,9 v 0 l -31.3,-40.9 v 54.1 L 95,185.9 V 93.5 l 22.6,-8.6 z"
       id="path4"
       inkscape:connector-curvature="0" />
    <path
       style="fill:#0222a9"
       d="m 61.1,154.3 -20,-38.8 v 47.7 0 z"
       id="path6"
       inkscape:connector-curvature="0" />
    <path
       style="fill:#069330"
       d="m 62.4,64.5 v 0 l 10,20.4 5.2,-2 17.4,-31 -21,-8.2 z"
       id="path8"
       inkscape:connector-curvature="0" />
    <path
       style="fill:#069330"
       d="m 111.6,82.6 v 0 l 16,-18.1 21.3,8.2 v 57 L 117.6,84.9 Z"
       id="path10"
       inkscape:connector-curvature="0" />
    <path
       style="fill:#069330"
       d="M 95,185.9 V 93.5 L 72.4,84.9 v 46.9 L 41,72.7 v 0 L 19.7,64.5 v 89.7 l 21.3,9 v -47.7 l 31.4,60.9 z"
       id="path12"
       inkscape:connector-curvature="0" />
    <path
       style="fill:#fe2015"
       d="m 41.1,72.7 21.3,-8.2 10,20.4 v 0 46.9 z"
       id="path14"
       inkscape:connector-curvature="0" />
    <path
       style="fill:#fe2015"
       d="m 117.6,144.6 6.4,9 24.9,9.6 v 0 l -31.3,-40.9 z"
       id="path16"
       inkscape:connector-curvature="0" />
    <path
       style="fill:#ffc001"
       d="m 72.5,84.9 22.6,-8.6 22.6,8.6 v 0 l -22.6,8.6 z"
       id="path18"
       inkscape:connector-curvature="0" />
    <path
       style="fill:#ffc001"
       d="m 148.9,56.3 21.3,8.2 -21.3,8.2 -21.3,-8.2 v 0 z"
       id="path20"
       inkscape:connector-curvature="0" />
    <path
       style="fill:#ffc001"
       d="m 41.1,56.3 21.3,8.2 -21.3,8.2 -21.3,-8.2 v 0 z"
       id="path22"
       inkscape:connector-curvature="0" />
    <path
       style="fill:#ffc001"
       d="m 95,35.6 -21,8.1 21,8.2 21,-8.1 v 0 z"
       id="path24"
       inkscape:connector-curvature="0" />
    <path
       style="fill:#0124a6"
       d="m 125.2,6.6 h 9.7 c 8.3,0 10.9,4.7 10.9,11.1 0,6.6 -4.1,10.7 -10.4,10.7 h -10.2 z m 8,16.9 h 0.8 c 1.3,0 2.2,-0.4 2.7,-1.3 0.5,-0.9 0.6,-2.6 0.6,-4.7 0,-2.1 -0.1,-3.8 -0.6,-4.7 -0.5,-0.9 -1.4,-1.3 -2.7,-1.3 h -0.8 v 11.9 0 z"
       id="path26"
       inkscape:connector-curvature="0" />
    <path
       style="fill:#0124a6"
       d="m 158.6,6 c 7.1,0 10.7,4.7 10.7,11.5 0,6.8 -3.5,11.5 -10.7,11.5 -7.1,0 -10.7,-4.7 -10.7,-11.5 0,-6.8 3.5,-11.5 10.7,-11.5 z m 0,17.4 c 1.3,0 2.2,-0.6 2.2,-6 0,-5.2 -0.9,-6 -2.2,-6 -1.3,0 -2.2,0.7 -2.2,6 2.7e-4,5.3 0.9,6 2.2,6 z"
       id="path28"
       inkscape:connector-curvature="0" />
    <path
       style="fill:#0124a6"
       d="m 173.1,23.8 c -1.4,0 -2.6,1.2 -2.6,2.6 0,1.4 1.2,2.6 2.6,2.6 1.4,0 2.6,-1.2 2.6,-2.6 0,-1.4 -1.2,-2.6 -2.6,-2.6 z m 0,4.7 c -1.2,0 -2.1,-1 -2.1,-2.1 0,-1.2 1,-2.1 2.1,-2.1 1.2,0 2.1,1 2.1,2.1 0,1.2 -1,2.1 -2.1,2.1 z"
       id="path30"
       inkscape:connector-curvature="0" />
    <path
       style="fill:#0124a6"
       d="m 172.7,27.8 h -0.6 V 25 h 1.2 c 0.5,0 1,0.2 1,0.7 0,0.4 -0.2,0.6 -0.6,0.7 v 0 c 0.5,0.1 0.5,0.3 0.5,0.7 0,0.2 0.1,0.5 0.2,0.7 h -0.7 c -0.1,-0.3 -0.1,-0.5 -0.1,-0.8 0,-0.2 -0.1,-0.4 -0.3,-0.4 h -0.6 v 1.1 0 z m 0,-1.6 h 0.5 c 0.3,0 0.4,-0.1 0.4,-0.4 0,-0.3 -0.2,-0.4 -0.4,-0.4 h -0.5 z"
       id="path32"
       inkscape:connector-curvature="0" />
    <path
       style="fill:#0124a6"
       d="M 14.3,6.6 V 19.1 H 14.2 L 9.8,6.6 H 0 V 28.4 H 6.6 V 15.8 h 0.1 l 4.4,12.6 v 0 h 9.8 V 6.6 Z"
       id="path34"
       inkscape:connector-curvature="0" />
    <path
       style="fill:#0124a6"
       d="M 51.3,6.6 V 19.1 H 51.2 L 46.8,6.6 H 37 v 21.8 h 6.6 V 15.8 h 0.1 l 4.4,12.6 v 0 h 9.8 V 6.6 Z"
       id="path36"
       inkscape:connector-curvature="0" />
    <path
       style="fill:#0124a6"
       d="m 115,6.6 v 12.5 h -0.1 L 110.5,6.6 h -9.8 v 21.8 h 6.6 V 15.8 h 0.1 l 4.4,12.6 v 0 h 9.8 V 6.6 Z"
       id="path38"
       inkscape:connector-curvature="0" />
    <path
       style="fill:#0124a6"
       d="M 33.1,6.6 V 28.4 H 24.9 V 6.6 6.6 Z"
       id="path40"
       inkscape:connector-curvature="0" />
    <path
       style="fill:#0124a6"
       d="m 65.5,28.4 v -15.9 0 H 60.3 V 6.6 h 18.6 v 5.9 h -5.2 v 15.9 z"
       id="path42"
       inkscape:connector-curvature="0" />
    <path
       style="fill:#0124a6"
       d="m 89.4,12.4 v 2.3 h 7.5 v 5.6 h -7.5 v 2.4 h 8.4 v 5.7 H 81.4 v -21.8 0 h 16.2 v 5.8 z"
       id="path44"
       inkscape:connector-curvature="0" />
    <path
       style="fill:#ff2d1e"
       d="m 184,3.7 c -0.4,0 -0.9,0 -1.5,0 -3.5,0.2 -4.8,1.6 -5.3,3.3 h 0.1 c 0.9,-0.8 1.9,-1.1 3.3,-1.1 2.7,0 5.2,2 5.2,5.7 0,3.6 -2.7,6.4 -6.4,6.4 -4.9,0 -7,-3.7 -7,-7.7 0,-3.2 1.1,-6 3,-7.7 1.8,-1.7 4.1,-2.5 6.9,-2.6 0.7,0 1.2,0 1.6,0 v 3.7 h -2.7e-4 z m -4.6,10.8 c 1.1,0 1.8,-1.1 1.8,-2.6 0,-1.2 -0.6,-2.6 -2.1,-2.6 -0.9,0 -1.6,0.6 -1.9,1.3 -0.1,0.2 -0.1,0.5 -0.1,1 0.1,1.4 0.8,2.9 2.3,2.9 z"
       id="path46"
       inkscape:connector-curvature="0" />
    <path
       style="fill:#ff2d1e"
       d="m 194.4,17.7 v -3.9 h -7.3 v -3.1 l 5.8,-10.4 h 5.8 v 10 h 1.8 v 3.6 h -1.8 v 3.9 h -4.4 v 0 z m 0,-7.5 v -3 c 0,-1.1 0.1,-2.3 0.1,-3.5 h -0.1 c -0.5,1.2 -1,2.3 -1.6,3.5 l -1.4,2.9 v 0.1 h 3 v -2.7e-4 z"
       id="path48"
       inkscape:connector-curvature="0" />
  </g>
</svg>
