<?xml version="1.0" encoding="UTF-8" standalone="no"?>
<!-- Created with Inkscape (http://www.inkscape.org/) -->

<svg
   xmlns:dc="http://purl.org/dc/elements/1.1/"
   xmlns:cc="http://creativecommons.org/ns#"
   xmlns:rdf="http://www.w3.org/1999/02/22-rdf-syntax-ns#"
   xmlns:svg="http://www.w3.org/2000/svg"
   xmlns="http://www.w3.org/2000/svg"
   xmlns:sodipodi="http://sodipodi.sourceforge.net/DTD/sodipodi-0.dtd"
   xmlns:inkscape="http://www.inkscape.org/namespaces/inkscape"
   version="1.0"
   width="493.86182"
   height="68.186737"
   id="svg101576"
   sodipodi:docname="nds_label.svg"
   inkscape:version="0.92.4 5da689c313, 2019-01-14">
  <metadata
     id="metadata21">
    <rdf:RDF>
      <cc:Work
         rdf:about="">
        <dc:format>image/svg+xml</dc:format>
        <dc:type
           rdf:resource="http://purl.org/dc/dcmitype/StillImage" />
        <dc:title></dc:title>
      </cc:Work>
    </rdf:RDF>
  </metadata>
  <sodipodi:namedview
     pagecolor="#ffffff"
     bordercolor="#666666"
     borderopacity="1"
     objecttolerance="10"
     gridtolerance="10"
     guidetolerance="10"
     inkscape:pageopacity="0"
     inkscape:pageshadow="2"
     inkscape:window-width="1600"
     inkscape:window-height="900"
     id="namedview19"
     showgrid="false"
     inkscape:pagecheckerboard="true"
     fit-margin-top="0"
     fit-margin-left="0"
     fit-margin-right="0"
     fit-margin-bottom="0"
     inkscape:zoom="1.476264"
     inkscape:cx="158.74953"
     inkscape:cy="-2.8966557"
     inkscape:window-x="0"
     inkscape:window-y="0"
     inkscape:window-maximized="0"
     inkscape:current-layer="svg101576" />
  <defs
     id="defs101578" />
  <g
     transform="matrix(0.67067451,0,0,0.67067451,-28.586415,-181.25958)"
     id="layer1">
    <g
       transform="translate(7.088693,7.080902)"
       id="g101650">
      <path
         d="m 487.38946,354.59939 c 0,1.07926 -0.88502,2.05058 -1.9751,2.05058 h -37.79667 c -1.10087,0 -1.98589,-0.97132 -1.98589,-2.05058 v -27.30603 c 0,-1.07926 0.88502,-1.94271 1.98589,-1.94271 h 37.79667 c 1.09008,0 1.9751,0.86345 1.9751,1.94271 z m -1.64052,-37.45129 h -38.47662 c -5.56913,0 -10.11293,4.533 -10.11293,10.14526 v 27.41389 c 0,5.5044 4.5438,10.14535 10.11293,10.14535 h 38.47662 c 5.57992,0 10.11293,-4.64095 10.11293,-10.14535 v -27.41389 c 0,-5.61226 -4.53301,-10.14526 -10.11293,-10.14526"
         style="fill:#929497;fill-rule:nonzero;stroke:none"
         id="path100608"
         inkscape:connector-curvature="0" />
      <path
         d="m 44.363266,276.13513 c 0,0 0,34.75306 0,35.29269 -0.464094,0 -8.353689,0 -8.828578,0 0,-0.53963 0,-47.16487 0,-47.7045 0.496468,0 7.317575,0 7.544221,0 l 35.756819,34.75307 c 0,0 0,-34.21344 0,-34.75307 0.485674,0 7.069332,0 7.069332,0 0,0 1.251975,0 1.640518,0 0,0.53963 0,47.16487 0,47.7045 -0.47488,0 -6.659201,0 -6.89665,0 L 44.363266,276.13513"
         style="fill:#221f1f;fill-rule:nonzero;stroke:none"
         id="path100618"
         inkscape:connector-curvature="0" />
      <path
         d="m 132.87569,276.13513 c 0,0 0,34.75306 0,35.29269 -0.47489,0 -8.34291,0 -8.82858,0 0,-0.53963 0,-47.16487 0,-47.7045 0.49647,0 7.30678,0 7.53342,0 l 35.75682,34.75307 c 0,0 0,-34.21344 0,-34.75307 0.48569,0 7.08013,0 7.08013,0 0,0 1.26277,0 1.64053,0 0,0.53963 0,47.16487 0,47.7045 -0.48569,0 -6.65921,0 -6.89666,0 l -36.28566,-35.29269"
         style="fill:#221e1f;fill-rule:nonzero;stroke:none;stroke-width:0.05;stroke-linecap:butt;stroke-linejoin:miter;stroke-miterlimit:4;stroke-dasharray:none"
         id="path100622"
         inkscape:connector-curvature="0" />
      <path
         d="m 316.32229,276.13513 c 0,0 0,34.75306 0,35.29269 -0.48568,0 -8.3429,0 -8.82858,0 0,-0.53963 0,-47.16487 0,-47.7045 0.49648,0 7.31757,0 7.53343,0 l 35.75682,34.75307 c 0,0 0,-34.21344 0,-34.75307 0.48568,0 7.08013,0 7.08013,0 0,0 1.26277,0 1.64052,0 0,0.53963 0,47.16487 0,47.7045 -0.48569,0 -6.65921,0 -6.88586,0 l -36.29646,-35.29269"
         style="fill:#221e1f;fill-rule:nonzero;stroke:none;stroke-width:0.05;stroke-linecap:butt;stroke-linejoin:miter;stroke-miterlimit:4;stroke-dasharray:none"
         id="path100626"
         inkscape:connector-curvature="0" />
      <path
         d="m 108.57011,263.72332 c 0,0 1.25198,0 1.62973,0 0,0.53963 0,47.16487 0,47.7045 -0.4641,0 -8.35369,0 -8.82858,0 0,-0.53963 0,-47.16487 0,-47.7045 0.48568,0 7.19885,0 7.19885,0"
         style="fill:#221e1f;fill-rule:nonzero;stroke:none;stroke-width:0.05;stroke-linecap:butt;stroke-linejoin:miter;stroke-miterlimit:4;stroke-dasharray:none"
         id="path100630"
         inkscape:connector-curvature="0" />
      <path
         d="m 236.18514,263.72332 c 0,0 1.23039,0 1.61893,0 0,0.43169 0,7.77086 0,8.20255 -0.51805,0 -21.28355,0 -21.28355,0 0,0 0,38.96232 0,39.50195 -0.47489,0 -8.69907,0 -9.17396,0 0,-0.53963 0,-39.50195 0,-39.50195 0,0 -20.7655,0 -21.28356,0 0,-0.43169 0,-7.77086 0,-8.20255 0.52885,0 50.12214,0 50.12214,0"
         style="fill:#221e1f;fill-rule:nonzero;stroke:none;stroke-width:0.05;stroke-linecap:butt;stroke-linejoin:miter;stroke-miterlimit:4;stroke-dasharray:none"
         id="path100634"
         inkscape:connector-curvature="0" />
      <path
         d="m 292.73985,263.72332 c 0,0 1.27355,0 1.6513,0 0,0.43169 0,7.77086 0,8.20255 -0.50726,0 -37.83984,0 -37.83984,0 v 10.68497 c 0,0 28.77382,0 29.2703,0 0,0.53963 0,7.66292 0,8.20263 -0.49648,0 -29.2703,0 -29.2703,0 v 12.4118 c 0,0 37.33258,0 37.83984,0 0,0.43169 0,7.66292 0,8.20255 -0.50726,0 -46.0748,0 -46.58207,0 0,-0.53963 0,-47.16487 0,-47.7045 0.50727,0 44.93077,0 44.93077,0"
         style="fill:#221e1f;fill-rule:nonzero;stroke:none;stroke-width:0.05;stroke-linecap:butt;stroke-linejoin:miter;stroke-miterlimit:4;stroke-dasharray:none"
         id="path100638"
         inkscape:connector-curvature="0" />
      <path
         d="m 408.59063,303.22527 h -27.11172 v -31.2994 h 27.11172 c 8.4832,0 11.49442,8.41843 11.49442,15.64966 0,7.12337 -3.01122,15.64974 -11.49442,15.64974 z m 14.48405,-32.4866 c -3.45372,-4.64095 -8.55876,-7.01535 -14.73228,-7.01535 0,0 -34.86101,0 -35.37907,0 0,0.53963 0,47.16487 0,47.7045 0.51806,0 35.37907,0 35.37907,0 6.17352,0 11.27856,-2.48235 14.73228,-7.01535 3.23786,-4.20926 4.95393,-10.0374 4.95393,-16.83694 0,-6.79946 -1.71607,-12.6276 -4.95393,-16.83686"
         style="fill:#221e1f;fill-rule:nonzero;stroke:none;stroke-width:0.05;stroke-linecap:butt;stroke-linejoin:miter;stroke-miterlimit:4;stroke-dasharray:none"
         id="path100642"
         inkscape:connector-curvature="0" />
      <path
         d="m 487.38946,301.28256 c 0,0.97131 -0.88502,1.94271 -1.9751,1.94271 h -37.79667 c -1.10087,0 -1.98589,-0.9714 -1.98589,-1.94271 v -27.41398 c 0,-1.07925 0.88502,-1.94271 1.98589,-1.94271 h 37.79667 c 1.09008,0 1.9751,0.86346 1.9751,1.94271 z m -1.64052,-37.55924 h -38.47662 c -5.56913,0 -10.11293,4.53301 -10.11293,10.14526 v 27.41398 c 0,5.61226 4.5438,10.14526 10.11293,10.14526 h 38.47662 c 5.57992,0 10.11293,-4.533 10.11293,-10.14526 v -27.41398 c 0,-5.61225 -4.53301,-10.14526 -10.11293,-10.14526"
         style="fill:#221e1f;fill-rule:nonzero;stroke:none;stroke-width:0.05;stroke-linecap:butt;stroke-linejoin:miter;stroke-miterlimit:4;stroke-dasharray:none"
         id="path100646"
         inkscape:connector-curvature="0" />
      <path
         d="m 646.02323,344.66994 c 9.15236,3.66954 28.48239,6.58365 43.57084,6.58365 16.51311,0 23.34504,-5.61234 23.34504,-12.73563 0,-6.47571 -6.34627,-10.14534 -24.57542,-16.83686 -24.38113,-8.95814 -42.26491,-16.08143 -42.26491,-32.16286 0,-16.51303 21.52103,-26.33454 54.32058,-26.33454 17.61397,0 23.658,1.07925 34.83942,3.12991 l 0.0864,15.7576 c -10.98721,-2.05065 -20.72237,-5.61234 -35.8432,-5.61234 -16.21087,0 -23.11836,5.18057 -23.11836,10.46909 0,7.663 10.6418,11.33254 29.30272,18.02414 25.97842,9.28189 40.43009,16.40517 40.43009,32.05483 0,16.18938 -18.09962,27.84567 -58.9183,27.84567 -16.76139,0 -28.32053,-1.07926 -41.17485,-3.23786 v -16.9448"
         style="fill:#221e1f;fill-rule:nonzero;stroke:none;stroke-width:0.05;stroke-linecap:butt;stroke-linejoin:miter;stroke-miterlimit:4;stroke-dasharray:none"
         id="path100656"
         inkscape:connector-curvature="0" />
      <path
         d="m 559.14054,277.10644 h -19.42719 v 73.60752 h 19.42719 c 29.82072,0 48.63272,-12.84357 48.63272,-36.69586 0,-23.8522 -18.812,-36.91166 -48.63272,-36.91166 z m 52.1404,80.40698 c -9.60566,4.3172 -27.78087,7.12329 -43.66799,7.12329 H 506.89219 V 263.3995 h 60.72076 c 15.88712,0 34.06233,2.80617 43.68958,7.12328 23.38818,10.57703 31.00795,27.52192 31.00795,43.49532 0,15.97349 -7.55501,32.91829 -31.02954,43.49532"
         style="fill:#221e1f;fill-rule:nonzero;stroke:none;stroke-width:0.05;stroke-linecap:butt;stroke-linejoin:miter;stroke-miterlimit:4;stroke-dasharray:none"
         id="path100660"
         inkscape:connector-curvature="0" />
      <path
         d="m 752.21438,349.52668 h -3.89623 v -1.40309 h 9.48698 v 1.40309 h -3.91781 v 11.33254 h -1.67294 v -11.33254"
         style="fill:#221e1f;fill-rule:nonzero;stroke:none;stroke-width:0.05;stroke-linecap:butt;stroke-linejoin:miter;stroke-miterlimit:4;stroke-dasharray:none"
         id="path100678"
         inkscape:connector-curvature="0" />
      <path
         d="m 769.96866,355.24697 c -0.0971,-1.72692 -0.205,-3.88543 -0.205,-5.50441 h -0.0432 c -0.45336,1.51103 -0.9714,3.12992 -1.61897,4.85683 l -2.25575,6.25983 h -1.25197 l -2.09374,-6.15197 c -0.60448,-1.83477 -1.10094,-3.45366 -1.45706,-4.96469 h -0.0432 c -0.0324,1.61898 -0.12953,3.77749 -0.23747,5.61226 l -0.34533,5.5044 h -1.5758 l 0.89584,-12.73563 h 2.10463 l 2.1801,6.15198 c 0.52884,1.61897 0.94982,3.02197 1.29515,4.3172 h 0.0324 c 0.34542,-1.29523 0.79869,-2.69823 1.3707,-4.3172 l 2.27734,-6.15198 h 2.10454 l 0.79869,12.73563 h -1.62968 l -0.30224,-5.61225"
         style="fill:#221e1f;fill-rule:nonzero;stroke:none;stroke-width:0.05;stroke-linecap:butt;stroke-linejoin:miter;stroke-miterlimit:4;stroke-dasharray:none"
         id="path100682"
         inkscape:connector-curvature="0" />
    </g>
  </g>
</svg>
