<?xml version="1.0" encoding="UTF-8" standalone="no"?>
<svg
   xmlns:dc="http://purl.org/dc/elements/1.1/"
   xmlns:cc="http://creativecommons.org/ns#"
   xmlns:rdf="http://www.w3.org/1999/02/22-rdf-syntax-ns#"
   xmlns:svg="http://www.w3.org/2000/svg"
   xmlns="http://www.w3.org/2000/svg"
   xmlns:sodipodi="http://sodipodi.sourceforge.net/DTD/sodipodi-0.dtd"
   xmlns:inkscape="http://www.inkscape.org/namespaces/inkscape"
   width="496.18115"
   height="147.50179"
   version="1.1"
   id="svg55"
   sodipodi:docname="nes_label.svg"
   inkscape:version="0.92.4 5da689c313, 2019-01-14">
  <metadata
     id="metadata61">
    <rdf:RDF>
      <cc:Work
         rdf:about="">
        <dc:format>image/svg+xml</dc:format>
        <dc:type
           rdf:resource="http://purl.org/dc/dcmitype/StillImage" />
        <dc:title></dc:title>
      </cc:Work>
    </rdf:RDF>
  </metadata>
  <defs
     id="defs59" />
  <sodipodi:namedview
     pagecolor="#ffffff"
     bordercolor="#666666"
     borderopacity="1"
     objecttolerance="10"
     gridtolerance="10"
     guidetolerance="10"
     inkscape:pageopacity="0"
     inkscape:pageshadow="2"
     inkscape:window-width="1600"
     inkscape:window-height="900"
     id="namedview57"
     showgrid="true"
     inkscape:zoom="1.3601985"
     inkscape:cx="201.59376"
     inkscape:cy="66.535475"
     inkscape:window-x="0"
     inkscape:window-y="0"
     inkscape:window-maximized="0"
     inkscape:current-layer="svg55"
     inkscape:pagecheckerboard="true"
     fit-margin-top="0"
     fit-margin-left="0"
     fit-margin-right="0"
     fit-margin-bottom="0" />
  <g
     id="g72"
     inkscape:label="logo"
     transform="matrix(4.2472262,0,0,4.2472262,0,-1.8227117e-5)">
    <rect
       id="rect2"
       style="fill:#ffffff;stroke:#ff0000;stroke-width:3.40867996"
       y="1.7043443"
       x="1.70434"
       ry="12.70508"
       rx="12.70508"
       height="25.41016"
       width="113.41608" />
    <path
       style="fill:#ff0000"
       inkscape:connector-curvature="0"
       id="path4"
       d="M 25.712378,21.091115 V 7.7911157 h -4 v 9.2999993 l -5.9,-9.2999993 h -4.3 V 21.091115 h 4 v -9.6 l 6.2,9.6 z" />
    <path
       style="fill:#ff0000"
       inkscape:connector-curvature="0"
       id="path6"
       d="m 32.212378,21.091115 v -9 h -4 v 9 z" />
    <path
       style="fill:#ff0000"
       inkscape:connector-curvature="0"
       id="path8"
       d="M 32.212378,10.191115 V 7.7911157 h -4 v 2.3999993 z" />
    <path
       style="fill:#ff0000"
       inkscape:connector-curvature="0"
       id="3162"
       d="m 46.212378,21.091115 v -6.2 c 0,-1.3 -2.5,-3.1 -3.8,-3.1 h -1.2 c -0.9,0 -1.9,0.8 -2.8,1.2 v -0.9 h -4 v 9 h 4 v -6.2 c 0,-0.6 1.4,-1.3 2,-1.3 0.6,0 1.7,0.7 1.7,1.3 v 6.2 z" />
    <path
       style="fill:#ff0000"
       inkscape:connector-curvature="0"
       d="m 79.679418,21.400995 v -6.2 c 0,-1.3 -2.5,-3.1 -3.8,-3.1 h -1.2 c -0.9,0 -1.9,0.8 -2.8,1.2 v -0.9 h -4 v 9 h 4 v -6.2 c 0,-0.6 1.4,-1.3 2,-1.3 0.6,0 1.7,0.7 1.7,1.3 v 6.2 z"
       id="use11" />
    <path
       style="fill:#ff0000"
       inkscape:connector-curvature="0"
       id="path13"
       d="m 52.712378,21.091115 v -9 h 2.1 v -1.2 h -2.1 V 8.9911157 h -4.1 v 1.8999993 h -2.1 v 1.2 h 2.1 v 9 z" />
    <path
       inkscape:connector-curvature="0"
       id="path15"
       style="fill:#ff0000;stroke:none;stroke-width:11"
       d="m 60.412378,11.791115 c -3.2,0 -5.9,2.2 -5.9,4.9 0,2.8 2.7,5 5.9,5 2.8,0 5.1,-1.6 5.7,-3.7 h -4.1 v 1.2 c 0,1 -0.7,1.3 -1.6,1.3 -0.9,0 -1.5,-0.3 -1.5,-1.3 v -2.5 h 7.4 c 0,-2.7 -2.6,-4.9 -5.9,-4.9 z m 0,0.9 c 0.9,0 1.6,0.6 1.6,1.6 v 0.9 h -3.1 v -0.9 c 0,-1 0.6,-1.6 1.5,-1.6 z" />
    <path
       inkscape:connector-curvature="0"
       id="path17"
       style="fill:#ff0000;stroke:none;stroke-width:11"
       d="m 99.812378,11.791115 c -3.3,0 -5.9,2.2 -5.9,4.9 0,2.8 2.6,5 5.9,5 3.200002,0 5.900002,-2.2 5.900002,-5 0,-2.7 -2.7,-4.9 -5.900002,-4.9 z m 0,0.9 c 0.900002,0 1.500002,0.6 1.500002,1.6 v 4.9 c 0,1 -0.6,1.3 -1.500002,1.3 -1,0 -1.6,-0.3 -1.6,-1.3 v -4.9 c 0,-1 0.6,-1.6 1.6,-1.6 z" />
    <path
       style="fill:#ff0000"
       inkscape:connector-curvature="0"
       id="path19"
       d="m 88.312378,7.7911157 v 4.8999993 c 0,0 -1.2,-0.9 -2.8,-0.9 -2.5,0 -4.6,2.2 -4.6,4.6 0,2.5 2.1,5 4.6,5 1.6,0 2.8,-0.6 2.8,-0.6 v 0.3 h 4 V 7.7911157 Z m -1.5,5.4999993 c 0.9,0 1.5,0.7 1.5,1.6 v 3.7 c 0,0.9 -0.6,1.2 -1.5,1.2 -1,0 -1.6,-0.3 -1.6,-1.2 v -3.7 c 0,-0.9 0.6,-1.6 1.6,-1.6 z" />
    <path
       inkscape:connector-curvature="0"
       id="path21"
       style="fill:none;fill-opacity:0.5;stroke:#ff0000;stroke-width:0.31939518"
       d="m 108.11238,9.8911157 c 0,0.9999993 -0.9,1.8999993 -1.9,1.8999993 -1.1,0 -1.9,-0.9 -1.9,-1.8999993 0,-1.1 0.8,-2 1.9,-2 1,0 1.9,0.9 1.9,2 z m -1.4,0.7999993 -0.4,-0.6999993 h -0.7 0.7 c 0.6,0 0.6,-1 0,-1 h -0.7 v 1.6999993" />
    <g
       transform="translate(0.87656931,-2.2088843)"
       id="g3788">
      <g
         id="g62"
         transform="translate(2.785798,-1.096322)">
        <path
           style="stroke-width:0.48615509"
           inkscape:connector-curvature="0"
           d="m 106.28582,37.964664 v -2.8197 c 0,-0.53477 -0.53477,-1.069541 -1.06954,-1.069541 h -5.49355 v 3.889241 h 1.264 v -2.625238 c 0,-0.194462 0.14585,-0.388924 0.34031,-0.388924 h 0.72924 c 0.14584,0 0.3403,0.194462 0.3403,0.388924 v 2.625238 h 1.26401 v -2.625238 c 0,-0.194462 0.14584,-0.388924 0.3403,-0.388924 h 0.72924 c 0.14584,0 0.34031,0.194462 0.34031,0.388924 v 2.625238 z"
           id="use44" />
        <path
           style="stroke-width:0.48615509"
           inkscape:connector-curvature="0"
           d="m 98.85259,37.964664 h -3.208625 c -0.534771,0 -1.069542,-0.340309 -1.069542,-0.875079 v -3.062777 h 4.278167 v 0.923694 h -2.868317 c -0.145846,0 -0.340308,0.145847 -0.340308,0.340309 0,0.194462 0.194462,0.340308 0.340308,0.340308 h 2.673857 v 0.777849 h -2.673857 c -0.145846,0 -0.340308,0.194462 -0.340308,0.340308 0,0.194462 0.194462,0.388924 0.340308,0.388924 h 2.868317 z"
           id="use46" />
        <path
           style="stroke-width:0.48615509"
           inkscape:connector-curvature="0"
           d="m 89.613246,34.075423 v 0.875079 h 1.264003 c 0.340308,0 0.340308,0 0.340308,0.388924 v 2.625238 h 1.215388 v -2.625238 c 0,-0.388924 0,-0.388924 0.388924,-0.388924 h 1.215388 v -0.875079 z"
           id="use48" />
        <path
           style="stroke-width:0.48615509"
           inkscape:connector-curvature="0"
           id="3187"
           d="m 75.214202,34.096322 c -0.340308,0 -1.069541,0.53477 -1.069541,0.875079 v 0.53477 c 0,0.340309 0.729233,0.875079 1.069541,0.875079 h 2.139082 c 0.194463,0 0.388925,0.194462 0.388925,0.340309 0,0.194462 -0.194462,0.388924 -0.388925,0.388924 h -3.208623 v 0.875079 h 3.597548 c 0.340308,0 1.020925,-0.53477 1.020925,-0.875079 v -0.534771 c 0,-0.388924 -0.680617,-0.923694 -1.020925,-0.923694 h -2.139083 c -0.194462,0 -0.388924,-0.145847 -0.388924,-0.340309 0,-0.194462 0.194462,-0.340308 0.388924,-0.340308 h 3.160008 v -0.875079 z" />
        <path
           style="stroke-width:0.48615509"
           inkscape:connector-curvature="0"
           d="m 85.512419,34.096322 c -0.340309,0 -1.069542,0.53477 -1.069542,0.875079 v 0.53477 c 0,0.340309 0.729233,0.875079 1.069542,0.875079 h 2.139082 c 0.194462,0 0.388924,0.194462 0.388924,0.340309 0,0.194462 -0.194462,0.388924 -0.388924,0.388924 h -3.208624 v 0.875079 h 3.597548 c 0.340309,0 1.020926,-0.53477 1.020926,-0.875079 v -0.534771 c 0,-0.388924 -0.680617,-0.923694 -1.020926,-0.923694 h -2.139082 c -0.194462,0 -0.388924,-0.145847 -0.388924,-0.340309 0,-0.194462 0.194462,-0.340308 0.388924,-0.340308 h 3.160008 v -0.875079 z"
           id="use51" />
        <path
           style="display:inline;stroke-width:0.48615509"
           inkscape:connector-curvature="0"
           id="path53"
           d="m 79.152058,34.096322 v 1.750158 c 0,0.340308 0.534771,0.875079 0.875079,0.875079 h 0.87508 v 1.264003 h 1.264003 v -1.264003 h 0.875079 c 0.340309,0 0.875079,-0.534771 0.875079,-0.875079 V 34.096322 H 82.70099 v 1.409849 c 0,0.145847 -0.194462,0.340309 -0.388924,0.340309 H 80.75637 c -0.194462,0 -0.388924,-0.194462 -0.388924,-0.340309 v -1.409849 z" />
      </g>
      <g
         id="g54"
         transform="translate(-2.9162972,0.604312)">
        <path
           style="stroke-width:0.48615509"
           inkscape:connector-curvature="0"
           id="2399"
           d="m 19.222785,36.333544 v -2.819699 c 0,-0.534771 -0.534771,-1.069541 -1.069541,-1.069541 h -4.083703 v 3.88924 h 1.264003 v -2.625237 c 0,-0.194462 0.145847,-0.388924 0.340309,-0.388924 h 1.94462 c 0.194462,0 0.388924,0.194462 0.388924,0.388924 v 2.625237 z" />
        <path
           style="stroke-width:0.48615509"
           inkscape:connector-curvature="0"
           d="m 52.958322,36.333544 v -2.819699 c 0,-0.534771 -0.53477,-1.069541 -1.069541,-1.069541 h -4.083703 v 3.88924 h 1.264003 v -2.625237 c 0,-0.194462 0.145847,-0.388924 0.340309,-0.388924 h 1.94462 c 0.194462,0 0.388924,0.194462 0.388924,0.388924 v 2.625237 z"
           id="use3171" />
        <path
           style="stroke-width:0.48615509"
           inkscape:connector-curvature="0"
           d="m 71.424092,36.333544 v -2.819699 c 0,-0.534771 -0.534771,-1.069541 -1.069542,-1.069541 h -4.083702 v 3.88924 h 1.264003 v -2.625237 c 0,-0.194462 0.145846,-0.388924 0.340308,-0.388924 h 1.944621 c 0.194462,0 0.388924,0.194462 0.388924,0.388924 v 2.625237 z"
           id="use25" />
        <path
           style="stroke-width:0.48615509"
           inkscape:connector-curvature="0"
           id="3177"
           d="m 60.400121,36.333544 v -2.819699 c 0,-0.534771 -0.53477,-1.069541 -1.069541,-1.069541 h -5.493552 v 3.88924 h 1.264003 v -2.625237 c 0,-0.194462 0.145846,-0.388924 0.340308,-0.388924 h 0.729233 c 0.145847,0 0.340309,0.194462 0.340309,0.388924 v 2.625237 h 1.264003 v -2.625237 c 0,-0.194462 0.145846,-0.388924 0.340308,-0.388924 h 0.729233 c 0.145847,0 0.340309,0.194462 0.340309,0.388924 v 2.625237 z" />
        <path
           style="stroke-width:0.48615509"
           inkscape:connector-curvature="0"
           id="3181"
           d="M 13.194462,36.333544 H 9.9858384 c -0.5347706,0 -1.0695412,-0.340308 -1.0695412,-0.875079 v -3.062777 h 4.2781648 v 0.923695 h -2.868315 c -0.145847,0 -0.3403086,0.145846 -0.3403086,0.340308 C 9.9858384,33.854153 10.1803,34 10.326147,34 H 13 v 0.777848 h -2.673853 c -0.145847,0 -0.3403086,0.194462 -0.3403086,0.340309 0,0.194462 0.1944616,0.388924 0.3403086,0.388924 h 2.868315 z" />
        <path
           style="stroke-width:0.48615509"
           inkscape:connector-curvature="0"
           d="m 28.996898,36.333544 h -3.208624 c -0.534771,0 -1.069541,-0.340308 -1.069541,-0.875079 v -3.062777 h 4.278165 v 0.923695 h -2.868315 c -0.145847,0 -0.340309,0.145846 -0.340309,0.340308 0,0.194462 0.194462,0.340309 0.340309,0.340309 h 2.673853 v 0.777848 h -2.673853 c -0.145847,0 -0.340309,0.194462 -0.340309,0.340309 0,0.194462 0.194462,0.388924 0.340309,0.388924 h 2.868315 z"
           id="use29" />
        <path
           style="stroke-width:0.48615509"
           inkscape:connector-curvature="0"
           d="m 65.573322,36.333544 h -3.208624 c -0.53477,0 -1.069541,-0.340308 -1.069541,-0.875079 v -3.062777 h 4.278165 v 0.923695 h -2.868315 c -0.145847,0 -0.340309,0.145846 -0.340309,0.340308 0,0.194462 0.194462,0.340309 0.340309,0.340309 h 2.673853 v 0.777848 h -2.673853 c -0.145847,0 -0.340309,0.194462 -0.340309,0.340309 0,0.194462 0.194462,0.388924 0.340309,0.388924 h 2.868315 z"
           id="use31" />
        <path
           style="stroke-width:0.48615509"
           inkscape:connector-curvature="0"
           id="2391"
           d="m 19.757556,32.444304 v 0.875079 h 1.264003 c 0.340308,0 0.340308,0 0.340308,0.388924 v 2.625237 h 1.215388 v -2.625237 c 0,-0.388924 0,-0.388924 0.388924,-0.388924 h 1.215388 v -0.875079 z" />
        <path
           style="stroke-width:0.48615509"
           inkscape:connector-curvature="0"
           d="m 35.20488,32.444304 v 0.875079 h 1.264004 c 0.340308,0 0.340308,0 0.340308,0.388924 v 2.625237 h 1.215388 v -2.625237 c 0,-0.388924 0,-0.388924 0.388924,-0.388924 h 1.215388 v -0.875079 z"
           id="use34" />
        <path
           style="stroke-width:0.48615509"
           inkscape:connector-curvature="0"
           d="m 72.136416,32.444304 v 0.875079 h 1.264003 c 0.340308,0 0.340308,0 0.340308,0.388924 v 2.625237 h 1.215388 v -2.625237 c 0,-0.388924 0,-0.388924 0.388924,-0.388924 h 1.215388 v -0.875079 z"
           id="use36" />
        <path
           style="stroke-width:0.48615509"
           inkscape:connector-curvature="0"
           id="path38"
           d="m 29.869581,32.444304 v 3.88924 h 1.264004 v -0.680617 c 0,-0.194462 0.145846,-0.388924 0.340308,-0.388924 h 1.604312 c 0.194462,0 0.340309,0.194462 0.340309,0.388924 v 0.680617 h 1.069541 v -1.069541 c 0,-0.145846 -0.145847,-0.340309 -0.145847,-0.534771 0,-0.145846 0.340309,-0.486155 0.340309,-0.875079 v -0.340308 c 0,-0.340309 -0.534771,-1.069541 -0.875079,-1.069541 z m 1.604312,0.875079 h 1.604312 c 0.194462,0 0.340309,0.194462 0.340309,0.388924 v 0.340308 c 0,0.194462 -0.145847,0.340309 -0.340309,0.340309 h -1.604312 c -0.194462,0 -0.340308,-0.145847 -0.340308,-0.340309 v -0.340308 c 0,-0.194462 0.145846,-0.388924 0.340308,-0.388924 z" />
        <path
           style="stroke-width:0.48615509"
           inkscape:connector-curvature="0"
           id="path40"
           d="m 41.051149,32.444304 c -0.340309,0 -0.87508,0.729232 -0.87508,1.069541 v 2.819699 h 1.264004 v -1.069541 h 2.284929 v 1.069541 h 1.264003 v -2.819699 c 0,-0.340309 -0.534771,-1.069541 -0.923695,-1.069541 z m 0.729232,0.875079 h 1.604312 c 0.145847,0 0.340309,0.194462 0.340309,0.388924 v 0.680617 h -2.284929 v -0.680617 c 0,-0.194462 0.145846,-0.388924 0.340308,-0.388924 z" />
        <path
           style="stroke-width:0.48615509"
           inkscape:connector-curvature="0"
           id="path42"
           d="m 47.079472,36.333544 v -3.88924 h -1.215388 v 3.88924 z" />
      </g>
    </g>
  </g>
</svg>
