<?xml version="1.0" encoding="UTF-8" standalone="no"?>
<!-- Generator: Adobe Illustrator 12.0.0, SVG Export Plug-In . SVG Version: 6.00 Build 51448)  -->

<svg
   xmlns:dc="http://purl.org/dc/elements/1.1/"
   xmlns:cc="http://creativecommons.org/ns#"
   xmlns:rdf="http://www.w3.org/1999/02/22-rdf-syntax-ns#"
   xmlns:svg="http://www.w3.org/2000/svg"
   xmlns="http://www.w3.org/2000/svg"
   xmlns:sodipodi="http://sodipodi.sourceforge.net/DTD/sodipodi-0.dtd"
   xmlns:inkscape="http://www.inkscape.org/namespaces/inkscape"
   version="1.0"
   id="Layer_1"
   width="500"
   height="299.35477"
   viewBox="0 0 2279.715 1645.1394"
   overflow="visible"
   enable-background="new 0 0 612.092 560.54"
   xml:space="preserve"
   sodipodi:version="0.32"
   inkscape:version="0.92.4 5da689c313, 2019-01-14"
   sodipodi:docname="psx_label.svg"
   style="overflow:visible"><metadata
   id="metadata20"><rdf:RDF><cc:Work
       rdf:about=""><dc:format>image/svg+xml</dc:format><dc:type
         rdf:resource="http://purl.org/dc/dcmitype/StillImage" /><dc:title></dc:title></cc:Work></rdf:RDF></metadata><defs
   id="defs18" /><sodipodi:namedview
   inkscape:window-height="900"
   inkscape:window-width="1600"
   inkscape:pageshadow="2"
   inkscape:pageopacity="0.0"
   guidetolerance="10.0"
   gridtolerance="10.0"
   objecttolerance="10.0"
   borderopacity="1.0"
   bordercolor="#666666"
   pagecolor="#ffffff"
   id="base"
   inkscape:zoom="0.95115165"
   inkscape:cx="240.59804"
   inkscape:cy="96.432006"
   inkscape:window-x="0"
   inkscape:window-y="0"
   inkscape:current-layer="Layer_1"
   showgrid="false"
   fit-margin-top="0"
   fit-margin-left="0"
   fit-margin-right="0"
   fit-margin-bottom="0"
   inkscape:window-maximized="1"
   inkscape:pagecheckerboard="true" />
<g
   id="g3"
   transform="matrix(2.1571127,0,0,2.1571127,348.50168,-693.58748)"
   style="display:inline"
   inkscape:label="logo">
	
	<path
   d="M 395.06807,434.21345 394.60021,863.39514 279.61012,825.99696 V 321.53515 l 146.77829,38.8061 c 93.9539,25.25126 151.45108,74.33572 150.5154,160.36064 -0.93425,100.0534 -47.2116,140.25584 -137.42843,114.07469 V 437.47977 c 0,-23.84477 -44.40731,-25.24111 -44.40731,-3.26632 z"
   id="path7"
   style="clip-rule:evenodd;fill:#de0029;fill-opacity:1;fill-rule:evenodd"
   inkscape:connector-curvature="0" />
	<path
   d="m 226.78568,742.76757 -54.22512,18.23778 c -35.06323,12.15852 -64.97567,-16.35908 -32.72249,-28.05407 l 26.17539,-9.34411 -98.632455,-31.33052 C 36.994899,702.56663 8.4787729,724.53999 10.3531,755.3983 c 1.869981,31.3204 73.38699,38.80466 128.55071,47.68813 51.4165,8.4113 98.16172,3.73706 140.70488,-11.2242 v -32.26192 z m 168.74878,120.62757 100.50242,-35.0676 -101.43667,-32.25463 v 64.98007 z"
   id="path9"
   style="clip-rule:evenodd;fill:#f3c202;fill-opacity:1;fill-rule:evenodd"
   inkscape:connector-curvature="0" />
	<path
   d="m 662.91715,769.42531 1.8685,-0.47074 c 43.94098,-15.42334 62.63936,-36.93754 57.96798,-57.03368 -7.4799,-33.65968 -61.23717,-51.89741 -143.97839,-57.97669 -59.36432,-4.20494 -117.79432,8.88207 -174.8237,28.51615 l -9.3499,3.27646 102.37241,31.79113 59.83219,-20.10628 c 62.6393,-11.68485 87.8862,8.88347 27.58184,28.05407 l -29.91827,10.2798 z m -383.30703,-148.67002 -45.3474,15.4234 45.3474,14.02701 z"
   id="path11"
   style="clip-rule:evenodd;fill:#326db3;fill-opacity:1;fill-rule:evenodd"
   inkscape:connector-curvature="0" />
	<path
   d="m 496.03688,828.32754 166.88027,-58.90223 -108.4502,-33.66978 -159.86674,54.70022 v 5.61716 z m -216.42676,-103.32405 -52.823,17.76557 52.823,16.83125 z m 114.99009,27.59201 v -66.85869 l 102.37241,31.79113 z M 166.01492,723.60717 279.60869,682.93251 V 650.2057 L 234.26272,636.17869 69.718853,691.81461 c -0.46787,0 -1.402132,0.46204 -2.336393,0.46204 z"
   id="path13"
   style="clip-rule:evenodd;fill:#00aa9e;fill-opacity:1;fill-rule:evenodd"
   inkscape:connector-curvature="0" />
	
</g><g
   id="g47"
   transform="matrix(6.7300513,0,0,6.7300513,-1236.7458,39.079327)"
   inkscape:label="label"><path
     id="path3003"
     style="fill:#000000;fill-opacity:1;fill-rule:nonzero;stroke:none"
     d="m 189.72168,175.40714 v 45.71058 h 7.13579 v -41.33098 h 6.60531 c 0,0 4.79841,0 6.44176,2.14592 1.39605,1.82284 1.65132,5.12948 1.65132,7.36316 0,2.38923 -0.15157,6.08277 -0.9533,7.43494 -1.21656,2.06615 -3.21489,2.48098 -5.04173,2.48098 h -4.35966 v 4.05651 h 6.27027 c 0,0 5.65598,0.23551 8.08909,-2.23767 2.98355,-3.03141 3.7414,-7.10787 3.7414,-12.56442 0,-4.95796 -1.79891,-9.95981 -5.47649,-11.65898 -3.04339,-1.40004 -8.53185,-1.40004 -8.53185,-1.40004 h -15.57191"
     inkscape:connector-curvature="0" /><path
     id="path3005"
     style="fill:#000000;fill-opacity:1;fill-rule:nonzero;stroke:none"
     d="m 224.91005,221.11772 h 7.13458 v -45.71058 h -7.13458 z"
     inkscape:connector-curvature="0" /><path
     id="path3007"
     style="fill:#000000;fill-opacity:1;fill-rule:nonzero;stroke:none"
     d="m 270.00637,186.06894 13.05504,34.21513 -7.49477,18.35603 h 5.92322 l 21.58289,-52.57116 h -6.61327 l -9.40139,25.62346 -8.74723,-25.62346 h -8.30449"
     inkscape:connector-curvature="0" /><path
     id="path3009"
     style="fill:#000000;fill-opacity:1;fill-rule:nonzero;stroke:none"
     d="m 308.44554,220.84649 v -4.31977 c 0,0 7.54663,0.29516 9.11819,0.29516 3.48214,0 5.22121,-0.7419 6.5295,-2.14594 0.77382,-0.8416 1.47184,-4.57104 1.47184,-5.89928 0,-1.32425 -0.25528,-4.18814 -0.77381,-5.36083 -0.53449,-1.14874 -1.75105,-2.22171 -3.57388,-2.37726 -1.30033,-0.11169 -3.31063,-0.37494 -5.65998,-0.48264 -3.29466,-0.15572 -5.47251,-1.87469 -6.52153,-3.11119 -1.04106,-1.2365 -2.43312,-3.09922 -2.43312,-8.79908 0,-5.70785 1.47583,-8.90679 2.95563,-10.39059 1.47981,-1.49177 3.64569,-2.14592 5.30898,-2.44109 1.91458,-0.32707 5.04172,-0.34701 5.04172,-0.34701 l 9.98771,0.29133 v 4.31977 c 0,0 -7.28337,-0.29133 -8.85092,-0.29133 -3.48214,0 -4.52719,0.74589 -5.8315,2.14592 -0.76982,0.83364 -1.37212,3.13912 -1.37212,4.45937 0,1.32825 0.15573,4.00865 0.67808,5.16936 0.51854,1.14876 1.73909,2.22571 3.56591,2.38924 1.29633,0.0996 3.31063,0.36297 5.65599,0.47066 3.31062,0.15542 5.48448,1.87071 6.52154,3.11121 1.04903,1.24048 2.44508,3.85309 2.44508,9.54895 0,5.70785 -1.48779,9.78431 -2.95964,11.27209 -1.48379,1.4838 -3.64567,2.14593 -5.30896,2.43311 -1.91856,0.33107 -5.04571,0.35501 -5.04571,0.35501 l -10.949,-0.29517"
     inkscape:connector-curvature="0" /><path
     id="path3011"
     style="fill:#000000;fill-opacity:1;fill-rule:nonzero;stroke:none"
     d="m 347.37931,179.78674 h -7.13181 v 33.55698 c 0,0 0.17135,3.06334 0.34702,4.14029 0.1755,1.07695 1.74305,3.63371 5.83148,3.63371 l 7.39108,-0.1436 v -4.3038 c 0,0 -2.00233,0.14358 -3.21091,0.14358 -1.22453,0 -2.70834,-0.0797 -2.95962,-2.14992 -0.2674,-2.06614 -0.2674,-4.53515 -0.2674,-4.53515 v -19.76006 h 8.05719 v -4.29983 h -8.05719 v -6.2822"
     inkscape:connector-curvature="0" /><path
     id="path3013"
     style="fill:#000000;fill-opacity:1;fill-rule:nonzero;stroke:none"
     d="m 416.24033,221.11772 h 7.1322 v -35.04676 h -7.1322 z"
     inkscape:connector-curvature="0" /><path
     id="path3015"
     style="fill:#000000;fill-opacity:1;fill-rule:nonzero;stroke:none"
     d="m 416.24033,181.76912 h 7.1322 v -6.36316 h -7.1322 z"
     inkscape:connector-curvature="0" /><path
     id="path3017"
     style="fill:#000000;fill-opacity:1;fill-rule:nonzero;stroke:none"
     d="m 445.91632,185.76979 c 4.85427,0 8.6196,1.08493 10.64187,2.72031 2.04222,1.63935 4.55112,5.09757 4.55112,15.10522 0,10.00767 -2.5089,13.4619 -4.55112,15.10524 -2.02227,1.63537 -5.7876,2.72827 -10.64187,2.72827 -4.86622,0 -8.61561,-1.0929 -10.65384,-2.72827 -2.03823,-1.64334 -4.53515,-5.09757 -4.53515,-15.10524 0,-10.00765 2.49692,-13.46587 4.53515,-15.10522 2.03823,-1.63538 5.78762,-2.72031 10.65384,-2.72031 z m -4.89015,6.72098 c -0.98123,1.20858 -2.17783,3.74938 -2.17783,11.10455 0,7.35119 1.1966,9.89599 2.17783,11.10058 0.97722,1.1966 2.78012,2.00632 5.11352,2.00632 2.33738,0 4.13229,-0.80972 5.12151,-2.00632 0.97722,-1.20459 2.17384,-3.74939 2.17384,-11.10058 0,-7.35517 -1.19662,-9.89597 -2.17384,-11.10455 -0.98922,-1.2006 -2.78413,-2.00234 -5.12151,-2.00234 -2.3334,0 -4.1363,0.80174 -5.11352,2.00234"
     inkscape:connector-curvature="0" /><path
     id="path3019"
     style="fill:#000000;fill-opacity:1;fill-rule:nonzero;stroke:none"
     d="m 475.88746,190.99102 6.9962,-0.29517 c 1.8308,0 3.98471,0.4946 5.02976,1.81884 0.97323,1.24848 1.5875,2.73626 1.5875,5.13348 v 23.42966 h 7.14377 v -24.01999 c 0,-4.54315 -1.40003,-7.18367 -3.4981,-8.84297 -2.99153,-2.37328 -8.35235,-2.14593 -8.35235,-2.14593 l -15.98275,0.2872 v 34.72169 h 7.07597 v -30.08681"
     inkscape:connector-curvature="0" /><path
     id="path3021"
     style="fill:#000000;fill-opacity:1;fill-rule:nonzero;stroke:none"
     d="m 402.03257,179.78674 h -7.13581 v 33.55698 c 0,0 0.16753,3.06334 0.33905,4.14029 0.17966,1.07695 1.73509,3.63371 5.83946,3.63371 l 7.39108,-0.1436 v -4.3038 c 0,0 -2.00631,0.14358 -3.21888,0.14358 -1.21257,0 -2.70036,-0.0797 -2.95962,-2.14992 -0.25528,-2.06614 -0.25528,-4.53515 -0.25528,-4.53515 v -19.76006 h 8.03725 v -4.29983 h -8.03725 v -6.2822"
     inkscape:connector-curvature="0" /><path
     id="path3023"
     style="fill:#000000;fill-opacity:1;fill-rule:nonzero;stroke:none"
     d="m 259.12119,197.64817 c 0,-2.39722 -0.61027,-3.885 -1.59149,-5.13348 -1.04504,-1.32424 -3.19097,-1.81884 -5.02577,-1.81884 l -9.40937,0.29517 v -4.63488 l 11.32394,-0.2872 c 0,0 5.36082,-0.22751 8.35635,2.14593 2.09008,1.6593 3.47814,4.29982 3.47814,8.84297 v 23.68493 l -13.67328,0.29517 c 0,0 -6.19047,0.0225 -9.30964,-1.24049 -3.03939,-1.23649 -4.6987,-4.63089 -4.6987,-9.34154 0,-4.54713 1.39206,-7.18766 3.48214,-8.84695 2.99551,-2.37728 8.35236,-2.14195 8.35236,-2.14195 h 4.36763 v 4.03658 h -2.44906 c -1.83482,0 -3.72147,0.33904 -4.77049,1.66329 -0.97725,1.2365 -1.49976,2.30946 -1.49976,4.70667 0,3.1471 0.61027,4.55111 2.09009,5.62008 1.30828,0.95331 3.64966,1.16073 6.26226,1.16073 l 4.71465,-0.28719 v -18.719"
     inkscape:connector-curvature="0" /><path
     id="path3025"
     style="fill:#000000;fill-opacity:1;fill-rule:nonzero;stroke:none"
     d="m 379.43255,197.64817 c 0,-2.39722 -0.59831,-3.885 -1.57953,-5.13348 -1.057,-1.32424 -3.20293,-1.81884 -5.02576,-1.81884 l -9.40537,0.29517 v -4.63488 l 11.31595,-0.2872 c 0,0 5.35684,-0.22751 8.34837,2.14593 2.09008,1.6593 3.48613,4.29982 3.48613,8.84297 v 23.68493 l -13.67329,0.29517 c 0,0 -6.19845,0.0225 -9.30964,-1.24049 -3.04338,-1.23649 -4.70668,-4.63089 -4.70668,-9.34154 0,-4.54713 1.40403,-7.18766 3.48214,-8.84695 2.99154,-2.37728 8.36033,-2.14195 8.36033,-2.14195 h 4.36365 v 4.03658 h -2.45305 c -1.82285,0 -3.72146,0.33904 -4.75853,1.66329 -0.98123,1.2365 -1.50774,2.30946 -1.50774,4.70667 0,3.1471 0.61427,4.55111 2.09009,5.62008 1.30431,0.95331 3.65765,1.16073 6.27024,1.16073 l 4.70269,-0.28719 v -18.719"
     inkscape:connector-curvature="0" /><path
     id="path3027"
     style="fill:#000000;fill-opacity:1;fill-rule:nonzero;stroke:none"
     d="m 509.57608,221.40491 c 1.86273,0 3.61377,-0.72595 4.93005,-2.03424 1.31228,-1.32026 2.03822,-3.07132 2.03822,-4.93005 0,-1.86272 -0.72594,-3.61377 -2.03822,-4.93003 -1.31628,-1.3123 -3.06732,-2.03425 -4.93005,-2.03425 -3.82517,0 -6.96428,3.12315 -6.96428,6.96428 0,1.85873 0.71797,3.60979 2.04621,4.93005 1.32026,1.30829 3.06333,2.03424 4.91807,2.03424 z m -5.79559,-6.96429 c 0,-1.54761 0.61027,-3.0035 1.69919,-4.09641 1.10087,-1.09289 2.54879,-1.70317 4.0964,-1.70317 1.54762,0 3.00749,0.61028 4.10039,1.70317 1.08892,1.09291 1.69919,2.5488 1.69919,4.09641 0,3.19495 -2.59665,5.79958 -5.79958,5.79958 -1.54761,0 -2.99553,-0.61027 -4.0964,-1.69919 -1.08892,-1.09689 -1.69919,-2.54878 -1.69919,-4.10039"
     inkscape:connector-curvature="0" /><path
     id="path3029"
     style="fill:#000000;fill-opacity:1;fill-rule:nonzero;stroke:none"
     d="m 513.01435,217.67547 c -0.10371,-0.0399 -0.18349,-0.15956 -0.2272,-0.33904 -0.0319,-0.12764 -0.06,-0.32309 -0.0679,-0.58635 l -0.0319,-1.00116 c -0.016,-0.47067 -0.11584,-0.80572 -0.28335,-1.02909 -0.10754,-0.15157 -0.27124,-0.27123 -0.45871,-0.38292 0.23134,-0.15157 0.43876,-0.33505 0.58635,-0.56639 0.19559,-0.31112 0.29899,-0.70601 0.29899,-1.18465 0,-0.9174 -0.38691,-1.56358 -1.14078,-1.90262 -0.39887,-0.17964 -0.8815,-0.25942 -1.47183,-0.25942 h -3.6018 v 7.75405 h 1.3402 v -3.179 h 2.118 c 0.38292,0 0.67011,0.0399 0.83365,0.11169 0.27507,0.13561 0.42281,0.41084 0.43876,0.82964 l 0.0596,1.24049 c 0.016,0.30314 0.0319,0.49461 0.0559,0.60629 0.0361,0.11966 0.0558,0.21539 0.0995,0.29517 l 0.0559,0.0957 h 1.49577 v -0.45472 l -0.0996,-0.0479 z m -1.55162,-4.99387 c 0,0.43477 -0.11167,0.72196 -0.32706,0.88152 -0.2473,0.16368 -0.59033,0.25527 -1.02112,0.25527 h -2.15788 v -2.19379 h 2.28951 c 0.30697,0 0.56241,0.0437 0.7459,0.13146 0.31908,0.15956 0.47065,0.47067 0.47065,0.92538"
     inkscape:connector-curvature="0" /></g>
<g
   inkscape:groupmode="layer"
   id="layer2"
   inkscape:label="Layer 1"
   transform="translate(-274.13783,7.9699549e-5)" /></svg>