<?xml version="1.0" encoding="UTF-8" standalone="no"?>
<!-- Created with Inkscape (http://www.inkscape.org/) -->

<svg
   xmlns:dc="http://purl.org/dc/elements/1.1/"
   xmlns:cc="http://creativecommons.org/ns#"
   xmlns:rdf="http://www.w3.org/1999/02/22-rdf-syntax-ns#"
   xmlns:svg="http://www.w3.org/2000/svg"
   xmlns="http://www.w3.org/2000/svg"
   xmlns:xlink="http://www.w3.org/1999/xlink"
   xmlns:sodipodi="http://sodipodi.sourceforge.net/DTD/sodipodi-0.dtd"
   xmlns:inkscape="http://www.inkscape.org/namespaces/inkscape"
   width="452.77979mm"
   height="94.477005mm"
   viewBox="0 0 452.77979 94.477005"
   version="1.1"
   id="svg8"
   inkscape:version="0.92.4 5da689c313, 2019-01-14"
   sodipodi:docname="saturn_label.svg">
  <defs
     id="defs2">
    <linearGradient
       id="linearGradient867"
       inkscape:collect="always">
      <stop
         id="stop863"
         offset="0"
         style="stop-color:#f8f4f4;stop-opacity:1" />
      <stop
         id="stop865"
         offset="1"
         style="stop-color:#06499f;stop-opacity:1" />
    </linearGradient>
    <linearGradient
       inkscape:collect="always"
       id="linearGradient832">
      <stop
         style="stop-color:#ff0000;stop-opacity:1"
         offset="0"
         id="stop828" />
      <stop
         style="stop-color:#000000;stop-opacity:1"
         offset="1"
         id="stop830" />
    </linearGradient>
    <radialGradient
       inkscape:collect="always"
       xlink:href="#linearGradient832"
       id="radialGradient849"
       cx="135.15765"
       cy="-0.57506549"
       fx="135.15765"
       fy="-0.57506549"
       r="116.11752"
       gradientTransform="matrix(1.1366577,4.3616787,-6.1747748,1.6091522,-76.592064,-794.72319)"
       gradientUnits="userSpaceOnUse" />
    <radialGradient
       inkscape:collect="always"
       xlink:href="#linearGradient867"
       id="radialGradient861"
       cx="-1539.5371"
       cy="18.916679"
       fx="-1539.5371"
       fy="18.916679"
       r="190.29997"
       gradientTransform="matrix(0.234304,-1.1210513,1.2338163,0.25786971,-1222.9236,-1688.2185)"
       gradientUnits="userSpaceOnUse" />
  </defs>
  <sodipodi:namedview
     id="base"
     pagecolor="#ffffff"
     bordercolor="#666666"
     borderopacity="1.0"
     inkscape:pageopacity="0.0"
     inkscape:pageshadow="2"
     inkscape:zoom="0.49497475"
     inkscape:cx="826.60766"
     inkscape:cy="11.818002"
     inkscape:document-units="mm"
     inkscape:current-layer="layer1"
     showgrid="false"
     inkscape:window-width="1600"
     inkscape:window-height="900"
     inkscape:window-x="0"
     inkscape:window-y="0"
     inkscape:window-maximized="1"
     fit-margin-top="0"
     fit-margin-left="0"
     fit-margin-right="0"
     fit-margin-bottom="0"
     inkscape:pagecheckerboard="true" />
  <metadata
     id="metadata5">
    <rdf:RDF>
      <cc:Work
         rdf:about="">
        <dc:format>image/svg+xml</dc:format>
        <dc:type
           rdf:resource="http://purl.org/dc/dcmitype/StillImage" />
        <dc:title></dc:title>
      </cc:Work>
    </rdf:RDF>
  </metadata>
  <g
     inkscape:label="Layer 1"
     inkscape:groupmode="layer"
     id="layer1"
     style="display:inline"
     transform="translate(1848.6277,302.62007)">
    <g
       id="g882"
       inkscape:label="saturn_logo"
       transform="matrix(0.11540109,0,0,0.11540109,-1630.4418,-268.11512)">
      <path
         inkscape:label="0"
         inkscape:connector-curvature="0"
         id="path16"
         d="m -410.21748,301.42942 c -34.65515,-1.97628 -65.81076,-9.93645 -95.14043,-24.30809 -13.62568,-6.67663 -25.02168,-13.68705 -37.32845,-22.96324 -8.20833,-6.18696 -10.8294,-7.32449 -11.95401,-5.1879 -0.1673,0.31785 -0.30419,0.88646 -0.30419,1.26355 0,1.2796 -8.70405,23.13371 -11.15626,28.01112 -2.36927,4.71241 -5.30437,7.71824 -9.34895,9.57418 -3.98111,1.82685 -6.2969,2.03253 -17.72708,1.57451 -39.5995,-1.58676 -98.03114,-2.20755 -163.59622,-1.73807 -47.44849,0.33975 -58.93159,0.48358 -130.22357,1.6311 -22.49765,0.36214 -26.47844,0.13632 -30.1008,-1.70759 -1.45881,-0.74258 -2.18588,-1.4713 -2.93214,-2.93881 -0.65543,-1.28892 -1.20346,-5.10632 -0.96779,-6.74148 0.7653,-5.31032 6.40355,-9.33603 17.59656,-12.564 3.6526,-1.05339 6.33309,-2.28936 8.98157,-4.14139 7.06374,-4.93953 10.60173,-11.38216 11.96983,-21.79688 0.51491,-3.9197 0.51324,-206.380218 -0.003,-210.476047 -1.07093,-8.517785 -3.35018,-14.755602 -6.23568,-17.065626 -0.54533,-0.436562 -2.20382,-1.991254 -3.68556,-3.4548497 -7.34288,-7.2530496 -15.23868,-12.5568872 -28.35863,-19.0492593 -10.54711,-5.219251 -19.05015,-8.64116 -33.2052,-13.362914 -30.8478,-10.290017 -67.69662,-17.969752 -99.61562,-20.761059 -6.7991,-0.594574 -17.7258,-0.797602 -22.0928,-0.410503 -16.6539,1.47624 -27.7219,7.637158 -32.5402,18.113402 -1.6247,3.532531 -1.986,5.153527 -1.9531,8.762682 0.1437,15.7330518 12.5703,32.194448 35.9486,47.620292 12.2267,8.067649 24.0772,14.179683 42.0687,21.697422 8.8722,3.707209 13.6507,5.914813 21.4313,9.900814 38.05591,19.496247 68.77258,43.847306 87.13879,69.080436 12.1933,16.75223 19.19542,33.43809 21.65101,51.59375 0.68699,5.07929 0.69004,19.14255 0.005,24.47396 -1.35353,10.53891 -3.86731,19.11398 -8.16388,27.84898 -10.92772,22.21622 -32.68504,38.54562 -63.92405,47.97661 -23.91883,7.22106 -55.07417,10.59288 -88.03637,9.52783 -10.1358,-0.3275 -13.2979,-0.58364 -31.3532,-2.53989 -22.5376,-2.4419 -21.4912,-2.38091 -40.7458,-2.37453 -17.5387,0.006 -21.451,0.15795 -30.6945,1.19366 -6.0527,0.67818 -11.1668,1.58198 -17.2032,3.0402 -5.4258,1.31075 -7.7306,1.48291 -10.4319,0.7793 -4.4794,-1.16673 -8.4923,-4.82785 -11.487,-10.48009 -0.5864,-1.10686 -3.8535,-6.93883 -7.2602,-12.95998 -23.253,-41.09802 -40.8482,-73.87831 -44.3632,-82.64959 -1.0717,-2.67436 -1.1752,-3.14026 -1.2754,-5.74413 -0.2294,-5.95927 1.8604,-10.73124 5.5602,-12.69643 0.9237,-0.49064 1.5558,-0.60367 3.3899,-0.60627 3.2896,-0.004 4.4821,0.66718 11.3985,6.4216 52.5055,43.6843 82.8539,64.01705 107.4602,71.99601 5.0133,1.62563 10.0074,2.78958 18.8514,4.39359 4.3656,0.79179 9.3662,1.72977 11.1125,2.08444 4.6122,0.93671 6.6906,1.21365 10.9467,1.45865 22.4717,1.29352 47.5972,-7.52065 60.098,-21.08274 3.575,-3.87842 5.9621,-7.86106 7.5388,-12.57726 3.9366,-11.77594 1.1747,-23.27992 -8.4952,-35.38379 -2.2554,-2.82308 -8.6873,-9.2452 -12.1446,-12.12614 -6.7285,-5.6069 -15.3332,-11.58074 -25.2677,-17.54233 -7.626,-4.57634 -13.1579,-7.63029 -28.1781,-15.55623 -13.7243,-7.2421 -16.5375,-8.80017 -22.3573,-12.38229 -2.2556,-1.38832 -9.4588,-5.55397 -16.0073,-9.25698 -16.4671,-9.31177 -23.3207,-13.37167 -31.679,-18.765676 -17.5596,-11.331999 -30.5571,-21.860167 -40.8248,-33.068578 -10.1801,-11.112792 -17.5074,-23.656238 -20.5147,-35.118729 -1.6832,-6.415379 -1.9577,-8.824093 -1.9474,-17.087348 0.01,-8.0547901 0.3022,-11.33692 1.5676,-17.6075187 7.4473,-36.9040183 38.952,-60.9339613 91.5462,-69.8261713 16.145,-2.729653 28.6499,-3.458797 55.0334,-3.208922 64.7888,0.613606 111.69392,3.060734 142.34585,7.426457 18.15983,2.58649 66.41073,3.425982 194.07187,3.376558 88.30858,-0.03419 143.48465,-0.369459 146.16372,-0.888138 1.16686,-0.225912 2.10309,-0.228208 3.65344,-0.009 3.9701,0.561443 7.19101,2.274652 10.51894,5.595024 2.45509,2.44954 4.29424,4.974435 6.16709,8.466667 1.4795,2.758771 17.67142,41.308588 17.89221,42.597929 0.11729,0.684768 0.3075,0.947367 0.73004,1.00793 1.24947,0.179044 2.9973,-1.070742 10.30412,-7.367932 7.83963,-6.756373 12.97707,-10.692685 21.1319,-16.191256 38.78955,-26.154696 84.61518,-39.526198 132.82083,-38.755943 14.60391,0.233349 21.29687,1.031009 51.19687,6.101604 15.38955,2.609831 16.11226,2.687206 25.00313,2.676885 6.11055,-0.0071 8.21153,-0.103614 10.31811,-0.47402 3.85263,-0.677418 7.68678,-2.055281 12.03918,-4.32644 14.43514,-7.532542 15.38542,-7.939445 19.16462,-8.206145 6.65927,-0.469953 11.03071,3.25347 14.72541,12.542517 1.91056,4.803479 18.64855,57.1021496 28.29999,88.424663 0.70787,2.297324 0.82378,3.023659 0.69676,4.365625 -0.35304,3.729408 -2.10297,7.212595 -4.33451,8.627798 -2.60311,1.650842 -5.76149,1.646714 -9.66097,-0.0127 -4.45262,-1.89476 -7.12298,-4.393988 -15.82455,-14.810528 C -268.71,14.66013 -272.9545,9.8529151 -277.13278,5.5327189 -300.77637,-18.914967 -327.77186,-33.013158 -361.00564,-38.26973 c -14.49536,-2.292718 -31.9568,-2.645815 -45.64062,-0.922923 -19.60891,2.468904 -35.87047,9.993596 -47.50269,21.980888 -16.31,16.8078423 -25.01397,42.216998 -27.76635,81.057118 -1.29122,18.220875 -1.65669,52.746387 -0.78563,74.215627 1.81039,44.62161 9.08333,74.87658 23.15139,96.30834 13.63697,20.775 33.32056,31.97693 60.70848,34.54918 5.04214,0.47355 15.77695,0.41207 20.6375,-0.11819 20.61856,-2.24935 35.98252,-10.88371 45.77551,-25.72525 8.8315,-13.38437 12.80142,-31.73251 10.18509,-47.07332 -3.74502,-21.95877 -16.63415,-36.8768 -37.11941,-42.96251 -3.54631,-1.05355 -6.85138,-1.7467 -12.00546,-2.51783 -4.64281,-0.69466 -5.92649,-1.07992 -8.02635,-2.40887 -5.36572,-3.39582 -6.65644,-10.53751 -2.78876,-15.43053 1.30413,-1.64983 3.37833,-3.01252 5.99249,-3.93689 l 2.08794,-0.7383 65.74895,-0.13358 c 62.08374,-0.12613 65.83746,-0.15989 67.33646,-0.60529 6.28602,-1.86777 12.06003,-6.52275 16.79559,-13.54056 1.52601,-2.26144 3.10997,-5.21414 29.24268,-54.512236 49.26544,-92.936909 68.88181,-129.779883 71.70412,-134.67292 2.70727,-4.693611 5.3712,-8.048985 8.63547,-10.876881 9.88367,-8.562388 20.840143,-7.195294 28.858605,3.600839 2.755794,3.71045 3.971184,6.10049 9.081797,17.859375 16.204723,37.285111 92.127968,207.806243 117.332521,263.525013 15.217325,33.64042 17.687342,38.67584 22.657487,46.19019 5.396442,8.15885 12.763262,14.4191 23.619539,20.07169 6.200484,3.22842 8.506857,5.02888 10.633763,8.30117 1.408483,2.16699 1.936962,3.89802 1.913361,6.26716 -0.04389,4.40359 -2.8262,7.47911 -8.080639,8.93222 -1.559534,0.43128 -5.432611,0.46049 -61.069617,0.46049 H -29.09625 l -1.757786,-0.86532 c -0.966761,-0.47594 -2.142861,-1.30395 -2.613528,-1.84002 -3.568012,-4.06374 -2.992676,-10.88628 1.326118,-15.72567 2.41554,-2.70669 4.603803,-3.79159 11.39063,-5.64732 1.382448,-0.37799 3.748961,-1.27635 5.258911,-1.99636 8.6691261,-4.13377 13.364025,-11.05046 14.37685,-21.18046 0.53083353,-5.30915 -0.3697817,-12.36924 -2.3422504,-18.36152 C -4.7513296,219.32558 -9.581801,208.3213 -43.061647,133.0339 -76.660105,57.479795 -77.964474,54.560382 -78.073985,54.66992 c -0.05702,0.05702 -19.37684,36.853178 -42.932935,81.76924 -45.93111,87.58013 -47.60592,90.90886 -49.93883,99.25307 -0.98676,3.52939 -1.15104,8.47699 -0.38256,11.52084 1.35956,5.38495 3.50464,8.53582 10.61966,15.59896 5.94873,5.90534 6.6739,6.74576 7.89596,9.15058 3.64093,7.16492 0.75017,13.49034 -7.37354,16.13438 -1.3783,0.4486 -5.37562,0.48392 -75.62355,0.66817 -67.01031,0.17579 -74.50487,0.23726 -77.65521,0.63688 -6.35262,0.80584 -13.50645,2.47201 -20.47359,4.76838 -9.23642,3.04435 -24.86025,5.58144 -42.41223,6.88715 -6.67364,0.49647 -27.64391,0.72671 -33.86667,0.37182 z m -320.38306,-43.91588 c 54.50205,-2.7413 105.04993,-21.75902 133.59485,-50.26269 5.92233,-5.91375 7.26728,-8.29424 7.25085,-12.83359 -0.009,-2.48888 -0.37436,-3.70168 -2.51066,-8.33437 -6.15336,-13.34392 -11.40737,-31.89042 -13.71652,-48.41875 -1.19383,-8.54525 -1.45976,-13.07894 -1.44333,-24.60625 0.0259,-18.115153 1.02809,-29.939383 3.5547,-41.936464 3.42908,-16.282248 9.80347,-30.221001 19.66217,-42.994793 l 2.14413,-2.778125 -0.0346,-1.5875 c -0.0364,-1.673305 -0.89029,-4.369118 -2.22559,-7.026778 -0.5638,-1.122098 -1.38663,-2.033694 -3.47269,-3.847307 -13.97068,-12.14604195 -32.34642,-23.609221 -51.28487,-31.992597 -19.16938,-8.485585 -40.23733,-14.40868 -60.58958,-17.034302 -19.82116,-2.557102 -41.33184,-2.496169 -52.51979,0.148778 -13.28508,3.140737 -19.47887,9.83668 -20.74395,22.425767 -0.1988,1.978316 -0.29043,17.5679632 -0.29043,49.410939 v 46.52071 l -0.7276,0.03963 -0.72761,0.03966 0.72761,0.110226 c 0.69717,0.105595 0.7276,0.174201 0.7276,1.640654 0,2.666154 0.89059,4.4137 2.73426,5.365248 1.3689,0.706517 4.66196,0.936731 7.1647,0.500909 2.29526,-0.399706 11.64434,-3.063663 16.82044,-4.792874 19.69336,-6.579077 41.0314,-18.555098 75.07724,-42.137226 3.67339,-2.544418 7.63442,-5.123339 8.80226,-5.730901 4.13539,-2.151486 7.04141,-2.769817 9.56683,-2.035678 3.82299,1.111382 6.06547,4.508077 7.2806,11.027992 0.43494,2.333758 0.47175,6.450092 0.54543,61.028652 0.0861,63.74326 0.15801,60.40745 -1.37448,63.75483 -1.04402,2.28044 -2.09177,3.41095 -4.05852,4.37912 -1.57771,0.77665 -1.99142,0.866 -3.88769,0.83976 -4.22145,-0.0584 -9.61424,-2.59078 -13.74206,-6.45293 -3.35266,-3.1369 -5.07637,-4.57377 -8.88526,-7.40674 -17.75296,-13.20422 -43.82347,-26.52723 -66.18928,-33.82524 -12.89082,-4.20629 -20.72664,-5.59757 -24.55754,-4.36033 -1.81395,0.58584 -3.72242,2.31653 -4.53339,4.1111 l -0.63125,1.39684 v 52.51979 52.51979 l 0.60563,2.37943 c 0.73925,2.90438 2.72127,7.1079 4.38934,9.30905 4.8325,6.37682 12.85946,10.08626 23.84462,11.01915 2.40202,0.20399 8.59123,0.16201 13.65339,-0.0926 z"
         style="display:inline;fill:#000000;stroke-width:0.26458335" />
      <path
         inkscape:label="1"
         inkscape:connector-curvature="0"
         id="path14"
         d="m 1708.3013,313.71456 c -0.8004,-0.0498 -3.9556,-0.21704 -7.0115,-0.37174 -25.3773,-1.28461 -58.8034,-5.13255 -80.5307,-9.27047 -44.9099,-8.55298 -80.2971,-23.25116 -108.6961,-45.14726 -21.1913,-16.33876 -38.8925,-37.54988 -53.3916,-63.97866 -9.0498,-16.49587 -21.1122,-43.89636 -28.14,-63.92183 -7.3118,-20.83382 -9.2845,-29.67238 -7.6761,-34.390408 1.2877,-3.776875 4.8757,-5.508149 10.7169,-5.170832 3.3864,0.195554 6.5241,0.663813 14.5113,2.165641 8.1873,1.539478 12.1748,1.885527 16.9977,1.475185 12.9908,-1.105297 24.4639,-6.662262 34.4665,-16.693728 5.7552,-5.771779 9.2561,-10.625772 12.6994,-17.607783 4.748,-9.627394 5.9087,-16.124264 5.9325,-33.205209 0.016,-10.998147 -0.4109,-15.867619 -2.1241,-24.2747013 -2.9223,-14.3417667 -9.6538,-26.9311707 -18.4359,-34.4792577 -8.7622,-7.530899 -19.4426,-11.754932 -33.5288,-13.260163 -4.3711,-0.467114 -35.5028,-0.474691 -38.7614,-0.0094 -11.1112,1.586441 -15.8716,5.598422 -17.8567,15.049937 -1.8331,8.726752 -2.0916,58.646696 -1.0645,205.669469 0.149,21.31881 0.3953,40.66646 0.5472,42.9948 1.2673,19.40554 5.4004,30.38222 13.3562,35.47148 1.674,1.07088 9.7366,4.67998 13.3522,5.97699 7.702,2.76295 13.6347,7.51277 15.7988,12.64914 0.6516,1.54651 0.7291,2.05184 0.7331,4.77771 0.01,2.91449 -0.034,3.12565 -0.8636,4.81139 -1.4388,2.92267 -4.251,5.01383 -7.7308,5.74834 -1.1084,0.23395 -6.7223,0.22733 -23.548,-0.0276 -26.8425,-0.40682 -136.685,-0.44376 -148.1666,-0.0499 -8.6971,0.29837 -9.5896,0.20923 -12.4717,-1.24561 -2.1429,-1.08172 -4.023,-2.88149 -4.9215,-4.7113 -0.6511,-1.32604 -0.7308,-1.77853 -0.7308,-4.15393 0,-2.61181 0.024,-2.71262 1.1462,-4.97912 2.7051,-5.45875 8.8892,-10.05064 17.5146,-13.00509 7.7073,-2.63996 11.8663,-5.67772 15.7509,-11.50477 4.3434,-6.51523 6.8496,-14.77677 8.5053,-28.03795 0.4109,-3.29144 0.4525,-12.72916 0.5305,-120.21161 0.084,-115.182662 0.078,-116.66708 -0.4352,-118.828964 -0.6715,-2.826623 -2.231,-6.426571 -3.8553,-8.899234 -1.7137,-2.608766 -5.8459,-6.723936 -8.4653,-8.430581 -7.6205,-4.965054 -17.3696,-7.186406 -29.8979,-6.812325 -11.3861,0.339976 -18.9828,3.110473 -24.6531,8.990748 -4.7895,4.966997 -7.2554,10.72478 -8.8636,20.697164 -0.2156,1.337707 -0.3455,29.077392 -0.4675,99.880212 l -0.1688,98.02813 -0.5892,4.10104 c -3.0044,20.90881 -9.9774,38.42629 -21.3992,53.75784 -22.9794,30.8452 -61.2151,48.65968 -113.7211,52.98397 -15.3514,1.26432 -35.5804,1.21166 -49.4771,-0.1288 -42.04813,-4.05587 -75.26471,-18.20338 -99.35106,-42.31542 -20.63803,-20.65993 -33.265,-47.35417 -37.36022,-78.98196 l -0.58235,-4.49792 -0.14499,-88.546522 -0.14473,-88.5465195 -0.80274,-1.142021 c -2.66409,-3.7905795 -11.00032,-8.4585445 -25.12881,-14.0714415 -23.22618,-9.227 -51.4604,-15.141065 -82.28303,-17.23525 -3.34698,-0.227404 -7.72372,-0.52723 -9.72608,-0.666276 -4.1238,-0.286348 -4.71223,-0.165593 -5.40862,1.109689 -0.45587,0.834837 -0.47889,6.473986 -0.55298,134.882711 -0.0569,98.56674 0,134.5713 0.22146,136.12813 0.43868,3.10399 1.65232,6.69129 3.58114,10.58334 5.09984,10.29075 13.85173,18.08176 25.53044,22.72718 3.23294,1.28602 5.38929,2.70051 7.45542,4.89098 3.0107,3.1913 4.30054,6.19405 4.10951,9.56593 -0.24632,4.34176 -3.09456,7.08586 -8.71934,8.4003 -1.80975,0.42296 -6.04917,0.4443 -63.71908,0.32083 -75.87884,-0.16248 -203.89871,-0.1728 -223.96979,-0.018 l -14.81666,0.11422 -1.5793,-0.61793 c -6.94571,-2.71772 -7.58531,-12.95374 -1.20796,-19.33112 1.96901,-1.96902 4.96674,-3.62115 7.68205,-4.23384 0.80036,-0.18058 2.46724,-0.68097 3.70417,-1.11194 10.15214,-3.53721 16.11053,-10.56767 17.869,-21.08403 0.35597,-2.12889 0.42249,-3.7296 0.31742,-7.64011 -0.2091,-7.78275 -1.22782,-12.25225 -4.55625,-19.9898 -7.61265,-17.69698 -70.88458,-159.988475 -71.1077,-159.913227 -0.10832,0.03654 -19.60115,36.786239 -43.3174,81.665977 -42.46287,80.35518 -45.71354,86.6705 -48.71574,94.64348 -1.81491,4.81981 -2.20062,6.68922 -2.20462,10.68512 -0.003,3.2268 0.0675,3.77637 0.73171,5.68854 1.50307,4.32681 4.1294,8.0755 8.84946,12.63128 8.25379,7.96645 10.10415,10.16609 11.45263,13.61441 0.80793,2.06605 0.98573,5.38297 0.38544,7.19029 -1.16104,3.49554 -4.61745,6.00043 -10.1977,7.39031 -1.55028,0.38613 -7.55031,0.44241 -60.87078,0.57084 l -59.15099,0.1424 -3.10923,-22.88646 c -1.71008,-12.58755 -3.1768,-23.39248 -3.25938,-24.01094 -0.14485,-1.08498 -0.12475,-1.12448 0.57214,-1.12448 h 0.72229 l -0.16923,-1.65364 c -0.35698,-3.48816 -0.39918,-3.61821 -1.33297,-4.10718 l -0.87249,-0.45689 14.81203,-28.04583 C 339.10305,51.112601 394.4084,-53.024824 405.30508,-72.67962 c 5.35223,-9.654046 9.66118,-14.371302 15.8261,-17.325764 4.82896,-2.314213 9.84078,-2.264021 14.61127,0.14633 4.36978,2.207893 8.78965,7.056869 12.28278,13.475267 1.78395,3.27791 24.82961,55.084876 113.23997,254.565207 24.71563,55.76592 25.7089,57.94788 27.60327,60.63748 4.99446,7.09102 10.48424,11.98618 16.85885,15.03272 6.1649,2.94632 16.48185,5.25627 23.47614,5.25627 4.495,0 9.17781,-0.94073 12.40176,-2.4914 2.2589,-1.08648 5.49592,-3.82148 7.72853,-6.52989 5.63287,-6.83336 8.8914,-14.32009 10.17675,-23.38197 0.16959,-1.19565 0.25775,-47.51284 0.25074,-131.746098 l -0.0109,-129.90221 -0.87032,-1.586024 c -0.47865,-0.872315 -1.31064,-1.942425 -1.84882,-2.378022 -0.91364,-0.739449 -1.18478,-0.806418 -4.0871,-1.009401 -3.50774,-0.245324 -12.95845,0.114631 -18.85127,0.718 -24.83721,2.543096 -54.89038,10.326595 -81.61817,21.138396 -9.858,3.987695 -17.55912,7.750678 -25.36573,12.394354 -5.14737,3.0618643 -7.5627,4.1775593 -10.83556,5.00520246 -7.93473,2.00652064 -13.29635,-2.74465526 -12.13803,-10.75605346 0.42024,-2.906554 1.04582,-4.643808 2.99712,-8.323078 6.06579,-11.437435 14.86665,-29.126482 17.45337,-35.079941 2.10315,-4.840478 2.95371,-6.279356 4.86429,-8.228841 1.28,-1.30607 2.42416,-2.174991 3.70416,-2.813108 3.42316,-1.706523 2.81065,-1.665827 23.8125,-1.582161 10.4775,0.04174 46.73204,0.191956 80.56563,0.333817 198.41189,0.831916 360.05801,0.806069 383.38129,-0.06131 9.9451,-0.369856 11.2085,-0.351798 13.3614,0.190968 3.3555,0.845926 5.6277,2.382584 6.8882,4.658228 0.681,1.229535 0.7826,1.679504 0.7689,3.401365 -0.019,2.450973 -0.8306,4.318428 -2.8224,6.497706 -1.9891,2.176333 -4.137,3.584824 -9.6606,6.334739 -6.0323,3.003286 -9.2478,5.093176 -11.9465,7.764989 -5.5121,5.456987 -9.22,13.694974 -10.9742,24.381733 -1.7573,10.7041164 -1.9214,81.792554 -0.432,187.19272 0.2664,18.85288 0.3069,19.38311 2.0169,26.32604 3.1684,12.86473 10.1319,24.63194 19.6231,33.15983 12.7031,11.41376 29.2991,18.04734 51.1209,20.43359 5.2313,0.57205 18.7166,0.80523 23.2725,0.4024 14.0319,-1.24066 25.8096,-5.52998 35.9296,-13.0851 3.5285,-2.63419 9.5848,-8.66571 12.3309,-12.28024 10.186,-13.40837 16.941,-31.80718 18.6709,-50.85548 0.1854,-2.0415 0.2804,-33.29633 0.2884,-94.985423 0.013,-100.645201 0.1061,-94.396008 -1.5039,-101.203128 -2.104,-8.893996 -5.6055,-15.481327 -11.1842,-21.040205 -4.2625,-4.247293 -8.2722,-6.790306 -14.0343,-8.900538 -2.698,-0.988058 -2.8377,-1.079992 -5.1605,-3.400986 -5.0916,-5.087808 -5.9518,-9.458159 -2.4974,-12.689306 1.6304,-1.524969 3.9151,-2.614904 7.0036,-3.341238 2.9882,-0.702773 -2.8332,-0.6188 99.3386,-1.432907 45.0388,-0.35887 104.8677,-0.843708 132.9531,-1.077417 66.5206,-0.553541 114.6942,-0.619768 122.5021,-0.16841 25.5116,1.474785 44.5828,4.571254 60.9864,9.901933 29.817,9.689638 48.6193,25.934361 58.2946,50.365233 6.9744,17.6114081 8.9435,42.41607 4.9451,62.295301 -1.6179,8.043598 -3.9259,14.822938 -7.5213,22.092709 -4.1471,8.385016 -8.8548,15.062174 -15.3678,21.796058 -15.4998,16.025334 -37.5375,26.710614 -61.9744,30.049124 -2.6882,0.36727 -9.1083,0.84442 -13.5657,1.00828 l -1.7198,0.0632 1.7055,1.04291 c 8.9498,5.4724 20.0612,16.31296 29.0335,28.32584 5.4202,7.2572 8.1806,11.5884 14.2272,22.32244 5.797,10.29119 7.857,13.72251 12.1729,20.27548 3.8846,5.8983 8.422,12.02232 12.7418,17.19791 3.8759,4.64386 11.8187,12.69781 16.5055,16.73672 7.3806,6.36009 20.5227,15.78378 29.8307,21.39006 9.9574,5.99734 22.9497,11.63466 28.9664,12.56816 5.8578,0.9089 9.5562,-1.9236 10.6706,-8.17253 0.3045,-1.70831 0.3649,-18.47982 0.3704,-102.84741 0.01,-65.460882 -0.087,-101.919487 -0.2601,-103.981253 -2.1659,-25.805104 -12.0666,-52.28328179 -27.12,-72.528643 -6.7009,-9.011603 -13.8451,-16.340826 -23.2757,-23.877866 -8.7757,-7.013681 -12.6495,-11.962432 -13.6657,-17.458305 -0.6448,-3.48634 1.0263,-6.84857 4.2108,-8.473249 3.6881,-1.881439 10.676,-1.844093 18.1467,0.09698 6.8588,1.782104 30.1223,9.721208 40.9176,13.964003 19.5762,7.693842 42.4701,18.893713 61.2997,29.988116 18.3602,10.817755 37.0308,23.5812816 52.7357,36.0508563 21.9861,17.4568647 112.7752,92.1088907 149.4213,122.8627407 3.0911,2.59413 6.0547,5.01134 6.5855,5.37152 1.2798,0.86852 2.15,0.85743 2.4881,-0.0317 0.1702,-0.44746 0.2371,-28.11785 0.1919,-79.441144 l -0.069,-78.754528 -0.6083,-1.984375 c -2.3238,-7.579942 -7.9584,-14.272988 -16.5602,-19.671308 -2.2903,-1.437431 -3.0483,-1.828967 -9.9513,-5.141053 -3.9674,-1.903547 -6.273,-3.838427 -7.6914,-6.45441 -0.8327,-1.535708 -0.9073,-1.859465 -0.9038,-3.922813 0,-1.922526 0.1066,-2.44511 0.713,-3.600344 1.3446,-2.562075 4.1804,-4.555483 7.8822,-5.540608 2.0521,-0.546114 -1.8071,-0.522994 45.5084,-0.272616 22.1292,0.117099 40.4934,0.09607 45.376,-0.05195 9.3599,-0.28376 10.3111,-0.181893 13.4294,1.43864 2.4493,1.272654 5.1168,3.885621 6.1691,6.042502 1.0408,2.133666 1.0956,5.133208 0.1299,7.103719 -0.9766,1.992391 -2.9406,3.735138 -5.6883,5.047908 -1.3192,0.63027 -4.0058,1.916661 -5.9703,2.858646 -7.7198,3.701529 -14.5997,9.24423 -18.7516,15.106508 -1.611,2.274887 -3.6012,6.501897 -4.3193,9.173845 l -0.6046,2.248958 -0.1346,154.913543 -0.1347,154.91355 -0.5974,1.47619 c -2.3088,5.70455 -7.8706,6.65689 -15.8068,2.70655 -4.5246,-2.25216 -8.8468,-5.40125 -23.6281,-17.2144 -23.6593,-18.90876 -71.9455,-58.55459 -126.6552,-103.9916 -6.5484,-5.43856 -15.2995,-12.70386 -19.4469,-16.14516 -4.1473,-3.44128 -23.8829,-19.8918 -43.8568,-36.55674 -19.9739,-16.66492 -36.8644,-30.686799 -37.5346,-31.159742 -1.7499,-1.235128 -2.3751,-1.154906 -3.0916,0.396875 l -0.5805,1.256771 v 84.798956 c 0,79.21866 0.03,85.00986 0.4609,88.00362 1.1208,7.78899 3.1715,12.10673 7.9071,16.64613 3.6946,3.54185 9.271,6.84443 17.1643,10.16577 5.9425,2.50047 6.2796,2.67618 7.5626,3.94086 1.4967,1.47569 2.3595,3.14651 2.7572,5.33927 1.0975,6.05242 -2.9448,9.40827 -13.5491,11.24815 -6.0428,1.04847 -9.5834,1.24246 -23.8905,1.30897 -7.7126,0.0359 -14.6778,0.0246 -15.4781,-0.0251 z"
         style="display:inline;fill:#000000;stroke-width:0.26458335" />
      <path
         inkscape:label="2"
         inkscape:connector-curvature="0"
         id="path18"
         d="m 46.38612,519.43522 c -3.793385,-0.89403 -7.38558,-4.50172 -9.134396,-9.17382 -0.928396,-2.48023 -0.971312,-5.9409 -0.098,-7.90043 0.855319,-1.9191 1.737228,-2.65001 6.521503,-5.40478 29.677042,-17.0879 51.089798,-39.42717 65.546553,-68.38267 12.39816,-24.83231 18.94125,-52.53996 21.14978,-89.56146 0.44453,-7.45133 0.449,-30.19386 0.007,-35.45417 C 127.188,265.58743 116.39258,222.43995 101.54924,188.33185 100.536,186.00351 93.245934,169.81101 85.3491,152.34851 77.452145,134.88601 68.555054,115.0621 65.577645,108.29538 57.785798,90.586901 48.639814,70.079417 47.641726,68.078717 44.842937,62.468466 35.480656,34.312803 30.617826,16.881841 25.519041,-1.3948621 21.34254,-20.494578 19.191319,-35.373369 c -2.444486,-16.907026 -2.434696,-33.978372 0.03016,-52.519793 6.889115,-51.821098 32.329676,-96.492768 77.895661,-136.778478 27.94606,-24.70763 62.57811,-47.49524 107.29246,-70.59754 5.84316,-3.01896 7.96901,-3.73271 11.1125,-3.73103 3.71702,0.002 6.72645,1.29786 9.31407,4.01073 2.62485,2.75189 3.78071,5.83408 3.60061,9.60132 -0.0962,2.01145 -0.23908,2.57699 -1.08238,4.28329 -1.24984,2.52887 -2.57212,3.7494 -7.0698,6.52576 -35.88316,22.15021 -59.76284,52.03187 -72.62119,90.87404 -5.12736,15.48858 -8.65124,33.59513 -10.30589,52.95413 -1.59036,18.60673 -1.81169,42.270389 -0.54251,58.001607 3.65948,45.357967 20.30701,96.537037 56.72524,174.388883 22.79341,48.72586 37.60528,86.48431 46.19316,117.75565 2.17982,7.93739 3.37184,12.97152 3.21426,13.57418 -0.0765,0.29258 0.74776,6.20414 1.83176,13.1368 1.67606,10.71925 2.19123,14.88065 3.44379,27.81838 1.43598,14.8319 1.46897,15.36049 1.31588,21.07152 -0.53978,20.13352 -3.47805,39.17437 -8.65005,56.05452 -17.14733,55.96491 -60.62556,99.39285 -146.546119,146.37663 -15.377874,8.40907 -41.195095,21.50113 -43.345708,21.98087 -1.604751,0.35798 -3.168227,0.36719 -4.611105,0.0271 z"
         style="display:inline;opacity:1;fill:url(#radialGradient849);fill-opacity:1;stroke-width:0.26458335" />
      <path
         inkscape:label="3"
         sodipodi:nodetypes="csscccccccscccccccccsccccccccsscccsccscscsccccc"
         inkscape:connector-curvature="0"
         id="path851"
         d="m -1582.3216,296.89994 c -21.7695,-0.61497 -43.0194,-5.09632 -64.5584,-13.61456 -7.5292,-2.97764 -8.0013,-3.18632 -14.1552,-6.25729 -16.581,-8.27437 -31.2393,-18.50903 -45.2437,-31.58985 -3.9235,-3.66471 -13.0862,-13.20887 -13.0936,-13.63874 -6.6839,-8.45609 -14.1684,-18.23311 -19.5085,-27.06349 -3.3751,-5.6262 -7.0361,-12.4991 -6.8777,-12.91174 0.076,-0.19717 1.3304,-0.61466 2.8737,-0.95615 62.5888,-15.26822 127.8947,-37.24897 179.2165,-57.77998 47.0053,-18.9176 110.451,-38.705738 158.4854,-49.4302 6.6551,-1.485874 17.2588,-3.672973 17.8075,-3.672973 0.4774,0 0.795,2.251234 1.6987,12.038542 0.7027,7.61082 0.381,26.886461 -0.5918,35.454171 -0.1322,1.16416 -0.3114,2.89057 -0.3984,3.83646 -0.4811,5.23414 -2.2118,14.44498 -4.2279,22.50175 -4.7731,19.0741 -12.9981,38.15972 -23.69,54.97087 -1.2319,1.93688 -2.4218,3.72282 -2.6442,3.96875 -0.2225,0.24595 -1.6754,2.23311 -3.2288,4.41592 -15.4946,21.77344 -35.7662,40.30136 -59.073,53.9918 -4.4782,2.63052 -14.6659,7.84821 -19.05,9.75662 -18.2241,7.9329 -36.4371,12.83269 -55.5625,14.94779 -9.3473,1.03373 -17.5242,1.33329 -28.1781,1.0323 z M -1763.3765,139.07 c -0.086,-0.84598 -0.3973,-3.1455 -0.6919,-5.11003 -1.4795,-9.86631 -1.9833,-18.46234 -1.7912,-30.55938 0.1425,-8.971039 0.3346,-11.975753 1.3614,-21.298956 1.7699,-16.070713 6.6094,-33.940486 13.7578,-50.800001 3.1035,-7.319672 10.2136,-20.962833 12.6167,-24.2093759 0.4308,-0.5820834 2.1595,-3.1419272 3.8414,-5.6885419 19.6985,-29.8257652 48.3097,-54.0509002 81.1182,-68.6829142 33.5031,-14.941797 71.2564,-19.830566 108.1043,-13.998689 17.8054,2.818053 35.2066,8.304668 52.5642,16.573619 8.5341,4.065554 9.1501,4.387364 14.4511,7.550174 14.5624,8.688415 26.9445,18.470418 38.9947,30.806246 5.1762,5.298784 12.8323,14.02461 12.8323,14.625135 0,0.0993 1.2348,1.8186135 2.744,3.8206892 5.4906,7.28389997 10.4954,15.0119825 14.8551,22.9382908 2.801,5.092568 5.9488,11.468735 5.9488,12.04984 0,0.31406 -0.5553,0.538242 -2.1828,0.881115 -8.6096,1.813931 -29.7456,7.116789 -44.3838,11.135599 -37.8393,10.388468 -88.2085,26.542074 -132.8209,42.596145 -4.7294,1.701932 -16.9928,6.050518 -27.252,9.663509 -10.2593,3.613018 -28.2972,9.982726 -40.0844,14.154896 -53.0368,18.77285 -75.8608,26.19819 -95.9115,31.20289 -5.3391,1.33268 -14.3985,3.33341 -16.8289,3.7166 l -1.0862,0.17127 z"
         style="display:inline;fill:url(#radialGradient861);fill-opacity:1;stroke-width:0.26458335" />
      <path
         inkscape:label="4"
         inkscape:connector-curvature="0"
         id="path12"
         d="m -1815.9694,293.35773 c -7.2869,-1.31956 -13.6135,-5.16848 -17.9948,-10.94756 -1.6977,-2.23928 -3.7469,-6.38614 -4.6507,-9.41166 -0.6562,-2.19651 -0.7129,-2.76098 -0.7304,-7.27604 -0.021,-5.37622 0.3031,-7.21103 1.9882,-11.25884 3.0222,-7.25964 9.6795,-13.45435 17.0428,-15.85849 3.9244,-1.28138 6.1363,-1.45425 18.6531,-1.45791 24.8915,-0.007 47.5021,-1.42983 78.4079,-4.93302 l 4.1922,-0.47519 1.2118,1.31516 c 5.0511,5.48177 9.1665,9.66931 12.7154,12.93826 14.4713,13.32974 29.2831,23.4683 46.4118,31.76857 3.3034,1.60073 6.0095,2.98424 6.0137,3.07444 0,0.0902 -0.4984,0.22664 -1.1169,0.30313 -0.6184,0.0765 -5.1131,0.7434 -9.988,1.48198 -38.7728,5.87426 -78.441,9.58104 -116.4167,10.87848 -11.6418,0.39775 -33.2341,0.31237 -35.7394,-0.14131 z m 400.4328,-83.79307 c 14.264,-21.97143 24.2688,-48.38086 28.0271,-73.98224 l 0.597,-4.06609 6.3428,-3.81452 c 7.9208,-4.76354 17.0671,-10.85745 23.2762,-15.50829 17.1241,-12.826632 28.2605,-26.11967 28.2743,-33.749777 0,-1.936856 -0.1001,-2.046949 -2.2106,-2.35032 -2.2335,-0.321046 -16.061,-0.218969 -20.3752,0.150415 -7.3362,0.628148 -16.844,1.641211 -23.9448,2.551325 -3.929,0.503581 -8.2153,1.047644 -9.525,1.20904 -6.4362,0.793168 -27.1586,5.394431 -44.5823,9.8992 -45.7576,11.830317 -94.6378,27.709657 -133.7468,43.449317 -49.0736,19.74993 -97.6668,36.19284 -145.6438,49.28267 -13.3712,3.64813 -36.0117,9.23457 -46.0469,11.36179 -38.5383,8.16928 -69.6068,11.23289 -87.3883,8.61722 -8.5721,-1.26095 -17.0523,-4.18822 -23.333,-8.05424 -10.4381,-6.42522 -18.1385,-16.67256 -21.932,-29.18611 -2.2068,-7.27929 -2.9218,-12.36953 -2.9262,-20.83075 0,-6.03562 0.045,-6.71047 0.7051,-9.79344 1.5945,-7.45194 3.5945,-13.1377 7.2113,-20.50135 8.3941,-17.089861 22.616,-33.948 42.2059,-50.029297 24.2031,-19.868251 56.679,-38.135957 96.6359,-54.3577738 3.1651,-1.2849754 5.7547,-2.286979 5.7547,-2.2266805 0,0.060299 -0.4769,0.8888413 -1.0599,1.8412091 -3.4168,5.5824442 -8.2313,15.0429652 -11.2667,22.1391702 -6.4164,15.000499 -10.4316,29.105067 -13.2692,46.612626 l -0.4657,2.873031 -4.8362,3.089592 c -23.0901,14.750892 -43.8522,32.149553 -57.6543,48.314373 -2.4177,2.83165 -5.3748,6.63633 -5.3762,6.91719 -5e-4,0.12462 -0.2983,0.8123 -0.6615,1.52818 -0.8925,1.75927 -0.9061,3.63601 -0.033,4.50948 1.4243,1.42425 5.3355,1.8388 15.6169,1.65515 12.8247,-0.22907 26.5725,-1.85346 46.594,-5.50537 3.2015,-0.58393 7.1305,-1.28685 8.7313,-1.56202 6.8114,-1.17089 18.7499,-4.07173 29.8338,-7.24911 17.7529,-5.08913 38.7254,-12.10431 82.3495,-27.54548 11.7872,-4.17216 29.8252,-10.541871 40.0844,-14.154889 10.2592,-3.612991 22.5226,-7.961577 27.2521,-9.66351 59.7474,-21.500545 122.7037,-40.894477 165.736,-51.055641 5.2528,-1.240314 11.2768,-2.668218 13.3869,-3.173122 12.4706,-2.984024 31.6722,-6.274991 43.9628,-7.534831 11.944,-1.224306 19.7212,-1.290373 28.7976,-0.244713 19.7223,2.272162 34.7917,8.295032 44.4251,17.75558 3.827,3.758379 5.4009,6.197415 9.9496,15.418938 4.4697,9.061582 6.0286,19.72781 4.4662,30.559376 -2.5876,17.939702 -12.9187,36.854472 -31.2277,57.173492 -20.1014,22.30822 -55.9565,45.51133 -105.1361,68.03732 -5.2195,2.39069 -9.2292,4.17044 -9.396,4.17044 -0.061,0 0.7578,-1.33945 1.8206,-2.97656 z m -11.8799,-222.361953 c -3.2144,-3.979545 -7.7015,-8.990171 -11.8978,-13.285973 -13.3111,-13.6265 -27.3418,-24.384689 -43.9177,-33.674286 -2.0356,-1.140783 -3.5582,-2.074151 -3.3836,-2.074151 0.1746,0 2.1377,-0.23232 4.3625,-0.516268 31.618,-4.035436 65.4569,-6.399282 102.47,-7.158144 25.0174,-0.512921 30.0275,-0.357539 34.6604,1.074939 14.8239,4.583456 23.2962,20.099348 19.0244,34.840543 -2.9403,10.146268 -11.0273,17.461416 -22.2028,20.083675 -1.6266,0.381661 -5.4244,0.457702 -31.6143,0.632962 -29.1217,0.194866 -36.79,0.400871 -44.9967,1.208829 l -1.4729,0.144991 z"
         style="display:inline;fill:#000000;stroke-width:0.26458335" />
    </g>
  </g>
</svg>
