<?xml version="1.0" encoding="UTF-8" standalone="no"?>
<!-- Created with Inkscape (http://www.inkscape.org/) -->

<svg
   xmlns:dc="http://purl.org/dc/elements/1.1/"
   xmlns:cc="http://creativecommons.org/ns#"
   xmlns:rdf="http://www.w3.org/1999/02/22-rdf-syntax-ns#"
   xmlns:svg="http://www.w3.org/2000/svg"
   xmlns="http://www.w3.org/2000/svg"
   xmlns:sodipodi="http://sodipodi.sourceforge.net/DTD/sodipodi-0.dtd"
   xmlns:inkscape="http://www.inkscape.org/namespaces/inkscape"
   version="1.1"
   id="svg2"
   xml:space="preserve"
   width="680"
   height="560"
   viewBox="0 0 680.00001 560.00001"
   sodipodi:docname="bg_pattern.svg"
   inkscape:version="0.92.4 5da689c313, 2019-01-14"><metadata
     id="metadata8"><rdf:RDF><cc:Work
         rdf:about=""><dc:format>image/svg+xml</dc:format><dc:type
           rdf:resource="http://purl.org/dc/dcmitype/StillImage" /><dc:title></dc:title></cc:Work></rdf:RDF></metadata><defs
     id="defs6" /><sodipodi:namedview
     pagecolor="#6f6f6f"
     bordercolor="#666666"
     borderopacity="1"
     objecttolerance="10"
     gridtolerance="10"
     guidetolerance="10"
     inkscape:pageopacity="0"
     inkscape:pageshadow="2"
     inkscape:window-width="1600"
     inkscape:window-height="900"
     id="namedview4"
     showgrid="false"
     inkscape:zoom="0.89398499"
     inkscape:cx="487.8037"
     inkscape:cy="406.77221"
     inkscape:window-x="0"
     inkscape:window-y="0"
     inkscape:window-maximized="0"
     inkscape:current-layer="g12"
     inkscape:pagecheckerboard="true"
     borderlayer="false"
     inkscape:showpageshadow="true" /><g
     id="g10"
     inkscape:groupmode="layer"
     inkscape:label="ink_ext_XXXXXX"
     transform="matrix(1.3333333,0,0,-1.3333333,0,560)"><g
       id="g12"
       transform="scale(0.1)"><path
         d="m 4986.4618,2754.5919 c -8.355,-7.755 -19.2225,-12.0225 -30.615,-12.0225 -12.6525,0 -24.375,5.1075 -32.9775,14.3775 -16.8825,18.18 -15.825,46.7175 2.3475,63.6 8.355,7.755 19.2225,12.0225 30.615,12.0225 12.6525,0 24.375,-5.1075 32.985,-14.3775 8.1825,-8.8125 12.435,-20.28 12,-32.2875 -0.45,-12.015 -5.55,-23.13 -14.355,-31.3125 z m 398.925,416.4975 v 30.6975 l -388.5,-360.75 c -11.7075,8.97 -26.145,14.0325 -41.055,14.0325 -17.0925,0 -33.3975,-6.405 -45.9225,-18.0375 -27.27,-25.3275 -28.8525,-68.115 -3.5325,-95.3925 12.7275,-13.71 30.7575,-21.57 49.47,-21.57 17.0925,0 33.3975,6.405 45.9225,18.0375 13.2075,12.27 20.8575,28.95 21.525,46.965 0.5325,14.205 -3.3975,27.87 -11.07,39.51 l 373.1625,346.5075"
         style="fill:#ffffff;fill-opacity:1;fill-rule:nonzero;stroke:none;stroke-width:0.75"
         id="path16"
         inkscape:connector-curvature="0" /><path
         d="m 4892.7868,2941.5744 c -8.3175,-7.62 -19.11,-11.82 -30.3825,-11.82 -12.5925,0 -24.69,5.3175 -33.195,14.5875 -16.77,18.2925 -15.525,46.8075 2.7675,63.5775 8.3175,7.635 19.1175,11.835 30.39,11.835 12.585,0 24.69,-5.3175 33.1875,-14.595 8.1225,-8.8575 12.3075,-20.355 11.79,-32.3625 -0.525,-12.0075 -5.6925,-23.1 -14.5575,-31.2225 z m 492.6,497.9625 v 1040.85 h -21.51 V 3449.7144 l -460.1025,-421.7625 c -11.7675,9.135 -26.325,14.3025 -41.4075,14.3025 -16.92,0 -33.1125,-6.3 -45.5925,-17.745 -27.4425,-25.155 -29.3025,-67.935 -4.1475,-95.37 12.75,-13.9125 30.8925,-21.885 49.7775,-21.885 16.9125,0 33.1125,6.2925 45.5925,17.7375 13.29,12.18 21.0375,28.815 21.825,46.8225 0.615,14.205 -3.2175,27.8925 -10.815,39.5775 l 460.395,422.0325 5.985,6.1125"
         style="fill:#ffffff;fill-opacity:1;fill-rule:nonzero;stroke:none;stroke-width:0.75"
         id="path18"
         inkscape:connector-curvature="0" /><path
         d="m 4799.1568,3128.3469 c -8.2875,-7.455 -18.96,-11.5575 -30.09,-11.5575 -12.75,0 -24.945,5.4375 -33.465,14.9025 -8.04,8.9325 -12.1275,20.46 -11.49,32.4675 0.63,12 5.895,23.04 14.8425,31.0875 8.265,7.4475 18.9525,11.5425 30.075,11.5425 12.75,0 24.9525,-5.4225 33.465,-14.8875 16.5975,-18.45 15.105,-46.9575 -3.3375,-63.555 z m 377.22,1352.04 v -936.8625 l -365.4525,-328.905 c -11.85,9.375 -26.58,14.67 -41.895,14.67 -16.6875,0 -32.7225,-6.15 -45.1275,-17.325 -13.4025,-12.06 -21.315,-28.62 -22.26,-46.62 -0.945,-18.0075 5.1675,-35.3025 17.235,-48.705 12.78,-14.205 31.0725,-22.35 50.19,-22.35 16.695,0 32.715,6.1575 45.135,17.3325 24.8175,22.3275 29.115,58.995 11.79,86.2875 l 368.235,331.41 c 2.175,1.7025 4.785,4.875 4.65,10.245 v 940.8225 h -22.5"
         style="fill:#ffffff;fill-opacity:1;fill-rule:nonzero;stroke:none;stroke-width:0.75"
         id="path20"
         inkscape:connector-curvature="0" /><path
         d="m 4017.6268,3658.5144 c 0,24.8175 20.1825,45 45,45 24.81,0 45,-20.1825 45,-45 0,-24.81 -20.19,-45 -45,-45 -24.8175,0 -45,20.19 -45,45 z m 937.5,750 c 0,24.8175 20.1825,45 45,45 24.81,0 45,-20.1825 45,-45 0,-24.81 -20.19,-45 -45,-45 -24.8175,0 -45,20.19 -45,45 z M 4057.3543,3294.4569 c 3.2925,-1.7475 6.555,-1.635 8.505,-1.53 l 557.1075,-0.037 c 0.3975,-0.037 0.8175,-0.06 1.26,-0.06 2.895,0 6.465,1.02 10.26,4.5525 l 372.1275,325.6125 c 3.81,3.0225 4.98,7.035 4.7625,10.455 v 708.5775 c 31.875,5.385 56.25,33.1125 56.25,66.4875 0,37.215 -30.2775,67.5 -67.5,67.5 -37.2225,0 -67.5,-30.285 -67.5,-67.5 0,-33.375 24.375,-61.1025 56.25,-66.4875 v -704.6625 l -330.8325,-289.47 -37.125,-32.505 h -547.0425 v 276.6375 c 31.875,5.385 56.25,33.1125 56.25,66.4875 0,37.215 -30.2775,67.5 -67.5,67.5 -37.2225,0 -67.5,-30.285 -67.5,-67.5 0,-33.375 24.375,-61.1025 56.25,-66.4875 v -294.3975 l 5.9775,-3.1725"
         style="fill:#ffffff;fill-opacity:1;fill-rule:nonzero;stroke:none;stroke-width:0.75"
         id="path22"
         inkscape:connector-curvature="0" /><path
         d="m 3755.1268,2458.5144 c 24.81,0 45,-20.1825 45,-45 0,-24.8175 -20.19,-45 -45,-45 -24.8175,0 -45,20.1825 -45,45 0,24.8175 20.1825,45 45,45 z m 1177.5,0 c 24.81,0 45,-20.1825 45,-45 0,-24.8175 -20.19,-45 -45,-45 -24.8175,0 -45,20.1825 -45,45 0,24.8175 20.1825,45 45,45 z m -1177.5,-112.5 c 33.3825,0 61.1025,24.3825 66.48,56.25 h 1044.5325 c 5.385,-31.8675 33.105,-56.25 66.4875,-56.25 37.2225,0 67.5,30.285 67.5,67.5 0,37.215 -30.2775,67.5 -67.5,67.5 -33.3825,0 -61.1025,-24.3825 -66.4875,-56.25 H 3821.6068 c -5.3775,31.8675 -33.0975,56.25 -66.48,56.25 -37.2225,0 -67.5,-30.285 -67.5,-67.5 0,-37.215 30.2775,-67.5 67.5,-67.5"
         style="fill:#ffffff;fill-opacity:1;fill-rule:nonzero;stroke:none;stroke-width:0.75"
         id="path24"
         inkscape:connector-curvature="0" /><path
         d="m 4792.0018,2646.0144 c 24.81,0 45,-20.1825 45,-45 0,-24.8175 -20.19,-45 -45,-45 -24.8175,0 -45,20.1825 -45,45 0,24.8175 20.1825,45 45,45 z m -1036.875,-90 c -24.8175,0 -45,20.1825 -45,45 0,24.8175 20.1825,45 45,45 24.81,0 45,-20.1825 45,-45 0,-24.8175 -20.19,-45 -45,-45 z m 970.3875,56.25 h -903.9075 c -5.3775,31.8675 -33.0975,56.25 -66.48,56.25 -37.2225,0 -67.5,-30.285 -67.5,-67.5 0,-37.215 30.2775,-67.5 67.5,-67.5 33.3825,0 61.1025,24.3825 66.48,56.25 h 903.9075 c 5.385,-31.8675 33.105,-56.25 66.4875,-56.25 37.2225,0 67.5,30.285 67.5,67.5 0,37.215 -30.2775,67.5 -67.5,67.5 -33.3825,0 -61.1025,-24.3825 -66.4875,-56.25"
         style="fill:#ffffff;fill-opacity:1;fill-rule:nonzero;stroke:none;stroke-width:0.75"
         id="path26"
         inkscape:connector-curvature="0" /><path
         d="m 4557.6268,3021.0144 c 24.81,0 45,-20.1825 45,-45 0,-24.8175 -20.19,-45 -45,-45 -24.8175,0 -45,20.1825 -45,45 0,24.8175 20.1825,45 45,45 z m -1605,-652.5 c -24.8175,0 -45,20.1825 -45,45 0,24.8175 20.1825,45 45,45 24.81,0 45,-20.1825 45,-45 0,-24.8175 -20.19,-45 -45,-45 z m 66.48,56.25 c -5.3775,31.8675 -33.0975,56.25 -66.48,56.25 -37.2225,0 -67.5,-30.285 -67.5,-67.5 0,-37.215 30.2775,-67.5 67.5,-67.5 33.3825,0 61.1025,24.3825 66.48,56.25 h 304.665 l 0.105,562.5 h 1167.2625 c 5.385,-31.8675 33.105,-56.25 66.4875,-56.25 37.2225,0 67.5,30.285 67.5,67.5 0,37.215 -30.2775,67.5 -67.5,67.5 -33.3825,0 -61.1025,-24.3825 -66.4875,-56.25 H 3309.7768 l -8.865,-5.22 0.465,-6.7425 v -550.5375 h -282.27"
         style="fill:#ffffff;fill-opacity:1;fill-rule:nonzero;stroke:none;stroke-width:0.75"
         id="path28"
         inkscape:connector-curvature="0" /><path
         d="m 4370.1268,3208.5144 c 24.81,0 45,-20.1825 45,-45 0,-24.8175 -20.19,-45 -45,-45 -24.8175,0 -45,20.1825 -45,45 0,24.8175 20.1825,45 45,45 z m -990,-90 c -24.8175,0 -45,20.1825 -45,45 0,24.8175 20.1825,45 45,45 24.81,0 45,-20.1825 45,-45 0,-24.8175 -20.19,-45 -45,-45 z m 0,112.5 c -37.2225,0 -67.5,-30.285 -67.5,-67.5 0,-37.215 30.2775,-67.5 67.5,-67.5 33.3825,0 61.1025,24.3825 66.48,56.25 h 857.0325 c 5.385,-31.8675 33.105,-56.25 66.4875,-56.25 37.2225,0 67.5,30.285 67.5,67.5 0,37.215 -30.2775,67.5 -67.5,67.5 -33.3825,0 -61.1025,-24.3825 -66.4875,-56.25 h -857.0325 c -5.3775,31.8675 -33.0975,56.25 -66.48,56.25"
         style="fill:#ffffff;fill-opacity:1;fill-rule:nonzero;stroke:none;stroke-width:0.75"
         id="path30"
         inkscape:connector-curvature="0" /><path
         d="m 3005.1268,3868.5144 c -24.8175,0 -45,20.19 -45,45 0,24.8175 20.1825,45 45,45 24.81,0 45,-20.1825 45,-45 0,-24.81 -20.19,-45 -45,-45 z m 1762.5,540 c 0,24.8175 20.1825,45 45,45 24.81,0 45,-20.1825 45,-45 0,-24.81 -20.19,-45 -45,-45 -24.8175,0 -45,20.19 -45,45 z m -528.75,-869.55 c -0.015,-0.975 0.06,-3.075 1.185,-5.3925 l 3.8175,-6.3075 h 380.73 c 0.045,0 0.105,0 0.165,0 2.3325,0 5.9625,0.675 9.21,4.2 l 185.6775,185.6775 c 3.9075,3.66 4.455,7.6725 4.215,10.4325 v 614.4525 c 31.875,5.385 56.25,33.1125 56.25,66.4875 0,37.215 -30.2775,67.5 -67.5,67.5 -37.2225,0 -67.5,-30.285 -67.5,-67.5 0,-33.375 24.375,-61.1025 56.25,-66.4875 v -611.355 l -180.9075,-180.9075 h -359.0925 v 366.0075 l -4.5225,9.525 -7.5225,-0.5325 h -1177.725 c -5.3775,31.8675 -33.0975,56.25 -66.48,56.25 -37.2225,0 -67.5,-30.285 -67.5,-67.5 0,-37.215 30.2775,-67.5 67.5,-67.5 33.3825,0 61.1025,24.3825 66.48,56.25 h 1167.27 v -363.3"
         style="fill:#ffffff;fill-opacity:1;fill-rule:nonzero;stroke:none;stroke-width:0.75"
         id="path32"
         inkscape:connector-curvature="0" /><path
         d="m 4580.1268,4408.5144 c 0,24.8175 20.1825,45 45,45 24.81,0 45,-20.1825 45,-45 0,-24.81 -20.19,-45 -45,-45 -24.8175,0 -45,20.19 -45,45 z m -1575,-352.5 c -24.8175,0 -45,20.19 -45,45 0,24.8175 20.1825,45 45,45 24.81,0 45,-20.1825 45,-45 0,-24.81 -20.19,-45 -45,-45 z m 0,112.5 c -37.2225,0 -67.5,-30.285 -67.5,-67.5 0,-37.215 30.2775,-67.5 67.5,-67.5 33.3825,0 61.1025,24.3825 66.48,56.25 h 1354.77 l 0.015,-311.805 c 0.023,-0.39 0,-0.8025 -0.015,-1.23 -0.045,-1.815 -0.1125,-4.3125 0.6525,-6.9525 l 2.34,-8.1375 h 194.49 c 0.225,-0.015 0.435,-0.015 0.66,-0.015 5.0625,0 7.995,2.6625 9.3525,4.3425 l 3.81,5.3025 -1.3125,4.095 v 566.6625 c 31.875,5.385 56.25,33.1125 56.25,66.4875 0,37.215 -30.2775,67.5 -67.5,67.5 -37.2225,0 -67.5,-30.285 -67.5,-67.5 0,-33.375 24.375,-61.1025 56.25,-66.4875 v -557.8875 h -165 v 242.4375 l -0.015,73.38 c 0.225,5.43 -2.67,8.535 -4.41,9.9 l -4.92,3.57 -3.9975,-1.1625 h -1363.935 c -5.3775,31.8675 -33.0975,56.25 -66.48,56.25"
         style="fill:#ffffff;fill-opacity:1;fill-rule:nonzero;stroke:none;stroke-width:0.75"
         id="path34"
         inkscape:connector-curvature="0" /><path
         d="m 3432.6268,4333.5144 c 24.81,0 45,-20.1825 45,-45 0,-24.81 -20.19,-45 -45,-45 -24.8175,0 -45,20.19 -45,45 0,24.8175 20.1825,45 45,45 z m 375,-562.5 c 24.81,0 45,-20.1825 45,-45 0,-24.81 -20.19,-45 -45,-45 -24.8175,0 -45,20.19 -45,45 0,24.8175 20.1825,45 45,45 z m -1058.535,-56.25 h 992.0475 c 5.385,-31.8675 33.105,-56.25 66.4875,-56.25 37.2225,0 67.5,30.285 67.5,67.5 0,37.215 -30.2775,67.5 -67.5,67.5 -33.3825,0 -61.1025,-24.3825 -66.4875,-56.25 h -970.3875 v 540 h 595.3875 c 5.385,-31.8675 33.105,-56.25 66.4875,-56.25 37.2225,0 67.5,30.285 67.5,67.5 0,37.215 -30.2775,67.5 -67.5,67.5 -33.3825,0 -61.1025,-24.3825 -66.4875,-56.25 h -600.75 l -17.1375,-0.7875 v -567.285 c -0.015,-2.205 -0.023,-4.41 0.12,-6.45 l 0.72,-10.4775"
         style="fill:#ffffff;fill-opacity:1;fill-rule:nonzero;stroke:none;stroke-width:0.75"
         id="path36"
         inkscape:connector-curvature="0" /><path
         d="m 2714.4943,3538.5519 c 0,24.8175 20.1825,45 45,45 24.8175,0 45,-20.1825 45,-45 0,-24.81 -20.1825,-45 -45,-45 -24.8175,0 -45,20.19 -45,45 z m 1093.1325,44.9625 c 24.81,0 45,-20.1825 45,-45 0,-24.81 -20.19,-45 -45,-45 -24.8175,0 -45,20.19 -45,45 0,24.8175 20.1825,45 45,45 z m 0,-112.5 c 37.2225,0 67.5,30.285 67.5,67.5 0,37.215 -30.2775,67.5 -67.5,67.5 -33.3825,0 -61.1025,-24.3825 -66.4875,-56.25 h -801.405 l -4.3575,1.305 -4.725,-3.8025 c -1.245,-1.005 -3.84,-3.6 -4.23,-8.0325 l -0.045,-0.7125 c 0,-0.27 0,-0.54 0,-0.825 v -539.505 h -155.6325 v 473.88 c 31.875,5.3775 56.25,33.105 56.25,66.48 0,37.2225 -30.2775,67.5 -67.5,67.5 -37.2225,0 -67.5,-30.2775 -67.5,-67.5 0,-33.375 24.375,-61.1025 56.25,-66.48 v -496.38 h 200.6325 v 551.5725 h 792.2625 c 5.385,-31.8675 33.105,-56.25 66.4875,-56.25"
         style="fill:#ffffff;fill-opacity:1;fill-rule:nonzero;stroke:none;stroke-width:0.75"
         id="path38"
         inkscape:connector-curvature="0" /><path
         d="m 3006.9943,2788.5744 c 0,-24.8175 -20.1825,-45 -45,-45 -24.8175,0 -45,20.1825 -45,45 0,24.81 20.1825,45 45,45 24.8175,0 45,-20.19 45,-45 z m -238.1175,-45 c -24.8175,0 -45,20.1825 -45,45 0,24.81 20.1825,45 45,45 24.81,0 45,-20.19 45,-45 0,-24.8175 -20.19,-45 -45,-45 z m 126.63,56.25 h -60.15 c -5.3775,31.8675 -33.0975,56.25 -66.48,56.25 -37.2225,0 -67.5,-30.285 -67.5,-67.5 0,-37.2225 30.2775,-67.5 67.5,-67.5 33.3825,0 61.1025,24.375 66.48,56.25 h 60.15 c 5.385,-31.875 33.105,-56.25 66.4875,-56.25 37.2225,0 67.5,30.2775 67.5,67.5 0,37.215 -30.2775,67.5 -67.5,67.5 -33.3825,0 -61.1025,-24.3825 -66.4875,-56.25"
         style="fill:#ffffff;fill-opacity:1;fill-rule:nonzero;stroke:none;stroke-width:0.75"
         id="path40"
         inkscape:connector-curvature="0" /><path
         d="m 5213.8768,1258.5144 c 24.81,0 45,-20.1825 45,-45 0,-24.8175 -20.19,-45 -45,-45 -24.8175,0 -45,20.1825 -45,45 0,24.8175 20.1825,45 45,45 z m 171.51,-274.51504 c -16.935,6.4725 -29.01,22.83754 -29.01,42.01504 0,19.1775 12.075,35.5425 29.01,42.015 v 23.505 c -25.92,-6.3375 -46.005,-27.6675 -50.4975,-54.27 h -331.125 l -7.725,0.495 -7.6725,-7.7025 0.51,-4.7775 V 474.76586 h -165 v 727.49854 h 323.5125 c 5.385,-31.875 33.105,-56.25 66.4875,-56.25 37.2225,0 67.5,30.2775 67.5,67.5 0,37.2225 -30.2775,67.5 -67.5,67.5 -33.3825,0 -61.1025,-24.375 -66.4875,-56.25 h -344.5575 l -1.3425,-9.7125 -0.1125,-749.21254 1.905,-14.505 10.215,0.9315 h 193.125 l 3.2175,5.7945 c 1.6875,3.0615 1.575,5.9505 1.4925,6.5715 l 0.045,550.13254 h 323.5125 c 4.4925,-26.60254 24.5775,-47.93254 50.4975,-54.27004 v 23.505"
         style="fill:#ffffff;fill-opacity:1;fill-rule:nonzero;stroke:none;stroke-width:0.75"
         id="path42"
         inkscape:connector-curvature="0" /><path
         d="m 5000.1268,253.51586 c 24.81,0 45,-20.1825 45,-45 0,-24.8175 -20.19,-45 -45,-45 -24.8175,0 -45,20.1825 -45,45 0,24.8175 20.1825,45 45,45 z m -11.25,-111.489 v -521.64001 h 22.5 v 521.64001 c 31.875,5.38425 56.25,33.105 56.25,66.489 0,37.22175 -30.2775,67.5 -67.5,67.5 -37.2225,0 -67.5,-30.27825 -67.5,-67.5 0,-33.384 24.375,-61.10475 56.25,-66.489"
         style="fill:#ffffff;fill-opacity:1;fill-rule:nonzero;stroke:none;stroke-width:0.75"
         id="path44"
         inkscape:connector-curvature="0" /><path
         d="m 5026.3768,1731.0144 c -24.8175,0 -45,20.1825 -45,45 0,24.8175 20.1825,45 45,45 24.81,0 45,-20.1825 45,-45 0,-24.8175 -20.19,-45 -45,-45 z m -731.25,-871.87504 c 0,-24.8175 -20.19,-45 -45,-45 -24.8175,0 -45,20.1825 -45,45 0,24.8175 20.1825,45 45,45 24.81,0 45,-20.1825 45,-45 z m 731.25,984.37504 c -33.3825,0 -61.1025,-24.375 -66.4875,-56.25 h -707.73 l -4.2525,1.1925 -4.5975,-3.585 c -1.7325,-1.3575 -4.5675,-4.3875 -4.4325,-9.69 V 925.61936 c -31.875,-5.3775 -56.25,-33.0975 -56.25,-66.48 0,-37.2225 30.2775,-67.5 67.5,-67.5 37.2225,0 67.5,30.2775 67.5,67.5 0,33.3825 -24.375,61.1025 -56.25,66.48 v 839.14504 h 698.5125 c 5.385,-31.875 33.105,-56.25 66.4875,-56.25 37.2225,0 67.5,30.2775 67.5,67.5 0,37.2225 -30.2775,67.5 -67.5,67.5"
         style="fill:#ffffff;fill-opacity:1;fill-rule:nonzero;stroke:none;stroke-width:0.75"
         id="path46"
         inkscape:connector-curvature="0" /><path
         d="m 5026.3768,1543.5144 c -24.8175,0 -45,20.1825 -45,45 0,24.8175 20.1825,45 45,45 24.81,0 45,-20.1825 45,-45 0,-24.8175 -20.19,-45 -45,-45 z m -543.75,-684.37504 c 0,-24.8175 -20.19,-45 -45,-45 -24.8175,0 -45,20.1825 -45,45 0,24.8175 20.1825,45 45,45 24.81,0 45,-20.1825 45,-45 z m 543.75,796.87504 c -33.3825,0 -61.1025,-24.375 -66.4875,-56.25 h -532.4025 l -1.005,-10.14 c -0.105,-1.14 -0.12,-2.4 -0.105,-3.66 V 925.61936 c -31.875,-5.3775 -56.25,-33.0975 -56.25,-66.48 0,-37.2225 30.2775,-67.5 67.5,-67.5 37.2225,0 67.5,30.2775 67.5,67.5 0,33.3825 -24.375,61.1025 -56.25,66.48 v 651.64504 h 511.0125 c 5.385,-31.875 33.105,-56.25 66.4875,-56.25 37.2225,0 67.5,30.2775 67.5,67.5 0,37.2225 -30.2775,67.5 -67.5,67.5"
         style="fill:#ffffff;fill-opacity:1;fill-rule:nonzero;stroke:none;stroke-width:0.75"
         id="path48"
         inkscape:connector-curvature="0" /><path
         d="m 4670.1268,859.13936 c 0,-24.8175 -20.19,-45 -45,-45 -24.8175,0 -45,20.1825 -45,45 0,24.8175 20.1825,45 45,45 24.81,0 45,-20.1825 45,-45 z m 356.25,586.87504 c 24.81,0 45,-20.1825 45,-45 0,-24.8175 -20.19,-45 -45,-45 -24.8175,0 -45,20.1825 -45,45 0,24.8175 20.1825,45 45,45 z m -66.4875,-56.25 c 5.385,-31.875 33.105,-56.25 66.4875,-56.25 37.2225,0 67.5,30.2775 67.5,67.5 0,37.2225 -30.2775,67.5 -67.5,67.5 -33.3825,0 -61.1025,-24.375 -66.4875,-56.25 h -344.9175 l -1.005,-10.14 c -0.082,-0.8625 -0.097,-1.83 -0.09,-3.5175 V 925.61936 c -31.875,-5.3775 -56.25,-33.0975 -56.25,-66.48 0,-37.2225 30.2775,-67.5 67.5,-67.5 37.2225,0 67.5,30.2775 67.5,67.5 0,33.3825 -24.375,61.1025 -56.25,66.48 v 464.14504 h 323.5125"
         style="fill:#ffffff;fill-opacity:1;fill-rule:nonzero;stroke:none;stroke-width:0.75"
         id="path50"
         inkscape:connector-curvature="0" /><path
         d="m 4812.6268,253.51586 c 24.81,0 45,-20.1825 45,-45 0,-24.8175 -20.19,-45 -45,-45 -24.8175,0 -45,20.1825 -45,45 0,24.8175 20.1825,45 45,45 z m -11.25,-111.489 v -521.64001 h 22.5 v 521.64001 c 31.875,5.38425 56.25,33.105 56.25,66.489 0,37.22175 -30.2775,67.5 -67.5,67.5 -37.2225,0 -67.5,-30.27825 -67.5,-67.5 0,-33.384 24.375,-61.10475 56.25,-66.489"
         style="fill:#ffffff;fill-opacity:1;fill-rule:nonzero;stroke:none;stroke-width:0.75"
         id="path52"
         inkscape:connector-curvature="0" /><path
         d="m 3005.1268,-53.984139 c 24.81,0 45,-20.1825 45,-45 0,-24.820351 -20.19,-45.000001 -45,-45.000001 -24.8175,0 -45,20.17965 -45,45.000001 0,24.8175 20.1825,45 45,45 z m 0,-112.500001 c 33.3825,0 61.1025,24.375 66.48,56.25 h 1354.77 l 0.015,-269.37901 h 22.485 v 206.18266 l -0.015,73.38885 c 0.225,5.451751 -2.685,8.557501 -4.44,9.922501 l -4.935,3.5685 -3.9825,-1.1835 h -1363.905 c -5.3775,31.875 -33.0975,56.25 -66.48,56.25 -37.2225,0 -67.5,-30.27825 -67.5,-67.5 0,-37.224601 30.2775,-67.500001 67.5,-67.500001"
         style="fill:#ffffff;fill-opacity:1;fill-rule:nonzero;stroke:none;stroke-width:0.75"
         id="path54"
         inkscape:connector-curvature="0" /><path
         d="m 4625.1268,253.51586 c 24.81,0 45,-20.1825 45,-45 0,-24.8175 -20.19,-45 -45,-45 -24.8175,0 -45,20.1825 -45,45 0,24.8175 20.1825,45 45,45 z m -11.25,-111.489 v -521.64001 h 22.5 v 521.64001 c 31.875,5.38425 56.25,33.105 56.25,66.489 0,37.22175 -30.2775,67.5 -67.5,67.5 -37.2225,0 -67.5,-30.27825 -67.5,-67.5 0,-33.384 24.375,-61.10475 56.25,-66.489"
         style="fill:#ffffff;fill-opacity:1;fill-rule:nonzero;stroke:none;stroke-width:0.75"
         id="path56"
         inkscape:connector-curvature="0" /><path
         d="m 3687.6268,133.51586 c 24.81,0 45,-20.1825 45,-44.999999 0,-24.8205 -20.19,-45 -45,-45 -24.8175,0 -45,20.1795 -45,45 0,24.817499 20.1825,44.999999 45,44.999999 z m 937.5675,375 c 24.81,0 45,-20.1825 45,-45 0,-24.8175 -20.19,-45 -45,-45 -24.8175,0 -45,20.1825 -45,45 0,24.8175 20.1825,45 45,45 z M 3687.6268,21.015861 c 33.3825,0 61.1025,24.375 66.48,56.25 h 693.5925 l 1.0425,10.09275 c 0.1425,1.3215 0.15,2.78325 0.135,4.254 V 452.26586 h 109.83 c 5.385,-31.875 33.105,-56.25 66.4875,-56.25 37.215,0 67.5,30.27525 67.5,67.5 0,37.22175 -30.285,67.5 -67.5,67.5 -33.3825,0 -61.1025,-24.375 -66.4875,-56.25 h -125.925 l -3.345,-3.66225 c -2.1075,-2.3085 -3.1425,-5.1885 -3.06,-8.60175 V 99.765861 h -672.27 c -5.3775,31.874999 -33.0975,56.249999 -66.48,56.249999 -37.2225,0 -67.5,-30.27825 -67.5,-67.499999 0,-37.22475 30.2775,-67.5 67.5,-67.5"
         style="fill:#ffffff;fill-opacity:1;fill-rule:nonzero;stroke:none;stroke-width:0.75"
         id="path58"
         inkscape:connector-curvature="0" /><path
         d="m 4625.1943,696.01436 c 24.81,0 45,-20.1825 45,-45 0,-24.8175 -20.19,-45 -45,-45 -24.8175,0 -45,20.1825 -45,45 0,24.8175 20.1825,45 45,45 z m -937.5675,-464.9985 c -24.8175,0 -45,20.1825 -45,45 0,24.8175 20.1825,45 45,45 24.81,0 45,-20.1825 45,-45 0,-24.8175 -20.19,-45 -45,-45 z m 0,112.5 c -37.2225,0 -67.5,-30.27825 -67.5,-67.5 0,-37.22475 30.2775,-67.5 67.5,-67.5 33.3825,0 61.1025,24.375 66.48,56.25 h 494.5875 c 0.195,-0.015 0.3825,-0.015 0.5775,-0.015 5.04,0 8.0325,2.39925 9.6825,4.509 l 3.675,5.39925 -1.2525,4.01925 v 361.08 h 297.33 c 5.385,-31.875 33.105,-56.25 66.4875,-56.25 37.215,0 67.5,30.2775 67.5,67.5 0,37.2225 -30.285,67.5 -67.5,67.5 -33.3825,0 -61.1025,-24.375 -66.4875,-56.25 h -318.6825 l -1.0575,-10.08 c -0.075,-0.8025 -0.097,-1.695 -0.09,-3.2175 v -361.701 h -484.77 c -5.3775,31.875 -33.0975,56.25 -66.48,56.25"
         style="fill:#ffffff;fill-opacity:1;fill-rule:nonzero;stroke:none;stroke-width:0.75"
         id="path60"
         inkscape:connector-curvature="0" /><path
         d="m 2948.8768,2081.6469 c 24.81,0 45,-20.19 45,-45 0,-24.8175 -20.19,-45 -45,-45 -24.8175,0 -45,20.1825 -45,45 0,24.81 20.1825,45 45,45 z m 1158.75,-1618.13104 c 0,-24.8175 -20.19,-45 -45,-45 -24.8175,0 -45,20.1825 -45,45 0,24.8175 20.1825,45 45,45 24.81,0 45,-20.1825 45,-45 z m -1170,1506.64354 v -392.895 h 363.75 v -560.0175 l 8.61,-2.07 c 1.9275,-0.4725 3.555,-0.405 4.68,-0.4125 l -0.24,11.25 1.0575,-11.25 h 735.8925 V 529.99361 c -31.875,-5.376 -56.25,-33.09675 -56.25,-66.47775 0,-37.22475 30.2775,-67.5 67.5,-67.5 37.2225,0 67.5,30.27525 67.5,67.5 0,33.381 -24.375,61.10175 -56.25,66.47775 v 493.85329 l 1.215,4.3125 -3.6075,4.6275 c -1.3275,1.71 -4.2825,4.4775 -9.4725,4.4775 -0.09,0 -0.18,0 -0.255,0 h -569.13 l -168.75,-0.015 v 493.71 l -0.105,68.7975 h -363.645 v 370.395 c 31.875,5.385 56.25,33.105 56.25,66.4875 0,37.215 -30.2775,67.5 -67.5,67.5 -37.2225,0 -67.5,-30.285 -67.5,-67.5 0,-33.3825 24.375,-61.1025 56.25,-66.4875"
         style="fill:#ffffff;fill-opacity:1;fill-rule:nonzero;stroke:none;stroke-width:0.75"
         id="path62"
         inkscape:connector-curvature="0" /><path
         d="m 3432.6268,133.51586 c 24.81,0 45,-20.1825 45,-44.999999 0,-24.8205 -20.19,-45 -45,-45 -24.8175,0 -45,20.1795 -45,45 0,24.817499 20.1825,44.999999 45,44.999999 z m -661.875,-513.12901 V 77.265861 h 595.3875 c 5.385,-31.875 33.105,-56.25 66.4875,-56.25 37.2225,0 67.5,30.27525 67.5,67.5 0,37.221749 -30.2775,67.499999 -67.5,67.499999 -33.3825,0 -61.1025,-24.375 -66.4875,-56.249999 h -600.75 l -17.1375,-0.78825 V -379.61315 h 22.5"
         style="fill:#ffffff;fill-opacity:1;fill-rule:nonzero;stroke:none;stroke-width:0.75"
         id="path64"
         inkscape:connector-curvature="0" /><path
         d="m 3455.1268,1708.5144 c 0,24.8175 20.1825,45 45,45 24.81,0 45,-20.1825 45,-45 0,-24.8175 -20.19,-45 -45,-45 -24.8175,0 -45,20.1825 -45,45 z m 607.5,-450 c 24.81,0 45,-20.1825 45,-45 0,-24.8175 -20.19,-45 -45,-45 -24.8175,0 -45,20.1825 -45,45 0,24.8175 20.1825,45 45,45 z m -563.685,-56.13 c 0.8475,-0.097 1.77,-0.12 2.715,-0.12 0.2025,0 0.4125,0 0.615,0 h 493.8675 c 5.385,-31.875 33.105,-56.25 66.4875,-56.25 37.2225,0 67.5,30.2775 67.5,67.5 0,37.2225 -30.2775,67.5 -67.5,67.5 -33.3825,0 -61.1025,-24.375 -66.4875,-56.25 h -484.7625 v 417.2625 c 31.875,5.385 56.25,33.105 56.25,66.4875 0,37.2225 -30.2775,67.5 -67.5,67.5 -37.2225,0 -67.5,-30.2775 -67.5,-67.5 0,-33.3825 24.375,-61.1025 56.25,-66.4875 v -438.585 l 10.065,-1.0575"
         style="fill:#ffffff;fill-opacity:1;fill-rule:nonzero;stroke:none;stroke-width:0.75"
         id="path66"
         inkscape:connector-curvature="0" /><path
         d="m 3198.2518,1796.6394 c 0,-24.8175 -20.19,-45 -45,-45 -24.8175,0 -45,20.1825 -45,45 0,24.8175 20.1825,45 45,45 24.81,0 45,-20.1825 45,-45 z m 864.375,-350.625 c 24.81,0 45,-20.1825 45,-45 0,-24.8175 -20.19,-45 -45,-45 -24.8175,0 -45,20.1825 -45,45 0,24.8175 20.1825,45 45,45 z m -386.25,506.25 v -551.175 l 2.4,-12.2325 9.6525,0.9075 h 307.71 c 5.385,-31.875 33.105,-56.25 66.4875,-56.25 37.2225,0 67.5,30.2775 67.5,67.5 0,37.2225 -30.2775,67.5 -67.5,67.5 -33.3825,0 -61.1025,-24.375 -66.4875,-56.25 h -297.2625 v 549.135 l 1.23,4.2825 -3.6225,4.6425 c -1.3575,1.7325 -4.425,4.65 -9.69,4.44 h -532.9425 l -11.85,-0.8175 v -110.8275 c -31.875,-5.3775 -56.25,-33.0975 -56.25,-66.48 0,-37.2225 30.2775,-67.5 67.5,-67.5 37.2225,0 67.5,30.2775 67.5,67.5 0,33.3825 -24.375,61.1025 -56.25,66.48 v 89.145 h 511.875"
         style="fill:#ffffff;fill-opacity:1;fill-rule:nonzero;stroke:none;stroke-width:0.75"
         id="path68"
         inkscape:connector-curvature="0" /><path
         d="m 4107.6268,1656.0144 c 0,-24.8175 -20.19,-45 -45,-45 -24.8175,0 -45,20.1825 -45,45 0,24.8175 20.1825,45 45,45 24.81,0 45,-20.1825 45,-45 z m -90,356.2575 c 0,24.81 20.1825,45 45,45 24.81,0 45,-20.19 45,-45 0,-24.8175 -20.19,-45 -45,-45 -24.8175,0 -45,20.1825 -45,45 z m 112.5,0 c 0,37.215 -30.2775,67.5 -67.5,67.5 -37.2225,0 -67.5,-30.285 -67.5,-67.5 0,-33.3825 24.375,-61.1025 56.25,-66.4875 v -223.29 c -31.875,-5.3775 -56.25,-33.0975 -56.25,-66.48 0,-37.2225 30.2775,-67.5 67.5,-67.5 37.2225,0 67.5,30.2775 67.5,67.5 0,33.3825 -24.375,61.1025 -56.25,66.48 v 223.29 c 31.875,5.385 56.25,33.105 56.25,66.4875"
         style="fill:#ffffff;fill-opacity:1;fill-rule:nonzero;stroke:none;stroke-width:0.75"
         id="path70"
         inkscape:connector-curvature="0" /><path
         d="m 3920.1268,1656.0144 c 0,-24.8175 -20.19,-45 -45,-45 -24.8175,0 -45,20.1825 -45,45 0,24.8175 20.1825,45 45,45 24.81,0 45,-20.1825 45,-45 z m -90,356.2575 c 0,24.81 20.1825,45 45,45 24.81,0 45,-20.19 45,-45 0,-24.8175 -20.19,-45 -45,-45 -24.8175,0 -45,20.1825 -45,45 z m 112.5,0 c 0,37.215 -30.2775,67.5 -67.5,67.5 -37.2225,0 -67.5,-30.285 -67.5,-67.5 0,-33.3825 24.375,-61.1025 56.25,-66.4875 v -223.29 c -31.875,-5.3775 -56.25,-33.0975 -56.25,-66.48 0,-37.2225 30.2775,-67.5 67.5,-67.5 37.2225,0 67.5,30.2775 67.5,67.5 0,33.3825 -24.375,61.1025 -56.25,66.48 v 223.29 c 31.875,5.385 56.25,33.105 56.25,66.4875"
         style="fill:#ffffff;fill-opacity:1;fill-rule:nonzero;stroke:none;stroke-width:0.75"
         id="path72"
         inkscape:connector-curvature="0" /><path
         d="m 2810.1268,508.51586 c 24.81,0 45,-20.1825 45,-45 0,-24.8175 -20.19,-45 -45,-45 -24.8175,0 -45,20.1825 -45,45 0,24.8175 20.1825,45 45,45 z m 622.5,0 c 24.81,0 45,-20.1825 45,-45 0,-24.8175 -20.19,-45 -45,-45 -24.8175,0 -45,20.1825 -45,45 0,24.8175 20.1825,45 45,45 z m -622.5,-112.5 c 33.3825,0 61.1025,24.375 66.48,56.25 h 489.5325 c 5.385,-31.875 33.105,-56.25 66.4875,-56.25 37.2225,0 67.5,30.27525 67.5,67.5 0,37.22175 -30.2775,67.5 -67.5,67.5 -33.3825,0 -61.1025,-24.375 -66.4875,-56.25 h -489.5325 c -5.3775,31.875 -33.0975,56.25 -66.48,56.25 -37.2225,0 -67.5,-30.27825 -67.5,-67.5 0,-37.22475 30.2775,-67.5 67.5,-67.5"
         style="fill:#ffffff;fill-opacity:1;fill-rule:nonzero;stroke:none;stroke-width:0.75"
         id="path74"
         inkscape:connector-curvature="0" /><path
         d="m 2810.1268,321.01586 c 24.81,0 45,-20.1825 45,-45 0,-24.8175 -20.19,-45 -45,-45 -24.8175,0 -45,20.1825 -45,45 0,24.8175 20.1825,45 45,45 z m 622.5,0 c 24.81,0 45,-20.1825 45,-45 0,-24.8175 -20.19,-45 -45,-45 -24.8175,0 -45,20.1825 -45,45 0,24.8175 20.1825,45 45,45 z m -622.5,-112.5 c 33.3825,0 61.1025,24.375 66.48,56.25 h 489.5325 c 5.385,-31.875 33.105,-56.25 66.4875,-56.25 37.2225,0 67.5,30.27525 67.5,67.5 0,37.22175 -30.2775,67.5 -67.5,67.5 -33.3825,0 -61.1025,-24.375 -66.4875,-56.25 h -489.5325 c -5.3775,31.875 -33.0975,56.25 -66.48,56.25 -37.2225,0 -67.5,-30.27825 -67.5,-67.5 0,-37.22475 30.2775,-67.5 67.5,-67.5"
         style="fill:#ffffff;fill-opacity:1;fill-rule:nonzero;stroke:none;stroke-width:0.75"
         id="path76"
         inkscape:connector-curvature="0" /><path
         d="m 4325.1268,1946.6469 c -24.8175,0 -45,20.1825 -45,45 0,24.81 20.1825,45 45,45 24.81,0 45,-20.19 45,-45 0,-24.8175 -20.19,-45 -45,-45 z m 1060.26,56.25 h -993.78 c -5.3775,31.8675 -33.0975,56.25 -66.48,56.25 -37.2225,0 -67.5,-30.285 -67.5,-67.5 0,-37.2225 30.2775,-67.5 67.5,-67.5 33.3825,0 61.1025,24.375 66.48,56.25 h 993.78 v 22.5"
         style="fill:#ffffff;fill-opacity:1;fill-rule:nonzero;stroke:none;stroke-width:0.75"
         id="path78"
         inkscape:connector-curvature="0" /><path
         d="m 3755.1268,2271.0144 c 24.81,0 45,-20.1825 45,-45 0,-24.8175 -20.19,-45 -45,-45 -24.8175,0 -45,20.1825 -45,45 0,24.8175 20.1825,45 45,45 z m 1387.5,450 c 0,24.8175 20.1825,45 45,45 24.81,0 45,-20.1825 45,-45 0,-24.8175 -20.19,-45 -45,-45 -24.8175,0 -45,20.1825 -45,45 z m -1387.5,-562.5 c 33.3825,0 61.1025,24.3825 66.48,56.25 h 1365.0075 c 0.195,-0.015 0.39,-0.015 0.57,-0.015 0.195,0 0.3825,0 0.5625,0.015 l 0.3825,0.023 c 4.5675,0.33 7.23,2.9925 8.25,4.26 l 3.8325,5.175 -1.335,4.1025 v 426.2025 c 31.875,5.385 56.25,33.1125 56.25,66.4875 0,37.215 -30.2775,67.5 -67.5,67.5 -37.2225,0 -67.5,-30.285 -67.5,-67.5 0,-33.375 24.375,-61.1025 56.25,-66.4875 v -417.2625 h -1354.77 c -5.3775,31.8675 -33.0975,56.25 -66.48,56.25 -37.2225,0 -67.5,-30.285 -67.5,-67.5 0,-37.215 30.2775,-67.5 67.5,-67.5"
         style="fill:#ffffff;fill-opacity:1;fill-rule:nonzero;stroke:none;stroke-width:0.75"
         id="path80"
         inkscape:connector-curvature="0" /><path
         d="m 2952.6268,2271.0144 c 24.81,0 45,-20.1825 45,-45 0,-24.8175 -20.19,-45 -45,-45 -24.8175,0 -45,20.1825 -45,45 0,24.8175 20.1825,45 45,45 z m 1745.625,562.5 c 24.81,0 45,-20.1825 45,-45 0,-24.8175 -20.19,-45 -45,-45 -24.8175,0 -45,20.1825 -45,45 0,24.8175 20.1825,45 45,45 z m -1745.625,-675 c 33.3825,0 61.1025,24.3825 66.48,56.25 h 476.925 l 9.18,-0.39 7.485,9.735 -1.32,4.0275 v 549.1275 h 1120.3875 c 5.385,-31.8675 33.105,-56.25 66.4875,-56.25 37.2225,0 67.5,30.285 67.5,67.5 0,37.215 -30.2775,67.5 -67.5,67.5 -33.3825,0 -61.1025,-24.3825 -66.4875,-56.25 h -1129.365 l -4.4475,1.275 -4.695,-3.735 c -1.74,-1.38 -4.5375,-4.4475 -4.38,-9.8475 v -550.1925 h -469.77 c -5.3775,31.8675 -33.0975,56.25 -66.48,56.25 -37.2225,0 -67.5,-30.285 -67.5,-67.5 0,-37.215 30.2775,-67.5 67.5,-67.5"
         style="fill:#ffffff;fill-opacity:1;fill-rule:nonzero;stroke:none;stroke-width:0.75"
         id="path82"
         inkscape:connector-curvature="0" /><path
         d="m 1775.1268,3701.6394 c -24.8175,0 -45,20.19 -45,45 0,24.8175 20.1825,45 45,45 24.81,0 45,-20.1825 45,-45 0,-24.81 -20.19,-45 -45,-45 z m 11.25,111.4875 v 667.26 h -22.5 v -667.26 c -31.875,-5.385 -56.25,-33.1125 -56.25,-66.4875 0,-37.215 30.2775,-67.5 67.5,-67.5 37.215,0 67.5,30.285 67.5,67.5 0,33.375 -24.3825,61.1025 -56.25,66.4875"
         style="fill:#ffffff;fill-opacity:1;fill-rule:nonzero;stroke:none;stroke-width:0.75"
         id="path84"
         inkscape:connector-curvature="0" /><path
         d="m 1962.6268,3701.6394 c -24.8175,0 -45,20.19 -45,45 0,24.8175 20.1825,45 45,45 24.81,0 45,-20.1825 45,-45 0,-24.81 -20.19,-45 -45,-45 z m 11.25,111.4875 v 667.26 h -22.5 v -667.26 c -31.875,-5.385 -56.25,-33.1125 -56.25,-66.4875 0,-37.215 30.2775,-67.5 67.5,-67.5 37.215,0 67.5,30.285 67.5,67.5 0,33.375 -24.3825,61.1025 -56.25,66.4875"
         style="fill:#ffffff;fill-opacity:1;fill-rule:nonzero;stroke:none;stroke-width:0.75"
         id="path86"
         inkscape:connector-curvature="0" /><path
         d="m 2150.1268,3701.6394 c -24.8175,0 -45,20.19 -45,45 0,24.8175 20.1825,45 45,45 24.81,0 45,-20.1825 45,-45 0,-24.81 -20.19,-45 -45,-45 z m 11.25,111.4875 v 667.26 h -22.5 v -667.26 c -31.875,-5.385 -56.25,-33.1125 -56.25,-66.4875 0,-37.215 30.2775,-67.5 67.5,-67.5 37.215,0 67.5,30.285 67.5,67.5 0,33.375 -24.3825,61.1025 -56.25,66.4875"
         style="fill:#ffffff;fill-opacity:1;fill-rule:nonzero;stroke:none;stroke-width:0.75"
         id="path88"
         inkscape:connector-curvature="0" /><path
         d="m -113.53663,2754.5919 c -8.34975,-7.755 -19.22175,-12.0225 -30.60975,-12.0225 -12.66225,0 -24.378,5.1075 -32.99097,14.3775 -16.884,18.18 -15.8235,46.7175 2.355,63.6 8.35272,7.755 19.22172,12.0225 30.61272,12.0225 12.66225,0 24.378,-5.1075 32.985,-14.3775 16.884,-18.18 15.8265,-46.71 -2.352,-63.6 z m 564.91051,1725.795 V 3355.9194 l -554.48401,-514.8825 c -11.70975,8.97 -26.14425,14.0325 -41.0595,14.0325 -17.08575,0 -33.39602,-6.405 -45.92622,-18.0375 -27.2663,-25.3275 -28.851,-68.115 -3.5303,-95.3925 12.7298,-13.71 30.76802,-21.57 49.47977,-21.57 17.08275,0 33.39225,6.405 45.92025,18.0375 24.453751,22.71 28.180501,59.4375 10.4385,86.46 l 557.10001,517.305 c 2.17125,1.7325 4.776,4.9725 4.5615,10.4025 v 1128.1125 h -22.5"
         style="fill:#ffffff;fill-opacity:1;fill-rule:nonzero;stroke:none;stroke-width:0.75"
         id="path90"
         inkscape:connector-curvature="0" /><path
         d="M 263.87388,4480.3869 V 3449.7144 l -460.10103,-421.7625 c -8.3295,6.465 -18.0675,10.89 -28.386,12.9525 v -23.1225 c 7.6643,-2.3175 14.6715,-6.63 20.1683,-12.6225 8.121,-8.8575 12.3075,-20.355 11.7855,-32.3625 -0.5213,-12.0075 -5.6888,-23.1 -14.5485,-31.215 -5.0243,-4.6125 -11.013,-7.7925 -17.4053,-9.7275 v -23.325 c 12.0938,2.3625 23.37,7.995 32.61,16.4625 13.2893,12.18 21.03827,28.815 21.82352,46.8225 0.618,14.205 -3.21672,27.8925 -10.81052,39.5775 l 456.58053,418.5375 3.81675,3.495 6.96674,7.125 v 1039.8375 h -22.5"
         style="fill:#ffffff;fill-opacity:1;fill-rule:nonzero;stroke:none;stroke-width:0.75"
         id="path92"
         inkscape:connector-curvature="0" /><path
         d="m 76.37417,4480.3869 v -936.87 l -300.98732,-270.885 v -30.27 l 318.86402,286.98 c 2.15325,1.695 4.749,4.8525 4.623,10.1925 v 940.8525 h -22.4997"
         style="fill:#ffffff;fill-opacity:1;fill-rule:nonzero;stroke:none;stroke-width:0.75"
         id="path94"
         inkscape:connector-curvature="0" /><path
         d="m 605.12388,3471.0144 c 0,24.8175 20.1855,45 45,45 24.8145,0 45,-20.1825 45,-45 0,-24.81 -20.1855,-45 -45,-45 -24.8145,0 -45,20.19 -45,45 z m 369.37052,-825 c 24.8175,0 45,-20.1825 45,-45 0,-24.8175 -20.1825,-45 -45,-45 -24.8175,0 -45.00003,20.1825 -45.00003,45 0,24.8175 20.18253,45 45.00003,45 z m -256.87053,825 c 0,37.215 -30.28125,67.5 -67.5,67.5 -37.21574,0 -67.5,-30.285 -67.5,-67.5 0,-33.375 24.381,-61.1025 56.25,-66.4875 v -813.5775 l 10.10475,-1.035 c 1.245,-0.1275 2.59275,-0.1575 3.96975,-0.1575 0.39525,0 0.79125,0.015 1.1925,0.015 h 253.866 c 5.385,-31.8675 33.11253,-56.25 66.48753,-56.25 37.215,0 67.5,30.285 67.5,67.5 0,37.215 -30.285,67.5 -67.5,67.5 -33.375,0 -61.10253,-24.3825 -66.48753,-56.25 h -246.633 v 792.2625 c 31.87275,5.385 56.25,33.1125 56.25,66.4875"
         style="fill:#ffffff;fill-opacity:1;fill-rule:nonzero;stroke:none;stroke-width:0.75"
         id="path96"
         inkscape:connector-curvature="0" /><path
         d="m 417.62388,3096.0144 c 0,24.8175 20.1855,45 45,45 24.8145,0 45,-20.1825 45,-45 0,-24.8175 -20.1855,-45 -45,-45 -24.8145,0 -45,20.1825 -45,45 z m 556.87052,-637.5 c 24.8175,0 45,-20.1825 45,-45 0,-24.8175 -20.1825,-45 -45,-45 -24.8175,0 -45.00003,20.1825 -45.00003,45 0,24.8175 20.18253,45 45.00003,45 z m -444.37053,637.5 c 0,37.215 -30.28125,67.5 -67.5,67.5 -37.21574,0 -67.5,-30.285 -67.5,-67.5 0,-33.375 24.381,-61.1025 56.25,-66.4875 v -626.085 l 10.0905,-1.0425 c 1.0395,-0.1125 2.1765,-0.135 3.32475,-0.135 0.29925,0 0.59475,0 0.891,0 h 442.32675 c 5.385,-31.8675 33.11253,-56.25 66.48753,-56.25 37.215,0 67.5,30.285 67.5,67.5 0,37.215 -30.285,67.5 -67.5,67.5 -33.375,0 -61.10253,-24.3825 -66.48753,-56.25 h -434.133 v 604.7625 c 31.87275,5.385 56.25,33.1125 56.25,66.4875"
         style="fill:#ffffff;fill-opacity:1;fill-rule:nonzero;stroke:none;stroke-width:0.75"
         id="path98"
         inkscape:connector-curvature="0" /><path
         d="m 230.12388,2908.5144 c 0,24.8175 20.1855,45 45,45 24.8145,0 45,-20.1825 45,-45 0,-24.8175 -20.1855,-45 -45,-45 -24.8145,0 -45,20.1825 -45,45 z m 744.37052,-637.5 c 24.8175,0 45,-20.1825 45,-45 0,-24.8175 -20.1825,-45 -45,-45 -24.8175,0 -45.00003,20.1825 -45.00003,45 0,24.8175 20.18253,45 45.00003,45 z m -631.87053,637.5 c 0,37.215 -30.28125,67.5 -67.5,67.5 -37.21574,0 -67.5,-30.285 -67.5,-67.5 0,-33.375 24.38101,-61.1025 56.25,-66.4875 v -626.085 l 10.0905,-1.0425 c 1.03951,-0.1125 2.17651,-0.135 3.32475,-0.135 0.29926,0 0.59475,0 0.89101,0 h 629.82674 c 5.385,-31.8675 33.11253,-56.25 66.48753,-56.25 37.215,0 67.5,30.285 67.5,67.5 0,37.215 -30.285,67.5 -67.5,67.5 -33.375,0 -61.10253,-24.3825 -66.48753,-56.25 h -621.633 v 604.7625 c 31.87275,5.385 56.25,33.1125 56.25,66.4875"
         style="fill:#ffffff;fill-opacity:1;fill-rule:nonzero;stroke:none;stroke-width:0.75"
         id="path100"
         inkscape:connector-curvature="0" /><path
         d="m 2195.1268,2216.9469 c 0,-24.81 -20.19,-45 -45,-45 -24.8175,0 -45,20.19 -45,45 0,24.8175 20.1825,45 45,45 24.81,0 45,-20.1825 45,-45 z m -90,1254.0675 c 0,24.8175 20.1825,45 45,45 24.81,0 45,-20.1825 45,-45 0,-24.81 -20.19,-45 -45,-45 -24.8175,0 -45,20.19 -45,45 z m 112.5,0 c 0,37.215 -30.285,67.5 -67.5,67.5 -37.2225,0 -67.5,-30.285 -67.5,-67.5 0,-33.375 24.375,-61.1025 56.25,-66.4875 V 2283.4344 c -31.875,-5.385 -56.25,-33.105 -56.25,-66.4875 0,-37.215 30.2775,-67.5 67.5,-67.5 37.215,0 67.5,30.285 67.5,67.5 0,33.3825 -24.3825,61.1025 -56.25,66.4875 v 1121.0925 c 31.8675,5.385 56.25,33.1125 56.25,66.4875"
         style="fill:#ffffff;fill-opacity:1;fill-rule:nonzero;stroke:none;stroke-width:0.75"
         id="path102"
         inkscape:connector-curvature="0" /><path
         d="m 2390.1268,2216.3244 c 0,-24.81 -20.1825,-45 -45,-45 -24.81,0 -45,20.19 -45,45 0,24.8175 20.19,45 45,45 24.8175,0 45,-20.1825 45,-45 z m -90,770.9475 c 0,24.81 20.19,45 45,45 24.8175,0 45,-20.19 45,-45 0,-24.8175 -20.1825,-45 -45,-45 -24.81,0 -45,20.1825 -45,45 z m 112.5,0 c 0,37.215 -30.2775,67.5 -67.5,67.5 -37.215,0 -67.5,-30.285 -67.5,-67.5 0,-33.3825 24.3825,-61.1025 56.25,-66.4875 v -637.9725 c -31.8675,-5.385 -56.25,-33.105 -56.25,-66.4875 0,-37.215 30.285,-67.5 67.5,-67.5 37.2225,0 67.5,30.285 67.5,67.5 0,33.3825 -24.375,61.1025 -56.25,66.4875 v 637.9725 c 31.875,5.385 56.25,33.105 56.25,66.4875"
         style="fill:#ffffff;fill-opacity:1;fill-rule:nonzero;stroke:none;stroke-width:0.75"
         id="path104"
         inkscape:connector-curvature="0" /><path
         d="m 2343.2443,3216.9444 c -24.8175,0 -45,20.1825 -45,45 0,24.8175 20.1825,45 45,45 24.8175,0 45,-20.1825 45,-45 0,-24.8175 -20.1825,-45 -45,-45 z m -50.6025,1191.57 c 0,24.8175 20.19,45 45,45 24.8175,0 45,-20.1825 45,-45 0,-24.81 -20.1825,-45 -45,-45 -24.81,0 -45,20.19 -45,45 z m 283.8375,-1157.835 c 5.28,0 8.34,2.475 9.99,4.59 1.935,2.475 2.775,5.565 2.4225,8.7075 v 285.7875 l -12.345,0.037 -227.655,-0.037 v 792.2625 c 31.875,5.385 56.25,33.1125 56.25,66.4875 0,37.215 -30.2775,67.5 -67.5,67.5 -37.215,0 -67.5,-30.285 -67.5,-67.5 0,-33.375 24.3825,-61.1025 56.25,-66.4875 v -797.0025 c -1.23,-5.8575 0.6225,-9.885 2.505,-12.3 4.6575,-6 11.8275,-5.64 15.6675,-5.4525 0.6675,0.03 1.35,0.075 1.89,0.052 l 0.5925,-0.06 219.345,0.037 v -254.1075 h -156.6675 c -5.3775,31.8675 -33.105,56.25 -66.48,56.25 -37.215,0 -67.5,-30.2775 -67.5,-67.5 0,-37.215 30.285,-67.5 67.5,-67.5 33.375,0 61.1025,24.3825 66.48,56.25 h 166.065 c 0.2325,-0.015 0.465,-0.015 0.69,-0.015"
         style="fill:#ffffff;fill-opacity:1;fill-rule:nonzero;stroke:none;stroke-width:0.75"
         id="path106"
         inkscape:connector-curvature="0" /><path
         d="m 2525.1343,3712.8894 c -24.81,0 -45,20.19 -45,45 0,24.8175 20.19,45 45,45 24.8175,0 45.0075,-20.1825 45.0075,-45 0,-24.81 -20.19,-45 -45.0075,-45 z m 11.25,111.4875 v 656.01 h -22.5 v -656.01 c -31.8675,-5.385 -56.25,-33.1125 -56.25,-66.4875 0,-37.215 30.285,-67.5 67.5,-67.5 37.2225,0 67.5075,30.285 67.5075,67.5 0,33.3825 -24.3825,61.1025 -56.2575,66.4875"
         style="fill:#ffffff;fill-opacity:1;fill-rule:nonzero;stroke:none;stroke-width:0.75"
         id="path108"
         inkscape:connector-curvature="0" /><path
         d="m 3920.1268,463.51586 c 0,-24.8175 -20.19,-45 -45,-45 -24.8175,0 -45,20.1825 -45,45 0,24.8175 20.1825,45 45,45 24.81,0 45,-20.1825 45,-45 z m -1183.125,892.49854 c -24.8175,0 -45,20.1825 -45,45 0,24.8175 20.1825,45 45,45 24.81,0 45,-20.1825 45,-45 0,-24.8175 -20.19,-45 -45,-45 z m 0,112.5 c -37.2225,0 -67.5,-30.2775 -67.5,-67.5 0,-37.2225 30.2775,-67.5 67.5,-67.5 33.3825,0 61.1025,24.375 66.48,56.25 h 310.545 c -0.037,-1.065 -0.082,-2.1225 -0.1275,-2.97 -0.1725,-3.2625 -0.345,-6.6225 -0.023,-9.9525 V 833.67686 l 3.66,-3.3525 c 2.3175,-2.115 5.505,-3.0975 8.6025,-3.06 h 737.7375 V 529.99361 c -31.875,-5.376 -56.25,-33.09675 -56.25,-66.47775 0,-37.22475 30.2775,-67.5 67.5,-67.5 37.2225,0 67.5,30.27525 67.5,67.5 0,33.381 -24.375,61.10175 -56.25,66.47775 v 292.71825 l 0.195,20.22 -3.54,3.54 -3.84,3.2925 h -742.815 v 527.67754 l -0.082,1.3425 c -0.195,1.6575 -0.06,4.29 0.075,6.8475 0.39,7.545 0.915,17.8725 -6.9075,23.97 -4.605,3.6 -10.5675,4.5 -17.73,2.6625 h -308.25 c -5.3775,31.875 -33.0975,56.25 -66.48,56.25"
         style="fill:#ffffff;fill-opacity:1;fill-rule:nonzero;stroke:none;stroke-width:0.75"
         id="path110"
         inkscape:connector-curvature="0" /><path
         d="m 2737.0018,1258.5144 c 24.81,0 45,-20.1825 45,-45 0,-24.8175 -20.19,-45 -45,-45 -24.8175,0 -45,20.1825 -45,45 0,24.8175 20.1825,45 45,45 z m 995.625,-794.99854 c 0,-24.8175 -20.19,-45 -45,-45 -24.8175,0 -45,20.1825 -45,45 0,24.8175 20.1825,45 45,45 24.81,0 45,-20.1825 45,-45 z m -995.625,682.49854 c 33.3825,0 61.1025,24.375 66.48,56.25 h 122.895 V 641.60936 l 9.42,-1.5525 c 2.0775,-0.3525 4.065,-0.3075 5.6475,-0.2925 0.54,0.015 1.05,0.015 1.9425,0 h 732.9975 c 0,-0.3375 0,-0.6825 -0.015,-1.02 -0.015,-2.4 -0.037,-4.8 0,-6.96 V 529.99361 c -31.875,-5.376 -56.25,-33.09675 -56.25,-66.47775 0,-37.22475 30.2775,-67.5 67.5,-67.5 37.2225,0 67.5,30.27525 67.5,67.5 0,33.381 -24.375,61.10175 -56.25,66.47775 v 101.97075 c -0.037,2.16 -0.015,4.38 0,6.6 0.037,4.4025 0.075,8.9475 -0.27,13.32 l -0.81,10.38 h -388.3125 l -360.6075,-0.015 v 548.85004 c 0.2025,4.8825 -1.3725,8.67 -4.695,11.25 -2.58,2.0025 -5.775,2.8275 -9.1275,2.4075 h -131.5725 c -5.3775,31.875 -33.0975,56.25 -66.48,56.25 -37.2225,0 -67.5,-30.2775 -67.5,-67.5 0,-37.2225 30.2775,-67.5 67.5,-67.5"
         style="fill:#ffffff;fill-opacity:1;fill-rule:nonzero;stroke:none;stroke-width:0.75"
         id="path112"
         inkscape:connector-curvature="0" /><path
         d="m 717.62388,-53.984139 c 24.81449,0 45.00299,-20.1825 45.00299,-45 0,-24.820351 -20.1885,-45.000001 -45.003,-45.000001 -24.8145,0 -45,20.17965 -45,45.000001 0,24.8175 20.1855,45 45.00001,45 z m 0,-112.500001 c 33.37799,0 61.10549,24.375 66.48299,56.25 h 417.27003 v -269.37901 h 22.5 v 279.21676 c 0.24,5.686501 -2.7075,8.865001 -4.4925,10.260001 l -5.13,3.58575 -3.99,-1.1835 H 784.10687 c -5.3775,31.875 -33.105,56.25 -66.48299,56.25 -37.21575,0 -67.5,-30.27825 -67.5,-67.5 0,-37.224601 30.28425,-67.500001 67.5,-67.500001"
         style="fill:#ffffff;fill-opacity:1;fill-rule:nonzero;stroke:none;stroke-width:0.75"
         id="path114"
         inkscape:connector-curvature="0" /><path
         d="m 717.62388,133.51586 c 24.81449,0 45.00299,-20.1825 45.00299,-44.999999 0,-24.8205 -20.1885,-45 -45.003,-45 -24.8145,0 -45,20.1795 -45,45 0,24.817499 20.1855,44.999999 45.00001,44.999999 z m 0,-112.499999 c 33.37799,0 61.10549,24.375 66.48299,56.25 H 1388.8769 V -379.61315 h 22.5 V 87.217611 c 0.1875,5.5725 -2.685,8.7135 -4.455,10.11675 l -5.355,3.705749 -4.0275,-1.274249 H 784.10687 c -5.3775,31.874999 -33.105,56.249999 -66.48299,56.249999 -37.21575,0 -67.5,-30.27825 -67.5,-67.499999 0,-37.22475 30.28425,-67.5 67.5,-67.5"
         style="fill:#ffffff;fill-opacity:1;fill-rule:nonzero;stroke:none;stroke-width:0.75"
         id="path116"
         inkscape:connector-curvature="0" /><path
         d="m 717.62388,321.01586 c 24.81449,0 45.00299,-20.1825 45.00299,-45 0,-24.8175 -20.1885,-45 -45.003,-45 -24.8145,0 -45,20.1825 -45,45 0,24.8175 20.1855,45 45.00001,45 z m 0,-112.5 c 33.37799,0 61.10549,24.375 66.48299,56.25 h 792.26993 v -644.37901 h 22.5 v 649.57651 l 0.4125,12.876 -9.195,4.4265 H 784.10687 c -5.3775,31.875 -33.105,56.25 -66.48299,56.25 -37.21575,0 -67.5,-30.27825 -67.5,-67.5 0,-37.22475 30.28425,-67.5 67.5,-67.5"
         style="fill:#ffffff;fill-opacity:1;fill-rule:nonzero;stroke:none;stroke-width:0.75"
         id="path118"
         inkscape:connector-curvature="0" /><path
         d="m 1467.6268,1492.8894 c 24.81,0 45,-20.1825 45,-45 0,-24.8175 -20.19,-45 -45,-45 -24.8174,0 -44.9999,20.1825 -44.9999,45 0,24.8175 20.1825,45 44.9999,45 z m 0,-112.5 c 33.375,0 61.1025,24.375 66.48,56.25 h 604.77 V 890.04686 l -366.9225,-366.924 -3.75,-3.75 c -3.87,-3.501 -4.455,-7.5495 -4.3275,-10.1685 v -888.81751 h 22.5 v 885.34576 l 332.16,332.15925 38.67,38.6625 c 3.6525,3.315 4.26,7.11 4.17,9.585 v 563.87254 l -0.9675,2.175 c -1.56,3.5325 -5.385,7.155 -11.64,6.9525 h -614.6625 c -5.3775,31.875 -33.105,56.25 -66.48,56.25 -37.2224,0 -67.4999,-30.2775 -67.4999,-67.5 0,-37.2225 30.2775,-67.5 67.4999,-67.5"
         style="fill:#ffffff;fill-opacity:1;fill-rule:nonzero;stroke:none;stroke-width:0.75"
         id="path120"
         inkscape:connector-curvature="0" /><path
         d="m 1467.6268,1680.3894 c 24.81,0 45,-20.1825 45,-45 0,-24.8175 -20.19,-45 -45,-45 -24.8174,0 -44.9999,20.1825 -44.9999,45 0,24.8175 20.1825,45 44.9999,45 z m 0,-112.5 c 33.375,0 61.1025,24.375 66.48,56.25 h 792.27 V 796.29686 l -367.425,-367.425 -7.575,-8.27325 v -800.21176 h 22.5 v 791.59576 l 370.0425,370.03425 2.5125,2.67 c 2.4675,3.3075 2.52,6.7275 2.445,8.34 v 805.92004 l 0.015,33.975 -0.015,0.21 c 0.015,1.065 0.045,2.67 -0.3075,4.4475 l -1.8,9.06 h -812.6625 c -5.3775,31.875 -33.105,56.25 -66.48,56.25 -37.2224,0 -67.4999,-30.2775 -67.4999,-67.5 0,-37.2225 30.2775,-67.5 67.4999,-67.5"
         style="fill:#ffffff;fill-opacity:1;fill-rule:nonzero;stroke:none;stroke-width:0.75"
         id="path122"
         inkscape:connector-curvature="0" /><path
         d="m 1467.6268,1867.8894 c 24.81,0 45,-20.1825 45,-45 0,-24.8175 -20.19,-45 -45,-45 -24.8174,0 -44.9999,20.1825 -44.9999,45 0,24.8175 20.1825,45 44.9999,45 z m 0,-112.5 c 33.375,0 61.1025,24.375 66.48,56.25 h 979.77 V 702.54686 l -367.9575,-367.94925 -2.6925,-2.70675 c -4.035,-3.78825 -4.5975,-7.91325 -4.35,-10.7055 v -700.79851 h 22.5 v 697.84576 l 369.525,369.51675 5.475,6.5625 V 1805.6094 l -0.023,15.99 0.27,6.3825 -9.405,7.3125 -4.095,-1.155 h -989.017 c -5.3775,31.875 -33.105,56.25 -66.48,56.25 -37.2224,0 -67.4999,-30.2775 -67.4999,-67.5 0,-37.2225 30.2775,-67.5 67.4999,-67.5"
         style="fill:#ffffff;fill-opacity:1;fill-rule:nonzero;stroke:none;stroke-width:0.75"
         id="path124"
         inkscape:connector-curvature="0" /><path
         d="m 1942.0018,1258.5144 c 24.81,0 45,-20.1825 45,-45 0,-24.8175 -20.19,-45 -45,-45 -24.8175,0 -45,20.1825 -45,45 0,24.8175 20.1825,45 45,45 z m -1786.87792,472.5 c -24.8145,0 -45,20.1825 -45,45 0,24.8175 20.1855,45 45,45 24.8145,0 45,-20.1825 45,-45 0,-24.8175 -20.1855,-45 -45,-45 z m 1114.72802,-138.21 -0.855,2.1225 -186.9375,186.9375 -0.705,0.6975 c -4.0425,4.47 -8.4075,5.07 -11.505,4.7025 H 221.61063 c -5.385,31.875 -33.10875,56.25 -66.48675,56.25 -37.21575,0 -67.50001,-30.2775 -67.50001,-67.5 0,-37.2225 30.28426,-67.5 67.50001,-67.5 33.378,0 61.10175,24.375 66.48675,56.25 h 845.73377 l 180.9075,-180.9075 v -379.1025 l 8.52,-2.13 1.98,-0.36 h 616.7624 c 5.385,-31.875 33.105,-56.25 66.4875,-56.25 37.215,0 67.5,30.2775 67.5,67.5 0,37.2225 -30.285,67.5 -67.5,67.5 -33.3825,0 -61.1025,-24.375 -66.4875,-56.25 h -604.7624 v 362.7075 c 0.03,0.96 0.03,3.03 -0.9,5.3325"
         style="fill:#ffffff;fill-opacity:1;fill-rule:nonzero;stroke:none;stroke-width:0.75"
         id="path126"
         inkscape:connector-curvature="0" /><path
         d="m 1942.0018,1071.0144 c 24.81,0 45,-20.1825 45,-45 0,-24.8175 -20.19,-45.00004 -45,-45.00004 -24.8175,0 -45,20.18254 -45,45.00004 0,24.8175 20.1825,45 45,45 z m -1786.87793,472.5 c -24.8145,0 -45,20.1825 -45,45 0,24.8175 20.1855,45 45,45 24.8145,0 45,-20.1825 45,-45 0,-24.8175 -20.1855,-45 -45,-45 z m 917.02803,-32.985 -46.2825,46.275 -38.64,38.64 c -0.9825,1.0875 -3.375,3.4875 -7.365,4.1625 l -0.9375,0.1575 H 221.61062 c -5.385,31.875 -33.10875,56.25 -66.48675,56.25 -37.21575,0 -67.5,-30.2775 -67.5,-67.5 0,-37.2225 30.28425,-67.5 67.5,-67.5 33.378,0 61.10175,24.375 66.48675,56.25 H 973.5869 l 84.705,-84.6975 1.35,-0.7575 c 1.0275,-0.585 1.41,-1.5375 1.11,-8.745 -0.1125,-2.625 -0.2325,-5.595 0,-8.6175 v -445.7475 l -0.78,-6.3 8.1375,-8.22 4.935,0.585 h 802.4699 c 5.385,-31.87504 33.105,-56.25004 66.4875,-56.25004 37.215,0 67.5,30.2775 67.5,67.50004 0,37.2225 -30.285,67.5 -67.5,67.5 -33.3825,0 -61.1025,-24.375 -66.4875,-56.25 h -792.2624 v 437.6625 l -0.053,1.0275 c -0.1575,1.7175 -0.06,3.8775 0.03,6.165 0.33,7.815 0.87,20.685 -11.0775,28.41"
         style="fill:#ffffff;fill-opacity:1;fill-rule:nonzero;stroke:none;stroke-width:0.75"
         id="path128"
         inkscape:connector-curvature="0" /><path
         d="m 342.62388,1356.0144 c -24.8145,0 -45,20.1825 -45,45 0,24.8175 20.1855,45 45,45 24.8145,0 45,-20.1825 45,-45 0,-24.8175 -20.1855,-45 -45,-45 z M 1707.6268,883.51436 c 24.81,0 45,-20.1825 45,-45 0,-24.8175 -20.19,-45 -45,-45 -24.8175,0 -45,20.1825 -45,45 0,24.8175 20.1825,45 45,45 z m 0,-112.5 c 37.215,0 67.5,30.2775 67.5,67.5 0,37.2225 -30.285,67.5 -67.5,67.5 -33.3825,0 -61.1025,-24.375 -66.4875,-56.25 H 895.75187 v 543.58504 l 0.105,11.1375 -5.7675,7.7775 H 409.11063 c -5.385,31.875 -33.10875,56.25 -66.48675,56.25 -37.21575,0 -67.5,-30.2775 -67.5,-67.5 0,-37.2225 30.28425,-67.5 67.5,-67.5 33.378,0 61.10175,24.375 66.48675,56.25 h 464.14124 v -545.56504 -4.56 c -0.21,-5.505 2.715,-8.6175 4.47,-9.99 l 4.995,-3.555 3.975,1.17 h 754.44743 c 5.385,-31.875 33.105,-56.25 66.4875,-56.25"
         style="fill:#ffffff;fill-opacity:1;fill-rule:nonzero;stroke:none;stroke-width:0.75"
         id="path130"
         inkscape:connector-curvature="0" /><path
         d="m 530.12388,1121.6394 c -24.8145,0 -45,20.1825 -45,45 0,24.8175 20.1855,45 45,45 24.8145,0 45,-20.1825 45,-45 0,-24.8175 -20.1855,-45 -45,-45 z M 1520.1268,696.01436 c 24.81,0 45,-20.1825 45,-45 0,-24.8175 -20.19,-45 -45,-45 -24.8175,0 -45,20.1825 -45,45 0,24.8175 20.1825,45 45,45 z m -834.22493,-46.1475 1.0395,-10.1025 h 766.69793 c 5.385,-31.875 33.105,-56.25 66.4875,-56.25 37.215,0 67.5,30.2775 67.5,67.5 0,37.2225 -30.285,67.5 -67.5,67.5 -33.3825,0 -61.1025,-24.375 -66.4875,-56.25 H 708.24888 v 497.82004 l 0.17925,10.2675 -6.59775,7.5375 H 596.61062 c -5.38499,31.875 -33.10874,56.25 -66.48674,56.25 -37.21575,0 -67.5,-30.2775 -67.5,-67.5 0,-37.2225 30.28425,-67.5 67.5,-67.5 33.378,0 61.10175,24.375 66.48674,56.25 h 89.13826 v -498.93004 -1.695 c -0.015,-1.695 0,-3.3825 0.15299,-4.8975"
         style="fill:#ffffff;fill-opacity:1;fill-rule:nonzero;stroke:none;stroke-width:0.75"
         id="path132"
         inkscape:connector-curvature="0" /><path
         d="m 1332.6269,508.51586 c 24.81,0 45,-20.1825 45,-45 0,-24.8175 -20.19,-45 -45,-45 -24.8175,0 -45,20.1825 -45,45 0,24.8175 20.1825,45 45,45 z M 473.87388,-379.61315 v 831.87901 h 792.26552 c 5.385,-31.875 33.105,-56.25 66.4875,-56.25 37.215,0 67.5,30.27525 67.5,67.5 0,37.22175 -30.285,67.5 -67.5,67.5 -33.3825,0 -61.1025,-24.375 -66.4875,-56.25 H 451.37388 v -854.37901 h 22.5"
         style="fill:#ffffff;fill-opacity:1;fill-rule:nonzero;stroke:none;stroke-width:0.75"
         id="path134"
         inkscape:connector-curvature="0" /><path
         d="m 275.12388,628.51436 c 24.8145,0 45,-20.1825 45,-45 0,-24.8175 -20.1855,-44.9985 -45,-44.9985 -24.8145,0 -45,20.181 -45,44.9985 0,24.8175 20.1855,45 45,45 z m -11.25,-111.4875 v -896.64001 h 22.5 v 896.64001 c 31.87275,5.38425 56.25,33.105 56.25,66.4875 0,37.2225 -30.28125,67.5 -67.5,67.5 -37.21575,0 -67.5,-30.2775 -67.5,-67.5 0,-33.3825 24.381,-61.10325 56.25,-66.4875"
         style="fill:#ffffff;fill-opacity:1;fill-rule:nonzero;stroke:none;stroke-width:0.75"
         id="path136"
         inkscape:connector-curvature="0" /><path
         d="m 488.87388,883.51436 c 24.8145,0 45,-20.1825 45,-45 0,-24.8175 -20.1855,-45 -45,-45 -24.8145,0 -45,20.1825 -45,45 0,24.8175 20.1855,45 45,45 z M 98.87387,-379.61315 V 827.26436 h 323.51701 c 5.382,-31.875 33.10575,-56.25 66.483,-56.25 37.21875,0 67.5,30.2775 67.5,67.5 0,37.2225 -30.28125,67.5 -67.5,67.5 -33.37725,0 -61.101,-24.375 -66.483,-56.25 H 89.68637 l -4.236,1.1775 -4.5849,-3.54 c -1.76955,-1.365 -4.7022,-4.485 -4.4913,-9.8325 V -379.61315 h 22.4997"
         style="fill:#ffffff;fill-opacity:1;fill-rule:nonzero;stroke:none;stroke-width:0.75"
         id="path138"
         inkscape:connector-curvature="0" /><path
         d="m 301.37388,981.01436 c -24.8145,0 -45,20.18254 -45,45.00004 0,24.8175 20.1855,45 45,45 24.8145,0 45,-20.1825 45,-45 0,-24.8175 -20.1855,-45.00004 -45,-45.00004 z m 0,112.50004 c -33.37725,0 -61.101,-24.375 -66.483,-56.25 H -96.23113 l -7.77825,0.495 -7.67625,-7.815 0.5595,-4.7325 V 474.76586 h -113.48702 v -22.5 h 131.28827 l 3.19575,5.856 c 1.65825,3.03825 1.54425,5.904 1.4655,6.51 l 0.0375,550.13254 h 323.51701 c 5.382,-31.87504 33.10575,-56.25004 66.483,-56.25004 37.21875,0 67.5,30.2775 67.5,67.50004 0,37.2225 -30.28125,67.5 -67.5,67.5"
         style="fill:#ffffff;fill-opacity:1;fill-rule:nonzero;stroke:none;stroke-width:0.75"
         id="path140"
         inkscape:connector-curvature="0" /><path
         d="m 113.87388,1258.5144 c 24.8145,0 45,-20.1825 45,-45 0,-24.8175 -20.1855,-45 -45,-45 -24.81451,0 -44.99971,20.1825 -44.99971,45 0,24.8175 20.1852,45 44.99971,45 z m -338.48703,-56.25 H 47.39087 c 5.38185,-31.875 33.10545,-56.25 66.48301,-56.25 37.21875,0 67.5,30.2775 67.5,67.5 0,37.2225 -30.28125,67.5 -67.5,67.5 -33.37756,0 -61.10116,-24.375 -66.48301,-56.25 h -272.00402 v -22.5"
         style="fill:#ffffff;fill-opacity:1;fill-rule:nonzero;stroke:none;stroke-width:0.75"
         id="path142"
         inkscape:connector-curvature="0" /><path
         d="m 2577.6268,2943.2094 c -24.81,0 -45,20.1825 -45,45 0,24.81 20.19,45 45,45 24.81,0 45,-20.19 45,-45 0,-24.8175 -20.19,-45 -45,-45 z M 1213.2419,1946.6469 c -24.8175,0 -45,20.1825 -45,45 0,24.81 20.1825,45 45,45 24.8175,0 45,-20.19 45,-45 0,-24.8175 -20.1825,-45 -45,-45 z m 1364.3849,1109.0625 c -37.2225,0 -67.5,-30.285 -67.5,-67.5 0,-33.3825 24.375,-61.1025 56.25,-66.4875 v -918.825 H 1279.7219 c -5.3775,31.8675 -33.105,56.25 -66.48,56.25 -37.2225,0 -67.5,-30.285 -67.5,-67.5 0,-37.2225 30.2775,-67.5 67.5,-67.5 33.375,0 61.1025,24.375 66.48,56.25 h 1299.2624 l 10.7025,3.0975 -0.81,8.9925 v 929.235 c 31.875,5.385 56.25,33.105 56.25,66.4875 0,37.215 -30.2775,67.5 -67.5,67.5"
         style="fill:#ffffff;fill-opacity:1;fill-rule:nonzero;stroke:none;stroke-width:0.75"
         id="path144"
         inkscape:connector-curvature="0" /><path
         d="m 975.7394,1946.6469 c -24.81,0 -45.00003,20.1825 -45.00003,45 0,24.81 20.19003,45 45.00003,45 24.8175,0 45,-20.19 45,-45 0,-24.8175 -20.1825,-45 -45,-45 z m 0,112.5 c -33.375,0 -61.09503,-24.3825 -66.48003,-56.25 H -224.61315 v -22.5 H 909.25937 c 5.385,-31.875 33.10503,-56.25 66.48003,-56.25 37.2225,0 67.5,30.2775 67.5,67.5 0,37.215 -30.2775,67.5 -67.5,67.5"
         style="fill:#ffffff;fill-opacity:1;fill-rule:nonzero;stroke:none;stroke-width:0.75"
         id="path146"
         inkscape:connector-curvature="0" /><path
         d="m 2337.6418,253.51586 c 24.8175,0 45,-20.1825 45,-45 0,-24.8175 -20.1825,-45 -45,-45 -24.81,0 -45,20.1825 -45,45 0,24.8175 20.19,45 45,45 z m -11.25,-111.489 v -521.64001 h 22.5 v 521.64001 c 31.875,5.38425 56.25,33.105 56.25,66.489 0,37.22175 -30.2775,67.5 -67.5,67.5 -37.215,0 -67.5,-30.27825 -67.5,-67.5 0,-33.384 24.3825,-61.10475 56.25,-66.489"
         style="fill:#ffffff;fill-opacity:1;fill-rule:nonzero;stroke:none;stroke-width:0.75"
         id="path148"
         inkscape:connector-curvature="0" /><path
         d="m 2525.1343,497.26586 c 24.8175,0 45.0075,-20.1825 45.0075,-45 0,-24.8175 -20.19,-45 -45.0075,-45 -24.81,0 -45,20.1825 -45,45 0,24.8175 20.19,45 45,45 z m -11.25,-111.489 v -761.40821 c -4.83,-0.8093 -9.4575,-2.1975 -13.89,-3.9818 h 50.2875 c -4.4325,1.7843 -9.06,3.1725 -13.8975,3.9818 v 761.40821 c 31.875,5.38425 56.2575,33.105 56.2575,66.489 0,37.22175 -30.285,67.5 -67.5075,67.5 -37.215,0 -67.5,-30.27825 -67.5,-67.5 0,-33.384 24.3825,-61.10475 56.25,-66.489"
         style="fill:#ffffff;fill-opacity:1;fill-rule:nonzero;stroke:none;stroke-width:0.75"
         id="path150"
         inkscape:connector-curvature="0" /><path
         d="m 2692.0018,1014.7644 c 0,24.8175 20.1825,45 45,45 24.81,0 45,-20.1825 45,-45 0,-24.81754 -20.19,-45.00004 -45,-45.00004 -24.8175,0 -45,20.1825 -45,45.00004 z m 90,-296.25004 c 0,-24.8175 -20.19,-45 -45,-45 -24.8175,0 -45,20.1825 -45,45 0,24.8175 20.1825,45 45,45 24.81,0 45,-20.1825 45,-45 z m -112.5,0 c 0,-37.2225 30.2775,-67.5 67.5,-67.5 37.2225,0 67.5,30.2775 67.5,67.5 0,33.3825 -24.375,61.1025 -56.25,66.48 v 163.2825 c 31.875,5.385 56.25,33.105 56.25,66.48754 0,37.2225 -30.2775,67.5 -67.5,67.5 -37.2225,0 -67.5,-30.2775 -67.5,-67.5 0,-33.38254 24.375,-61.10254 56.25,-66.48754 v -163.2825 c -31.875,-5.3775 -56.25,-33.0975 -56.25,-66.48"
         style="fill:#ffffff;fill-opacity:1;fill-rule:nonzero;stroke:none;stroke-width:0.75"
         id="path152"
         inkscape:connector-curvature="0" /><path
         d="m 2735.1268,1642.8819 c 24.81,0 45,-20.1825 45,-45 0,-24.8175 -20.19,-45 -45,-45 -24.8175,0 -45,20.1825 -45,45 0,24.8175 20.1825,45 45,45 z m 1072.5,1753.1325 c 24.81,0 45,-20.1825 45,-45 0,-24.81 -20.19,-45 -45,-45 -24.8175,0 -45,20.19 -45,45 0,24.8175 20.1825,45 45,45 z m -1072.5,-1865.6325 c 37.2225,0 67.5,30.2775 67.5,67.5 0,33.3825 -24.375,61.1025 -56.25,66.4875 v 925.395 h 386.115 l 2.91,6.8475 c 1.065,2.505 0.9975,4.71 0.975,5.805 v 737.3475 h 604.7625 c 5.385,-31.8675 33.105,-56.25 66.4875,-56.25 37.2225,0 67.5,30.285 67.5,67.5 0,37.215 -30.2775,67.5 -67.5,67.5 -33.3825,0 -61.1025,-24.3825 -66.4875,-56.25 h -614.0625 l -4.305,1.14 -4.5225,-3.5925 c -1.7475,-1.38 -4.6275,-4.515 -4.3725,-9.57 v -570.6825 l 0.015,-167.295 h -390.015 v -947.895 c -31.875,-5.385 -56.25,-33.105 -56.25,-66.4875 0,-37.2225 30.2775,-67.5 67.5,-67.5"
         style="fill:#ffffff;fill-opacity:1;fill-rule:nonzero;stroke:none;stroke-width:0.75"
         id="path154"
         inkscape:connector-curvature="0" /><path
         d="m 1257.6269,2216.9469 c 0,-24.81 -20.19,-45 -45,-45 -24.8175,0 -45,20.19 -45,45 0,24.8175 20.1825,45 45,45 24.81,0 45,-20.1825 45,-45 z M 717.62387,3681.0144 c -24.8145,0 -45,20.19 -45,45 0,24.8175 20.1855,45 45,45 24.8145,0 45.003,-20.1825 45.003,-45 0,-24.81 -20.1885,-45 -45.003,-45 z M 1145.1269,2216.9469 c 0,-37.215 30.2775,-67.5 67.5,-67.5 37.215,0 67.5,30.285 67.5,67.5 0,33.3825 -24.3825,61.1025 -56.25,66.4875 v 512.445 l -6.8475,2.9175 c -2.5125,1.065 -4.71,1.005 -5.0025,0.9375 l -363.15003,0.03 v 925.335 c 0.1725,2.7675 -0.6525,5.535 -2.3775,7.755 l -4.05,4.725 -58.35,-0.27 c -5.4,31.8525 -33.11175,56.205 -66.4755,56.205 -37.21575,0 -67.5,-30.285 -67.5,-67.5 0,-37.215 30.28425,-67.5 67.5,-67.5 33.378,0 61.1055,24.3825 66.483,56.25 h 42.27 v -924.06 l -1.2975,-4.425 3.7875,-4.7025 c 1.2825,-1.5975 3.9975,-4.08 8.58,-4.305 l 0.18,-0.015 c 0.33,-0.015 0.6675,-0.015 1.0125,0 h 362.73753 v -493.83 c -31.875,-5.385 -56.25,-33.105 -56.25,-66.4875"
         style="fill:#ffffff;fill-opacity:1;fill-rule:nonzero;stroke:none;stroke-width:0.75"
         id="path156"
         inkscape:connector-curvature="0" /><path
         d="m 1445.1269,2216.9469 c 0,-24.81 -20.19,-45 -45,-45 -24.8175,0 -45,20.19 -45,45 0,24.8175 20.1825,45 45,45 24.81,0 45,-20.1825 45,-45 z M 717.62387,3868.5144 c -24.8145,0 -45,20.19 -45,45 0,24.8175 20.1855,45 45,45 24.8145,0 45.003,-20.1825 45.003,-45 0,-24.81 -20.1885,-45 -45.003,-45 z M 1332.6269,2216.9469 c 0,-37.215 30.2775,-67.5 67.5,-67.5 37.215,0 67.4999,30.285 67.4999,67.5 0,33.3825 -24.3824,61.1025 -56.2499,66.4875 v 703.7325 l -375,0.097 v 924.57 l -0.022,1.845 c 0.015,-0.24 0.022,-0.495 0.015,-0.7575 l 0.082,2.97 -4.8825,8.8725 H 784.10687 c -5.3775,31.8675 -33.105,56.25 -66.483,56.25 -37.21575,0 -67.5,-30.285 -67.5,-67.5 0,-37.215 30.28425,-67.5 67.5,-67.5 33.378,0 61.1055,24.3825 66.483,56.25 h 229.77003 v -924.135 l 0.09,-3.2775 c 0.6675,-5.1975 5.355,-10.4325 12.3675,-10.0875 h 291.18 71.3625 v -681.33 c -31.875,-5.385 -56.25,-33.105 -56.25,-66.4875"
         style="fill:#ffffff;fill-opacity:1;fill-rule:nonzero;stroke:none;stroke-width:0.75"
         id="path158"
         inkscape:connector-curvature="0" /><path
         d="m 1632.6268,2216.9469 c 0,-24.81 -20.19,-45 -45,-45 -24.8175,0 -45,20.19 -45,45 0,24.8175 20.1825,45 45,45 24.81,0 45,-20.1825 45,-45 z M 717.62387,4056.0144 c -24.8145,0 -45,20.19 -45,45 0,24.8175 20.1855,45 45,45 24.8145,0 45.003,-20.1825 45.003,-45 0,-24.81 -20.1885,-45 -45.003,-45 z M 1520.1268,2216.9469 c 0,-37.215 30.2775,-67.5 67.5,-67.5 37.215,0 67.5,30.285 67.5,67.5 0,33.3825 -24.3825,61.1025 -56.25,66.4875 v 889.89 l -9.7575,1.3125 c -0.78,0.105 -1.6725,0.1425 -2.94,0.1275 h -362.3024 v 924.84 c 0.24,5.6775 -2.7,8.85 -4.47,10.245 l -5.1225,3.585 -3.9975,-1.17 H 784.10687 c -5.3775,31.8675 -33.105,56.25 -66.48299,56.25 -37.21575,0 -67.5,-30.285 -67.5,-67.5 0,-37.215 30.28425,-67.5 67.5,-67.5 33.37799,0 61.10549,24.3825 66.48299,56.25 h 417.27003 v -924.12 l -1.1625,-4.32 3.5475,-4.56 c 1.3725,-1.77 4.56,-4.6425 10.05,-4.5 h 362.5649 v -868.83 c -31.875,-5.385 -56.25,-33.105 -56.25,-66.4875"
         style="fill:#ffffff;fill-opacity:1;fill-rule:nonzero;stroke:none;stroke-width:0.75"
         id="path160"
         inkscape:connector-curvature="0" /><path
         d="m 1820.1268,2216.9469 c 0,-24.81 -20.19,-45 -45,-45 -24.8175,0 -45,20.19 -45,45 0,24.8175 20.1825,45 45,45 24.81,0 45,-20.1825 45,-45 z M 717.62387,4243.5144 c -24.8145,0 -45,20.19 -45,45 0,24.8175 20.1855,45 45,45 24.8145,0 45.003,-20.1825 45.003,-45 0,-24.81 -20.1885,-45 -45.003,-45 z M 1707.6268,2216.9469 c 0,-37.215 30.2775,-67.5 67.5,-67.5 37.215,0 67.5,30.285 67.5,67.5 0,33.3825 -24.3825,61.1025 -56.25,66.4875 v 1078.7925 l -374.9999,0.037 v 924.945 c 0.1875,5.5725 -2.6775,8.715 -4.44,10.11 l -5.3475,3.7125 -4.035,-1.2675 H 784.10687 c -5.3775,31.8675 -33.105,56.25 -66.483,56.25 -37.21575,0 -67.5,-30.285 -67.5,-67.5 0,-37.215 30.28425,-67.5 67.5,-67.5 33.378,0 61.1055,24.3825 66.483,56.25 h 604.77003 v -923.3475 l 0.1275,-4.47 c 0.8175,-5.34 5.13,-9.2025 10.4475,-9.645 l 0.6825,-0.037 c 0.225,-0.015 0.4575,-0.015 0.69,0 h 363.0524 v -1056.33 c -31.875,-5.385 -56.25,-33.105 -56.25,-66.4875"
         style="fill:#ffffff;fill-opacity:1;fill-rule:nonzero;stroke:none;stroke-width:0.75"
         id="path162"
         inkscape:connector-curvature="0" /><path
         d="m 1962.6268,2171.9469 c -24.8175,0 -45,20.19 -45,45 0,24.8175 20.1825,45 45,45 24.81,0 45,-20.1825 45,-45 0,-24.81 -20.19,-45 -45,-45 z m 11.25,111.4875 v 1238.8575 l -0.1275,27.4725 h -374.8725 v 920.205 l 0.33,10.4175 H 762.40187 c 0.1425,-1.44 0.225,-2.895 0.225,-4.3725 0,-24.81 -20.1885,-45 -45.003,-45 -24.8145,0 -45,20.19 -45,45 0,1.4775 0.0825,2.9325 0.22275,4.3725 h -22.5 c -0.093,-1.455 -0.22275,-2.895 -0.22275,-4.3725 0,-37.215 30.28426,-67.5 67.5,-67.5 33.378,0 61.1055,24.3825 66.483,56.25 h 792.26993 v -924.8025 l -0.5925,-6 9.4275,-7.89 4.335,1.1925 h 361.83 v -1243.83 c -31.875,-5.385 -56.25,-33.105 -56.25,-66.4875 0,-37.215 30.2775,-67.5 67.5,-67.5 37.215,0 67.5,30.285 67.5,67.5 0,33.3825 -24.3825,61.1025 -56.25,66.4875"
         style="fill:#ffffff;fill-opacity:1;fill-rule:nonzero;stroke:none;stroke-width:0.75"
         id="path164"
         inkscape:connector-curvature="0" /><path
         d="m 87.62387,2676.0144 c -24.81405,0 -44.9997,20.1825 -44.9997,45 0,24.8175 20.18565,45 44.9997,45 24.81451,0 45.00001,-20.1825 45.00001,-45 0,-24.8175 -20.1855,-45 -45.00001,-45 z m 67.50001,45 c 0,37.215 -30.28125,67.5 -67.50001,67.5 -37.21545,0 -67.499704,-30.285 -67.499704,-67.5 0,-33.375 24.380854,-61.1025 56.250004,-66.4875 v -417.2625 h -300.98732 v -22.5 H 86.61662 c 0.19275,-0.015 0.38325,-0.015 0.56775,-0.015 0.1965,0 0.381,0 0.5685,0.015 l 0.36075,0.023 c 4.57275,0.3225 7.248,2.9925 8.26725,4.26 l 3.8295,5.175 -1.3365,4.1025 v 426.2025 c 31.87276,5.385 56.25001,33.1125 56.25001,66.4875"
         style="fill:#ffffff;fill-opacity:1;fill-rule:nonzero;stroke:none;stroke-width:0.75"
         id="path166"
         inkscape:connector-curvature="0" /></g></g></svg>