<?xml version="1.0" encoding="UTF-8" standalone="no"?>
<!-- Created with Inkscape (http://www.inkscape.org/) -->

<svg
   xmlns:dc="http://purl.org/dc/elements/1.1/"
   xmlns:cc="http://creativecommons.org/ns#"
   xmlns:rdf="http://www.w3.org/1999/02/22-rdf-syntax-ns#"
   xmlns:svg="http://www.w3.org/2000/svg"
   xmlns="http://www.w3.org/2000/svg"
   xmlns:sodipodi="http://sodipodi.sourceforge.net/DTD/sodipodi-0.dtd"
   xmlns:inkscape="http://www.inkscape.org/namespaces/inkscape"
   width="420mm"
   height="134.10609mm"
   viewBox="0 0 420.00002 134.1061"
   version="1.1"
   id="svg8"
   inkscape:version="0.92.4 5da689c313, 2019-01-14"
   sodipodi:docname="dosbox_label.svg">
  <defs
     id="defs2" />
  <sodipodi:namedview
     id="base"
     pagecolor="#a1a1a1"
     bordercolor="#666666"
     borderopacity="1.0"
     inkscape:pageopacity="0.50980392"
     inkscape:pageshadow="2"
     inkscape:zoom="0.35355339"
     inkscape:cx="583.70456"
     inkscape:cy="141.02104"
     inkscape:document-units="mm"
     inkscape:current-layer="svg8"
     showgrid="true"
     inkscape:pagecheckerboard="true"
     inkscape:window-width="1600"
     inkscape:window-height="900"
     inkscape:window-x="0"
     inkscape:window-y="0"
     inkscape:window-maximized="1"
     fit-margin-top="0"
     fit-margin-left="0"
     fit-margin-right="0"
     fit-margin-bottom="0" />
  <metadata
     id="metadata5">
    <rdf:RDF>
      <cc:Work
         rdf:about="">
        <dc:format>image/svg+xml</dc:format>
        <dc:type
           rdf:resource="http://purl.org/dc/dcmitype/StillImage" />
        <dc:title></dc:title>
      </cc:Work>
    </rdf:RDF>
  </metadata>
  <g
     aria-label="DOSBOX"
     transform="matrix(0.56952774,0,0,0.72765131,-17.989073,-185.62411)"
     style="font-style:normal;font-variant:normal;font-weight:normal;font-stretch:normal;font-size:192px;line-height:25px;font-family:'Droid Sans Mono Dotted for Powerline';-inkscape-font-specification:'Droid Sans Mono Dotted for Powerline, Normal';font-variant-ligatures:normal;font-variant-caps:normal;font-variant-numeric:normal;font-feature-settings:normal;text-align:start;letter-spacing:0px;word-spacing:0px;writing-mode:lr-tb;text-anchor:start;display:inline;fill:#000000;fill-opacity:1;stroke:none;stroke-width:1px;stroke-linecap:butt;stroke-linejoin:miter;stroke-opacity:1"
     id="flowRoot37"
     inkscape:label="text">
    <path
       d="m 88.5,302.1097 v 90.09375 H 96 q 16.3125,0 23.25,-10.21875 6.9375,-10.3125 6.9375,-34.96875 0,-24.46875 -6.9375,-34.6875 Q 112.3125,302.1097 96,302.1097 Z M 60.84375,277.1722 h 29.625 q 34.3125,0 49.40625,16.40625 15.09375,16.3125 15.09375,53.4375 0,37.21875 -15.09375,53.71875 -15.09375,16.40625 -49.40625,16.40625 h -29.625 z"
       style="font-style:normal;font-variant:normal;font-weight:bold;font-stretch:normal;font-size:192px;font-family:'DejaVu Sans Mono';-inkscape-font-specification:'DejaVu Sans Mono, Bold';font-variant-ligatures:normal;font-variant-caps:normal;font-variant-numeric:normal;font-feature-settings:normal;text-align:start;writing-mode:lr-tb;text-anchor:start;fill:#000000;fill-opacity:1"
       id="path39"
       inkscape:connector-curvature="0" />
    <path
       d="m 221.34375,299.4847 q -10.59375,0 -15.46875,11.34375 -4.875,11.25 -4.875,36.46875 0,25.125 4.875,36.46875 4.875,11.25 15.46875,11.25 10.6875,0 15.5625,-11.25 4.875,-11.34375 4.875,-36.46875 0,-25.21875 -4.875,-36.46875 -4.875,-11.34375 -15.5625,-11.34375 z m -49.125,47.8125 q 0,-35.90625 12.375,-54.28125 12.46875,-18.375 36.75,-18.375 24.375,0 36.75,18.375 12.46875,18.375 12.46875,54.28125 0,35.8125 -12.46875,54.1875 -12.375,18.375 -36.75,18.375 -24.28125,0 -36.75,-18.375 -12.375,-18.375 -12.375,-54.1875 z"
       style="font-style:normal;font-variant:normal;font-weight:bold;font-stretch:normal;font-size:192px;font-family:'DejaVu Sans Mono';-inkscape-font-specification:'DejaVu Sans Mono, Bold';font-variant-ligatures:normal;font-variant-caps:normal;font-variant-numeric:normal;font-feature-settings:normal;text-align:start;writing-mode:lr-tb;text-anchor:start;fill:#000000;fill-opacity:1"
       id="path41"
       inkscape:connector-curvature="0" />
    <path
       d="m 327,355.7347 q -20.90625,-7.96875 -28.3125,-16.6875 -7.40625,-8.8125 -7.40625,-23.625 0,-19.03125 12.1875,-29.90625 12.1875,-10.875 33.46875,-10.875 9.65625,0 19.3125,2.25 9.65625,2.15625 19.125,6.46875 v 27 q -8.90625,-6.28125 -18.09375,-9.5625 -9.1875,-3.28125 -18.1875,-3.28125 -10.03125,0 -15.375,4.03125 -5.34375,4.03125 -5.34375,11.53125 0,5.8125 3.84375,9.65625 3.9375,3.75 16.3125,8.34375 l 11.90625,4.5 q 16.875,6.1875 24.84375,16.40625 7.96875,10.21875 7.96875,25.78125 0,21.1875 -12.5625,31.6875 -12.46875,10.40625 -37.78125,10.40625 -10.40625,0 -20.90625,-2.53125 -10.40625,-2.4375 -20.15625,-7.3125 V 381.4222 q 11.0625,7.875 21.375,11.71875 10.40625,3.84375 20.53125,3.84375 10.21875,0 15.84375,-4.59375 5.625,-4.6875 5.625,-13.03125 0,-6.28125 -3.75,-10.96875 -3.75,-4.78125 -10.875,-7.5 z"
       style="font-style:normal;font-variant:normal;font-weight:bold;font-stretch:normal;font-size:192px;font-family:'DejaVu Sans Mono';-inkscape-font-specification:'DejaVu Sans Mono, Bold';font-variant-ligatures:normal;font-variant-caps:normal;font-variant-numeric:normal;font-feature-settings:normal;text-align:start;writing-mode:lr-tb;text-anchor:start;fill:#000000;fill-opacity:1"
       id="path43"
       inkscape:connector-curvature="0" />
    <path
       d="m 433.21875,353.57845 v 41.4375 h 18.375 q 13.21875,0 18.46875,-4.5 5.34375,-4.5 5.34375,-15.65625 0,-11.34375 -5.53125,-16.3125 -5.53125,-4.96875 -18.28125,-4.96875 z m 0,-54.5625 v 32.53125 h 18.375 q 10.5,0 14.90625,-3.75 4.5,-3.75 4.5,-12.375 0,-8.625 -4.59375,-12.46875 -4.5,-3.9375 -14.8125,-3.9375 z M 406.5,276.9847 h 45.09375 q 23.34375,0 35.0625,8.90625 11.8125,8.8125 11.8125,26.4375 0,13.5 -6.9375,21.09375 -6.9375,7.59375 -20.34375,8.8125 16.03125,1.59375 24.09375,10.78125 8.15625,9.1875 8.15625,25.6875 0,20.25 -12.1875,29.34375 -12.1875,9.09375 -39.65625,9.09375 H 406.5 Z"
       style="font-style:normal;font-variant:normal;font-weight:bold;font-stretch:normal;font-size:192px;font-family:'DejaVu Sans Mono';-inkscape-font-specification:'DejaVu Sans Mono, Bold';font-variant-ligatures:normal;font-variant-caps:normal;font-variant-numeric:normal;font-feature-settings:normal;text-align:start;writing-mode:lr-tb;text-anchor:start;fill:#000000;fill-opacity:1"
       id="path45"
       inkscape:connector-curvature="0" />
    <path
       d="m 595.21875,347.2972 q 0,-30.84375 -6.375,-44.0625 -6.28125,-13.21875 -20.71875,-13.21875 -14.34375,0 -20.71875,13.21875 -6.28125,13.21875 -6.28125,44.0625 0,30.75 6.28125,43.96875 6.375,13.21875 20.71875,13.21875 14.4375,0 20.71875,-13.125 6.375,-13.21875 6.375,-44.0625 z m 19.78125,0 q 0,36.5625 -11.625,54.5625 -11.53125,18 -35.25,18 -23.71875,0 -35.25,-17.90625 -11.53125,-17.90625 -11.53125,-54.65625 0,-36.65625 11.53125,-54.65625 11.625,-18 35.25,-18 23.71875,0 35.25,18 11.625,18 11.625,54.65625 z"
       style="font-style:normal;font-variant:normal;font-weight:normal;font-stretch:normal;font-size:192px;font-family:'DejaVu Sans Mono';-inkscape-font-specification:'DejaVu Sans Mono, Normal';font-variant-ligatures:normal;font-variant-caps:normal;font-variant-numeric:normal;font-feature-settings:normal;text-align:start;writing-mode:lr-tb;text-anchor:start;fill:#000000;fill-opacity:1"
       id="path47"
       inkscape:connector-curvature="0" />
    <path
       d="M 634.03125,277.1722 H 654.375 l 30.75,52.78125 31.3125,-52.78125 h 20.34375 l -41.90625,65.8125 44.90625,74.15625 H 719.4375 L 685.125,356.8597 648.09375,417.14095 h -20.4375 l 46.875,-74.15625 z"
       style="font-style:normal;font-variant:normal;font-weight:normal;font-stretch:normal;font-size:192px;font-family:'DejaVu Sans Mono';-inkscape-font-specification:'DejaVu Sans Mono, Normal';font-variant-ligatures:normal;font-variant-caps:normal;font-variant-numeric:normal;font-feature-settings:normal;text-align:start;writing-mode:lr-tb;text-anchor:start;fill:#000000;fill-opacity:1"
       id="path49"
       inkscape:connector-curvature="0" />
  </g>
</svg>
