<?xml version="1.0" encoding="UTF-8" standalone="no"?>
<svg
   xmlns:dc="http://purl.org/dc/elements/1.1/"
   xmlns:cc="http://creativecommons.org/ns#"
   xmlns:rdf="http://www.w3.org/1999/02/22-rdf-syntax-ns#"
   xmlns:svg="http://www.w3.org/2000/svg"
   xmlns="http://www.w3.org/2000/svg"
   xmlns:sodipodi="http://sodipodi.sourceforge.net/DTD/sodipodi-0.dtd"
   xmlns:inkscape="http://www.inkscape.org/namespaces/inkscape"
   width="483.39929"
   height="258.2485"
   viewBox="0 0 37.271246 19.91158"
   version="1.1"
   id="svg16"
   sodipodi:docname="pcengine_label.svg"
   inkscape:version="0.92.4 5da689c313, 2019-01-14">
  <metadata
     id="metadata22">
    <rdf:RDF>
      <cc:Work
         rdf:about="">
        <dc:format>image/svg+xml</dc:format>
        <dc:type
           rdf:resource="http://purl.org/dc/dcmitype/StillImage" />
        <dc:title></dc:title>
      </cc:Work>
    </rdf:RDF>
  </metadata>
  <defs
     id="defs20" />
  <sodipodi:namedview
     pagecolor="#ffffff"
     bordercolor="#666666"
     borderopacity="1"
     objecttolerance="10"
     gridtolerance="10"
     guidetolerance="10"
     inkscape:pageopacity="0"
     inkscape:pageshadow="2"
     inkscape:window-width="1600"
     inkscape:window-height="900"
     id="namedview18"
     showgrid="false"
     inkscape:pagecheckerboard="true"
     fit-margin-top="0"
     fit-margin-left="0"
     fit-margin-right="0"
     fit-margin-bottom="0"
     inkscape:zoom="1.0680141"
     inkscape:cx="200.71988"
     inkscape:cy="142.80636"
     inkscape:window-x="0"
     inkscape:window-y="0"
     inkscape:window-maximized="0"
     inkscape:current-layer="svg16" />
  <g
     id="g14"
     style="clip-rule:evenodd;fill-rule:evenodd"
     transform="matrix(0.19915974,0,0,0.19915974,-0.56293392,-9.2387898)"
     inkscape:label="logo">
    <path
       d="m 159.75,68.71 -9.936,3.422 c -8.584,3.339 -7.617,5.603 -8.5,6.072 -0.885,0.469 -0.988,0.607 -1.326,0.332 -0.924,-0.925 -4.76,-1.118 -5.74,-0.773 L 90.642,93.771 c -6.72,1.849 -7.631,4.292 -9.273,6.071 -0.924,0.457 -0.933,0.398 -1.214,0.221 -2.174,-1.256 -4.837,-1.02 -6.734,-0.33 l -10.377,3.863 c -1.38,0.58 -1.767,-0.027 -1.767,-1.436 v -9.052 c 0,-0.884 0.718,-1.159 1.767,-1.545 l 7.396,-2.76 c 5.865,-2.581 9.825,-7.341 9.825,-15.345 v -8.059 c 0,-6.568 -6.375,-7.976 -10.488,-6.624 l -19.872,7.176 v 25.17 L 29.15,98.85 c -0.911,0.33 -1.104,0.973 -1.104,1.654 v 43.828 c 0,1.898 0.565,2.312 1.766,1.877 L 67.016,132.41 v -15.656 c 0,-1.229 2.76,-2.484 2.76,-1.324 v 15.104 c 0,1.022 0.566,1.104 1.104,0.883 l 12.033,-4.637 c 0.78,-0.42 0.738,-1.291 0.986,-1.395 0.58,0.207 2.712,0.043 2.712,0.043 2.291,-0.027 5.796,-1.85 5.796,-1.85 1.159,-0.387 1.677,-0.49 1.104,0.773 -0.524,1.158 -1.794,1.842 -2.65,2.316 -1.891,0.85 -6.292,2.098 -6.292,2.098 -1.249,0.387 -1.325,0.904 -1.325,1.547 v 11.812 c 0,1.041 0.738,1.172 1.215,0.992 l 10.046,-3.531 c 9.44,-4.637 14.793,-11.371 14.793,-21.969 l 16.779,-6.184 c 1.043,-0.393 1.326,-0.4 1.326,-1.545 V 94.762 c 0,-1.38 2.318,-1.787 2.318,-0.662 v 14.792 c 0,0.967 0.221,0.939 0.992,0.662 l 12.033,-4.305 c 0.768,-0.338 0.621,-1.766 0.994,-1.766 h 3.863 c 0.773,0 19.873,-7.176 19.873,-7.176 1,-0.359 1.324,-0.677 1.324,-1.657 V 84.383 c 0,-1.083 -0.773,-1.767 -0.773,-1.767 0,0 0.883,-1.201 0.883,-4.306 v -0.937 -0.205 -2.501 c 0.002,-6.329 -6.435,-7.116 -9.16,-5.957 z m -98.336,4.168 c 0,-0.441 0.276,-0.69 1.132,-1.076 l 4.443,-1.684 c 1.408,-0.539 1.849,-0.352 1.849,1.021 v 6.679 c 0,0.807 -0.834,1.47 -1.766,1.794 l -4.278,1.518 c -0.986,0.352 -1.38,0.372 -1.38,-0.718 z m -7.755,49.817 c 0,0.434 -0.228,0.703 -0.773,0.883 l -10.543,3.754 c -1.27,0.061 -1.559,-1.822 -0.276,-2.596 l 8.169,-3.145 c 0,0 1.104,-0.49 1.104,-1.105 V 109.06 c 0,-1.338 -0.414,-1.145 -1.215,-0.883 l -7.672,2.648 c -1.111,0.111 -1.649,-1.627 -0.386,-2.373 l 10.543,-3.863 c 0.731,-0.262 1.104,-0.111 1.104,0.938 0,1.049 -0.055,16.733 -0.055,17.168 z M 95.43,107.521 c 0,0.166 -0.145,0.311 -0.559,0.539 l -1.47,0.787 c -0.497,0.248 -1.056,0.248 -1.056,-0.25 v -1.096 c 0,-0.207 0.104,-0.373 0.414,-0.58 l 1.925,-1.035 c 0.393,-0.145 0.745,0.104 0.745,0.703 z"
       id="path4"
       inkscape:connector-curvature="0" />
    <path
       d="m 102.564,60.873 c 0.67,-0.235 9.605,-3.423 9.605,-3.423 0.959,-0.372 0.771,-2.449 0.771,-2.87 0,-6.341 -5.547,-9.259 -9.494,-7.838 l -9.273,3.201 c -5.451,2.042 -11.04,5.023 -12.254,14.241 v 17.774 c 0,10.957 8.556,8.97 11.923,7.728 3.368,-1.242 14.719,-5.396 15.682,-5.761 2.645,-1 4.631,-3.706 4.225,-7.183 a 310.728,310.728 0 0 0 -0.918,-6.486 c -0.111,-0.634 -0.139,-1.269 -0.883,-0.994 l -9.275,3.422 c -0.883,0.332 -1.434,0.469 -1.434,1.546 0,1.076 0.082,1.959 -1.49,2.484 0,0 -4.389,1.511 -4.914,1.711 -0.525,0.2 -1.38,0.283 -1.38,-1.27 v -15.4 c 0,-0.745 0.276,-1.069 1.27,-1.435 0.994,-0.366 5.245,-1.822 5.245,-1.822 0.82,-0.262 1.434,-0.283 1.434,0.607 v 0.938 c 0,1.278 0.491,1.064 1.16,0.83 z"
       id="path6"
       inkscape:connector-curvature="0" />
    <path
       d="m 48.214,96.676 -15.4,5.361 c -0.621,0.207 -0.793,0.779 -0.793,1.559 v 35.99 c 0,1.179 0.373,1.283 1.214,0.992 0,0 19.147,-6.885 19.651,-7.064 0.504,-0.18 0.662,-0.125 0.662,-0.773 v -3.311 c 0,-1.146 -0.158,-1.594 -1.214,-1.215 l -14.02,5.078 c -0.966,0.352 -1.325,0.545 -1.325,-0.773 v -9.383 c 0,-0.959 0.186,-0.98 0.552,-1.104 0.366,-0.125 8.169,-2.982 8.169,-2.982 0.58,-0.227 1.325,-0.502 1.325,-1.213 v -3.092 c 0,-0.621 -0.345,-1.062 -1.767,-0.553 l -6.955,2.539 c -1.173,0.477 -1.325,0.221 -1.325,-0.883 v -9.273 c 0,-0.42 -0.145,-0.613 0.883,-0.992 l 10.93,-4.086 c 0.834,-0.311 0.993,-0.166 0.993,-0.994 v -3.09 c 0,-0.904 -0.234,-1.193 -1.58,-0.738 z m 9.75,13.765 v 20.035 c 0,0.809 0.124,0.891 0.579,0.746 l 3.561,-1.158 c 0.579,-0.188 0.579,-0.311 0.579,-0.828 v -15.152 c 0,-0.683 0.249,-1.16 0.911,-1.408 l 9.107,-3.395 c 0.477,-0.166 1.408,-0.041 1.408,1.324 v 13.91 c 0,0.953 0.31,0.973 0.828,0.828 l 3.478,-1.242 c 0.621,-0.227 0.745,-0.227 0.745,-1.158 v -15.98 c 0,-4.492 -3.809,-3.684 -4.554,-3.395 l -15.731,5.797 c -0.601,0.205 -0.911,0.352 -0.911,1.076 z m 45.29,-17.305 -16.642,7.12 c -1.801,0.766 -3.063,2.029 -3.063,3.809 v 12.834 c 0,3.871 1.697,4.492 3.892,3.893 l 10.349,-3.561 c 1.387,-0.477 2.07,-0.498 2.07,0.828 0,4.471 -1.188,9.549 -7.7,12.418 l -4.554,1.906 v 4.139 c 0,0.91 0.607,0.967 1.159,0.746 l 6.707,-2.732 c 3.271,-1.449 9.272,-8.693 9.272,-13.496 V 93.882 c 0,-0.994 -0.599,-1.139 -1.49,-0.746 z m -3.395,17.055 c 0,0.975 -0.33,1.057 -1.49,1.449 l -8.445,2.898 c -0.517,0.145 -1.946,0.58 -1.946,-1.615 v -7.699 c 0,-1.22 0.911,-1.822 2.153,-2.277 l 8.072,-2.98 c 0.828,-0.311 1.656,-0.725 1.656,0.953 z m 9.385,-18.297 v 19.872 c 0,0.995 0.357,1.125 0.992,0.883 l 3.092,-1.049 c 0.627,-0.207 0.883,-0.504 0.883,-1.049 V 90.68 c 0,-1.083 -0.414,-1.194 -1.379,-0.828 l -3.092,1.159 c -0.338,0.138 -0.496,0.179 -0.496,0.883 z m 9.162,-3.477 v 20.037 c 0,0.809 0.125,0.891 0.58,0.746 l 3.561,-1.16 c 0.578,-0.186 0.578,-0.311 0.578,-0.828 V 92.061 c 0,-0.683 0.25,-1.159 0.912,-1.408 l 8.361,-2.98 c 0.477,-0.166 1.408,-0.042 1.408,1.325 v 13.91 c 0,0.951 0.311,0.973 0.828,0.828 l 3.477,-1.242 c 0.621,-0.229 0.746,-0.229 0.746,-1.16 V 85.355 c 0,-4.492 -3.809,-3.685 -4.555,-3.395 l -14.986,5.382 c -0.599,0.205 -0.91,0.35 -0.91,1.075 z m 44.629,-0.249 -13.082,4.72 c -1.781,0.642 -2.381,-2.629 -0.746,-3.229 l 10.846,-3.974 c 1.926,-0.704 4.639,-3.167 4.639,-6.21 v -3.809 c 0,-3.022 -2.732,-3.498 -4.639,-2.815 l -10.35,3.643 c -2.111,0.745 -6.291,3.809 -6.291,7.7 v 11.012 c 0,3.933 3.084,4.077 4.637,3.56 l 15.234,-5.298 c 1.139,-0.456 1.49,-0.456 1.49,-1.325 v -3.229 c 0,-1.346 -0.89,-1.077 -1.738,-0.746 z m -13.476,-6.396 7.805,-3.063 c 0.869,-0.29 2.027,-0.352 2.027,1.035 0,0.911 -0.145,1.077 -0.641,1.284 l -9.15,3.622 c -0.869,0.352 -1.199,-0.559 -1.199,-1.49 -0.001,-0.374 0.226,-1.015 1.158,-1.388 z"
       id="path8"
       inkscape:connector-curvature="0"
       style="fill:#ffffff" />
    <path
       d="m 46.593,77.211 v 1.987 c -56.634,21.97 -47.14,41.729 -20.755,48.905 v 1.547 C -9.268,121.811 -5.625,94.985 46.593,77.211 Z M 95.885,65.564 v 1.822 c 123.039,-15.014 116.634,38.86 14.572,59.118 l -1.199,2.441 C 221.352,107.35 216.494,48.618 95.885,65.564 Z"
       id="path10"
       inkscape:connector-curvature="0" />
    <path
       d="m 105.406,79.64 -18.794,20.616 c -0.393,0.498 -0.166,0.664 0.332,0.414 l 24.342,-15.234 c 0.455,-0.29 0.539,-0.353 0.912,-0.249 0.371,0.104 9.107,6.376 9.107,6.376 0.621,0.414 0.932,0.228 0.744,-0.249 l -4.553,-9.936 c -0.248,-0.538 -0.332,-0.89 -0.084,-1.159 l 18.381,-20.037 c 0.477,-0.663 0.207,-0.994 -0.578,-0.58 l -22.77,14.158 c -0.539,0.331 -0.828,0.29 -1.16,0.083 L 102.84,68.13 c -0.891,-0.497 -1.158,-0.29 -0.91,0.663 l 3.809,9.439 c 0.247,0.518 0.103,0.911 -0.333,1.408 z"
       stroke-miterlimit="2.613"
       id="path12"
       inkscape:connector-curvature="0"
       style="stroke:#ffffff;stroke-width:0.66299999;stroke-miterlimit:2.61299992" />
  </g>
</svg>
