<?xml version="1.0" encoding="UTF-8" standalone="no"?>
<!-- Created with Inkscape (http://www.inkscape.org/) -->

<svg
   xmlns:dc="http://purl.org/dc/elements/1.1/"
   xmlns:cc="http://creativecommons.org/ns#"
   xmlns:rdf="http://www.w3.org/1999/02/22-rdf-syntax-ns#"
   xmlns:svg="http://www.w3.org/2000/svg"
   xmlns="http://www.w3.org/2000/svg"
   xmlns:sodipodi="http://sodipodi.sourceforge.net/DTD/sodipodi-0.dtd"
   xmlns:inkscape="http://www.inkscape.org/namespaces/inkscape"
   version="1.0"
   width="515.71796"
   height="227.00829"
   id="svg1354"
   sodipodi:docname="wii_label.svg"
   inkscape:version="0.92.4 5da689c313, 2019-01-14">
  <metadata
     id="metadata8">
    <rdf:RDF>
      <cc:Work
         rdf:about="">
        <dc:format>image/svg+xml</dc:format>
        <dc:type
           rdf:resource="http://purl.org/dc/dcmitype/StillImage" />
        <dc:title></dc:title>
      </cc:Work>
    </rdf:RDF>
  </metadata>
  <sodipodi:namedview
     pagecolor="#ffffff"
     bordercolor="#666666"
     borderopacity="1"
     objecttolerance="10"
     gridtolerance="10"
     guidetolerance="10"
     inkscape:pageopacity="0"
     inkscape:pageshadow="2"
     inkscape:window-width="1600"
     inkscape:window-height="900"
     id="namedview6"
     showgrid="false"
     inkscape:pagecheckerboard="true"
     inkscape:zoom="0.53033708"
     inkscape:cx="501.24819"
     inkscape:cy="-57.804476"
     inkscape:window-x="0"
     inkscape:window-y="0"
     inkscape:window-maximized="0"
     inkscape:current-layer="svg1354"
     fit-margin-top="0"
     fit-margin-left="0"
     fit-margin-right="0"
     fit-margin-bottom="0" />
  <defs
     id="defs1357" />
  <path
     d="M 77.800892,226.20199 C 67.931814,223.49225 58.311333,214.34792 54.10296,203.67705 51.281946,196.52397 41.088109,160.63685 5.357792,32.070929 L 0,12.792391 24.175738,12.650963 c 13.296663,-0.07779 24.345905,0.0444 24.553889,0.271528 0.207983,0.227129 9.259202,35.263498 20.113803,77.858603 l 19.735652,77.445646 9.380817,-35.90175 C 120.23664,47.068735 124.02036,33.320046 126.83177,27.414895 c 3.7886,-7.957627 10.40987,-13.643828 18.27211,-15.691681 4.14254,-1.078995 13.68902,-1.090509 17.79336,-0.02146 8.66438,2.256783 15.43649,8.504018 19.16479,17.679414 2.27355,5.595262 7.16641,23.608117 25.43882,93.651872 6.15547,23.59583 11.36898,43.32811 11.58555,43.84951 0.24515,0.59018 7.87484,-28.35923 20.21537,-76.703516 l 19.82159,-77.65148 24.55632,-0.0034 c 19.40941,-0.0026 24.50706,0.138931 24.32142,0.675477 -0.12917,0.373352 -5.35811,19.129198 -11.61986,41.679659 -29.92414,107.76597 -40.34134,143.95593 -43.27507,150.34016 -4.9833,10.84443 -13.3575,18.3799 -23.30498,20.97088 -4.15523,1.08232 -13.18978,1.09237 -17.30958,0.0193 -5.73732,-1.49439 -9.01903,-3.46971 -13.9412,-8.39143 -3.84444,-3.84409 -5.07157,-5.52044 -7.17163,-9.79671 -3.4333,-6.99116 -6.74268,-18.39357 -27.81887,-95.84962 -4.95766,-18.219576 -9.1507,-33.493077 -9.3179,-33.941086 -0.16718,-0.448032 -5.28272,17.36699 -11.36785,39.588906 -13.37437,48.84108 -20.41961,74.0724 -22.60887,80.96983 -4.73214,14.90899 -13.3363,24.45376 -24.680573,27.37867 -4.090921,1.05479 -13.996811,1.07358 -17.783825,0.0337 z M 332.16458,151.27202 V 77.144685 h 23.07994 23.07994 v 74.127335 74.12734 h -23.07994 -23.07994 z m 92.86281,0 V 77.144685 h 23.07994 23.07994 v 74.127335 74.12734 h -23.07994 -23.07994 z m 63.53771,66.79607 v -7.33128 h -2.71528 c -2.53427,0 -2.71529,-0.0906 -2.71529,-1.35766 v -1.35764 h 7.05975 7.05974 v 1.35764 c 0,1.26713 -0.18102,1.35766 -2.71528,1.35766 h -2.7153 v 7.33128 7.33127 h -1.62916 -1.62918 z m 9.77503,-1.35765 v -8.68893 h 2.42044 2.42043 l 1.6525,5.35498 c 0.90888,2.94527 1.65249,5.68229 1.65249,6.08225 0,1.69542 1.06092,-0.63999 2.667,-5.87089 l 1.70908,-5.56634 h 2.42796 2.42795 v 8.68893 8.68892 h -1.62917 -1.62917 l -0.0429,-6.1094 c -0.0463,-6.60494 -0.0196,-6.62041 -2.41365,1.38887 -1.42854,4.77912 -1.4311,4.78287 -3.13574,4.61598 -1.67221,-0.16367 -1.73862,-0.27994 -3.3517,-5.86908 l -1.6457,-5.70211 -0.15413,5.83788 -0.15414,5.83786 h -1.61081 -1.61079 z M 348.72783,51.564615 C 338.26797,49.445327 329.60666,40.49054 327.83028,29.958946 325.66614,17.128449 334.2217,4.2219669 347.11764,0.86300093 c 6.58133,-1.714215 15.01135,-0.823933 21.01755,2.21963297 3.59714,1.822815 9.06266,7.0540491 10.90332,10.4359381 6.32139,11.614471 2.57673,26.767562 -8.34711,33.777376 -6.05687,3.886681 -15.13796,5.651604 -21.96357,4.268667 z m 92.86281,0 C 428.04516,48.820147 418.45738,35.321344 420.64501,22.074848 422.32304,11.913914 430.0351,3.4534339 439.98046,0.86300093 c 6.57529,-1.712646 15.01154,-0.823835 21.00432,2.21293197 3.61008,1.829365 8.70403,6.691313 10.74129,10.2520691 6.54282,11.435665 2.81881,26.915252 -8.17187,33.967946 -6.05685,3.886681 -15.13795,5.651604 -21.96356,4.268667 z"
     style="fill:#999999;stroke-width:0.54305732"
     id="path1372"
     inkscape:connector-curvature="0" />
  <path
     d=""
     style="fill:#000000;stroke-width:0.76543927"
     id="path1363"
     inkscape:connector-curvature="0" />
</svg>
