<?xml version="1.0" encoding="UTF-8" standalone="no"?>
<svg
   xmlns:dc="http://purl.org/dc/elements/1.1/"
   xmlns:cc="http://creativecommons.org/ns#"
   xmlns:rdf="http://www.w3.org/1999/02/22-rdf-syntax-ns#"
   xmlns:svg="http://www.w3.org/2000/svg"
   xmlns="http://www.w3.org/2000/svg"
   xmlns:sodipodi="http://sodipodi.sourceforge.net/DTD/sodipodi-0.dtd"
   xmlns:inkscape="http://www.inkscape.org/namespaces/inkscape"
   width="434.49722"
   height="434.75641"
   version="1.1"
   id="svg27"
   sodipodi:docname="steam_image.svg"
   style="fill:#ffffff;fill-rule:evenodd;stroke:#000000;stroke-linecap:round;stroke-linejoin:round"
   inkscape:version="0.92.4 5da689c313, 2019-01-14">
  <metadata
     id="metadata31">
    <rdf:RDF>
      <cc:Work
         rdf:about="">
        <dc:format>image/svg+xml</dc:format>
        <dc:type
           rdf:resource="http://purl.org/dc/dcmitype/StillImage" />
        <dc:title></dc:title>
      </cc:Work>
    </rdf:RDF>
  </metadata>
  <sodipodi:namedview
     pagecolor="#ffffff"
     bordercolor="#666666"
     borderopacity="1"
     objecttolerance="10"
     gridtolerance="10"
     guidetolerance="10"
     inkscape:pageopacity="0"
     inkscape:pageshadow="2"
     inkscape:window-width="1600"
     inkscape:window-height="900"
     id="namedview29"
     showgrid="false"
     fit-margin-top="0"
     fit-margin-left="0"
     fit-margin-right="0"
     fit-margin-bottom="0"
     inkscape:pagecheckerboard="true"
     inkscape:zoom="0.62387385"
     inkscape:cx="-99.750744"
     inkscape:cy="148.46127"
     inkscape:window-x="0"
     inkscape:window-y="0"
     inkscape:window-maximized="0"
     inkscape:current-layer="svg27" />
  <defs
     id="defs17">
    <linearGradient
       id="A"
       x2="18.982815"
       x1="18.982815"
       y2="36.430279"
       y1="0.49973357"
       gradientTransform="scale(0.99946717,1.0005331)"
       gradientUnits="userSpaceOnUse">
      <stop
         stop-color="#111d2e"
         offset="0%"
         id="stop2" />
      <stop
         stop-color="#051839"
         offset="21.2%"
         id="stop4" />
      <stop
         stop-color="#0a1b48"
         offset="40.7%"
         id="stop6" />
      <stop
         stop-color="#132e62"
         offset="58.1%"
         id="stop8" />
      <stop
         stop-color="#144b7e"
         offset="73.8%"
         id="stop10" />
      <stop
         stop-color="#136497"
         offset="87.3%"
         id="stop12" />
      <stop
         stop-color="#1387b8"
         offset="100%"
         id="stop14" />
    </linearGradient>
  </defs>
  <g
     id="g25"
     style="fill-rule:nonzero;stroke:none"
     transform="matrix(7.0105496,0,0,7.0105496,84.298677,87.859349)">
    <path
       d="m 1.7344,23.6437 c 2.2208,7.406 9.0903,12.806 17.219,12.806 9.927,0 17.975,-8.0478 17.975,-17.975 C 36.9284,8.5475 28.8804,0.5 18.9533,0.5 9.4274,0.5 1.6326,7.9106 1.017,17.2807 c 1.165,1.9533 1.6173,3.1614 0.7162,6.363 z"
       id="path19"
       inkscape:connector-curvature="0"
       style="fill:url(#A)" />
    <path
       d="m 18.0278,13.9727 0.002,0.1 -4.3983,6.3892 c -0.7207,-0.031 -1.4394,0.0956 -2.1058,0.3716 -0.2997,0.122 -0.5794,0.2717 -0.842,0.4446 L 1.024,17.3022 c 0,0 -0.2238,3.676 0.6992,6.4172 l 6.8278,2.807 c 0.3487,1.584 1.4477,2.8984 2.9448,3.5222 2.5373,1.059 5.4622,-0.1478 6.517,-2.697 0.2712,-0.65 0.4023,-1.3498 0.3846,-2.0538 l 6.2933,-4.4972 0.1538,0.003 c 3.766,0 6.8278,-3.0708 6.8278,-6.8408 0,-3.77 -3.056,-6.8304 -6.8278,-6.8387 -3.7717,0.0083 -6.8255,3.067 -6.8277,6.8387 z M 16.972,26.92 c -0.817,1.961 -3.0707,2.891 -5.0296,2.0747 -0.904,-0.3766 -1.5864,-1.0658 -1.98,-1.898 l 2.2226,0.92 c 1.4445,0.6013 3.1017,-0.083 3.702,-1.5284 0.6003,-1.4454 -0.0805,-3.1042 -1.5244,-3.708 l -2.2976,-0.952 c 0.886,-0.3367 1.894,-0.3497 2.837,0.043 0.943,0.3927 1.692,1.1427 2.0768,2.0888 0.3996,0.95 0.3996,2 -0.006,2.947 m 7.8916,-8.391 c -2.4973,0 -4.5482,-2.0448 -4.5482,-4.5572 0,-2.5124 2.041,-4.555 4.5482,-4.555 2.5072,0 4.5502,2.0448 4.5502,4.555 0,2.5102 -2.041,4.5572 -4.5502,4.5572 M 21.456,13.9509 c 0,-1.891 1.5304,-3.4243 3.4164,-3.4243 1.886,0 3.4164,1.5334 3.4164,3.4243 0,1.8909 -1.5304,3.4224 -3.4164,3.4224 -1.886,0 -3.4164,-1.5324 -3.4164,-3.4224 z"
       id="path21"
       inkscape:connector-curvature="0" />
  </g>
</svg>
