<?xml version="1.0" encoding="UTF-8" standalone="no"?>
<!-- Created with Inkscape (http://www.inkscape.org/) -->

<svg
   xmlns:dc="http://purl.org/dc/elements/1.1/"
   xmlns:cc="http://creativecommons.org/ns#"
   xmlns:rdf="http://www.w3.org/1999/02/22-rdf-syntax-ns#"
   xmlns:svg="http://www.w3.org/2000/svg"
   xmlns="http://www.w3.org/2000/svg"
   xmlns:xlink="http://www.w3.org/1999/xlink"
   xmlns:sodipodi="http://sodipodi.sourceforge.net/DTD/sodipodi-0.dtd"
   xmlns:inkscape="http://www.inkscape.org/namespaces/inkscape"
   width="121.92mm"
   height="69.087997mm"
   viewBox="0 0 121.92 69.087997"
   version="1.1"
   id="svg8"
   inkscape:version="0.92.4 5da689c313, 2019-01-14"
   sodipodi:docname="openbor.svg">
  <defs
     id="defs2">
    <linearGradient
       inkscape:collect="always"
       id="linearGradient982">
      <stop
         style="stop-color:#e07930;stop-opacity:1"
         offset="0"
         id="stop978" />
      <stop
         style="stop-color:#e9e068;stop-opacity:1"
         offset="1"
         id="stop980" />
    </linearGradient>
    <linearGradient
       inkscape:collect="always"
       xlink:href="#linearGradient982"
       id="linearGradient984"
       x1="2.9426219"
       y1="4.8588438"
       x2="57.982456"
       y2="50.326752"
       gradientUnits="userSpaceOnUse"
       gradientTransform="matrix(0.77695285,0,0,0.77695285,13.326433,10.142131)" />
  </defs>
  <sodipodi:namedview
     id="base"
     pagecolor="#ffffff"
     bordercolor="#666666"
     borderopacity="1.0"
     inkscape:pageopacity="0.0"
     inkscape:pageshadow="2"
     inkscape:zoom="1.4"
     inkscape:cx="182.9374"
     inkscape:cy="104.02188"
     inkscape:document-units="mm"
     inkscape:current-layer="svg8"
     showgrid="false"
     inkscape:window-width="1600"
     inkscape:window-height="900"
     inkscape:window-x="0"
     inkscape:window-y="0"
     inkscape:window-maximized="1"
     fit-margin-top="0"
     fit-margin-left="0"
     fit-margin-right="0"
     fit-margin-bottom="0"
     inkscape:pagecheckerboard="true" />
  <metadata
     id="metadata5">
    <rdf:RDF>
      <cc:Work
         rdf:about="">
        <dc:format>image/svg+xml</dc:format>
        <dc:type
           rdf:resource="http://purl.org/dc/dcmitype/StillImage" />
        <dc:title />
      </cc:Work>
    </rdf:RDF>
  </metadata>
  <path
     id="path816-3"
     style="display:inline;fill:#407ac0;fill-opacity:1;fill-rule:evenodd;stroke:#626262;stroke-width:0.38847643;stroke-linecap:butt;stroke-linejoin:miter;stroke-miterlimit:12;stroke-dasharray:none;stroke-opacity:1"
     d="m 100.38416,27.244622 c 0,0 3.47824,-0.298506 3.54313,-3.140794 0.38936,-1.181042 2.21932,-1.531462 2.21932,-1.531462 -0.1168,-0.584033 -1.33678,-1.855924 -2.97207,0.285526 0,0 -1.36274,-0.804665 -1.90784,-0.194676 0,0 0.7268,2.011665 -0.88254,4.581406 z m -0.761325,5.397857 c 0.745055,0.745061 2.117125,1.693661 3.019295,1.11044 0.68533,-0.662832 0.55935,-1.179384 0.57187,-2.667601 0.0551,-0.844302 0.54845,-1.046197 1.4104,-1.563078 -1.31472,0.0095 -1.8868,0.146018 -2.34442,0.620536 -2.311704,2.397077 -2.565372,1.673757 -2.657145,2.499703 z M 71.820196,58.124189 C 71.677431,57.955468 70.5954,56.406504 69.461025,54.747134 68.267634,53.001419 66.857954,51.59666 66.857954,51.59666 l 0.631033,-0.409474 1.083702,0.68137 0.484282,-0.841374 4.543504,-6.939959 c 0,0 -0.05291,-2.281174 0.44322,-4.412575 0.496116,-2.1314 1.076453,-3.733464 1.076453,-3.733464 l 0.366007,3.722916 c 0,0 1.047255,-2.15147 3.726996,-5.326774 0,0 0.300261,-4.761399 2.30424,-9.898232 1.068256,-2.738259 2.927706,-4.832798 4.498231,-6.566741 3.853749,-4.254727 8.627862,-6.919867 8.627862,-6.919867 0,0 -5.816396,6.28361 -8.570795,11.048631 -2.499954,4.574474 -2.289206,8.504847 -2.289206,8.504847 0,0 2.478884,-1.103172 2.413993,-2.946117 0,0 2.439966,-0.480203 3.374415,-2.310171 0.340002,2.197215 0.114071,3.208051 -0.07786,3.672913 0,0 1.187532,-0.674882 1.382214,-2.258258 0,0 -0.694348,-0.843601 -0.564564,-1.739116 0.02595,-0.402334 0.454237,-1.466571 1.310822,-1.596356 l 1.687207,0.246593 c 0,0 -0.168723,-1.98571 1.103164,-2.621654 1.181046,-0.181699 3.400366,-0.05192 3.400366,-0.05192 -1.168063,0.584031 -1.827627,0.939199 -2.060192,3.31726 -0.121772,0.936868 -0.446437,1.661167 -0.826942,1.931043 -0.394614,0.214415 -2.126629,0.265056 -2.126629,0.265056 0,0 2.595808,0.860922 3.118907,0.677379 0.256961,-0.513922 0.01841,-1.691721 0.495331,-2.811147 0.476893,-1.119426 0.982775,-1.682771 1.261064,-1.961057 0.194673,-0.194678 1.13042,-1.639519 3.901931,-1.070535 -1.06989,0.201278 -2.249516,0.651724 -1.855818,1.59839 0.330948,0.785199 0.907848,2.145768 0.532308,3.452661 -0.504936,1.584424 -2.063845,2.414938 -2.471015,2.637512 0,0 1.629084,-0.253988 2.331675,-0.509041 0.70259,-0.255052 1.64484,-0.93445 1.64484,-0.93445 0,0 -0.026,2.011664 -0.6619,2.907181 0,0 -1.06424,1.28487 -2.517827,1.570397 l -0.661901,1.336785 c 0,0 0.97339,-0.661903 1.466568,-0.376376 l 0.72679,2.037622 1.16807,-0.402329 c 0,0 -1.17222,2.063099 -2.777401,3.011012 -1.605169,0.94791 -4.166091,1.479548 -4.166091,1.479548 -0.02595,0.947429 -0.564371,1.372948 -0.564371,1.372948 -0.348735,0.495569 -5.780103,2.663043 -6.642762,3.305445 0,0 0.03931,2.915772 0.406401,4.54931 l 3.283565,0.934452 c 0,0 -3.685896,0.739774 -8.656653,4.555449 l -2.855271,2.271234 c 0,1.414657 2.193369,1.816608 2.193369,1.816608 0,0 -1.808575,0.148879 -2.933144,0.0523 -1.12457,-0.09659 -1.791032,-0.285528 -1.946772,-1.025302 -1.713166,0.129784 -2.759317,-0.872214 -2.759317,-0.872214 0,0 1.095014,-0.09114 1.738875,-0.214718 0.643868,-0.123576 1.399315,-0.398261 1.399315,-0.398261 l -1.045499,-1.253266 1.938521,-0.103829 c 0,0 1.515105,-1.204906 2.630584,-2.501565 1.115479,-1.296657 1.933113,-2.942067 1.933113,-2.942067 l -1.615363,-1.919241 c 0,0 -0.24394,0.260692 -0.358937,0.735837 -0.115004,0.475143 -0.10199,0.827608 -0.10199,0.827608 l -1.137646,0.08889 c 0,0 -2.894879,1.787881 -4.33239,2.697635 -1.025267,0.648858 -2.189127,1.556432 -2.078986,3.116727 0.266161,1.734662 1.801715,3.402908 1.801715,3.402908 0,0 -1.081588,-0.358327 -1.916486,-1.093848 -0.834898,-0.735523 -1.293518,-1.405334 -1.293518,-1.405334 l -0.384584,0.06206 z M 75.875937,43.89391 c 1.102581,-1.139492 1.293051,-1.299252 1.570703,-1.810995 0.532562,-0.981585 0.386161,-1.119377 0.725534,-1.712495 0.339373,-0.593117 1.035655,-1.285726 1.035655,-1.285726 0,0 -1.371089,0.715484 -3.048211,2.904143 -0.537271,0.147384 -1.022051,0.280383 -1.30675,0.331411 0.784529,0.294408 1.207836,0.199581 1.023069,1.573662 z"
     inkscape:connector-curvature="0"
     inkscape:label="dragon" />
  <path
     style="display:inline;fill:url(#linearGradient984);fill-opacity:1;stroke:#c27b11;stroke-width:0.38847643;stroke-miterlimit:12;stroke-dasharray:none;stroke-opacity:1"
     d="m 48.923414,51.056134 c 1.904136,0.470307 6.069696,0.835678 6.163235,-0.938757 0.134594,-0.701594 -2.486755,-2.46457 -5.665576,-3.06005 -3.148331,-0.589769 -6.878409,0.325269 -8.312962,0.531019 -7.107693,1.064209 -9.398257,1.41008 -10.126405,-1.341132 -1.145352,0.202294 -2.423927,0.422956 -3.327261,0.48915 -2.466576,0.180744 -3.701897,0.102776 -4.361624,-1.271945 -0.624597,-1.301518 -0.423767,-4.575212 0.231217,-5.95985 0.302084,-0.290817 1.935608,1.975981 2.24476,2.394995 1.43418,2.03457 2.777052,2.454427 3.979274,2.671369 -2.062088,-1.977749 -1.857569,-3.680839 -2.052116,-7.630299 -0.303183,-6.154862 -0.346523,-6.708761 -1.981947,-7.586268 -1.282823,-0.688315 -2.523893,-1.944086 -2.324219,-2.11856 1.211326,-0.257445 3.446478,-1.548244 4.292943,-0.823088 2.465786,2.191874 1.954621,10.524403 3.902284,10.157835 l 2.258177,-0.425009 C 32.647543,34.00755 30.333586,36.330253 29.969811,33.356597 29.416166,28.83086 30.900189,27.195888 27.991557,23.25311 25.45156,19.264321 24.879182,18.034487 25.411293,16.760968 c 0.161118,-0.385609 0.364077,-0.700727 0.451021,-0.700262 1.142996,0.767194 2.523138,1.653495 3.847916,2.181962 4.547701,1.541163 5.123454,4.270907 6.662059,7.81372 0.70849,1.543035 1.443875,1.831788 2.296177,3.292026 -0.473522,-2.295415 -0.464965,-4.729053 0.407168,-6.925695 0.440074,-1.065714 0.863501,-1.401132 1.545622,-1.236487 1.155656,0.278943 1.685842,2.00471 2.645304,2.133007 0.845217,0.07612 1.267968,-0.860857 1.480287,-1.033516 0.212318,-0.172659 0.54369,0.2855 0.606954,0.558049 0.176973,0.685352 0.04272,1.31741 -0.210787,1.915617 -0.630593,1.488042 -3.422086,2.342642 -2.403075,4.210993 1.019011,1.128578 2.118157,0.379647 3.259415,-0.165188 1.419701,-0.677764 2.188005,-1.334807 4.199322,0.248524 -1.190147,-1.63532 -1.784742,-3.120387 -1.250787,-4.760727 0.413608,-1.270626 1.955227,-3.56354 2.820908,-3.145913 0.620114,0.397563 0.299078,0.866751 0.08419,1.258702 -0.319356,0.58013 -0.147265,1.387632 0.283633,2.14364 1.670325,2.887585 4.546372,7.54359 3.752411,9.115389 1.730981,0.273516 3.44897,2.302272 3.228903,4.188643 -0.195012,1.671607 -2.473822,4.136419 -1.781033,4.724258 0.821271,0.602355 3.099808,1.667945 3.006726,2.892403 -0.148915,1.958923 -0.131275,3.067675 2.624642,3.931338 -0.35341,0.383907 -0.839733,1.886654 -2.969148,3.173457 -2.129415,1.286802 -4.552158,2.033195 -4.781032,2.319042 -0.589005,1.301149 -0.624498,1.840389 -1.56684,1.795629 -2.041188,-0.393477 -4.944038,-5.547585 -4.727833,-5.633445 z M 21.284089,38.94731 c -1.463908,-0.740072 -2.557011,-2.666202 -3.171847,-5.58903 -0.28192,-1.3402 -0.716361,-6.457306 -0.562068,-6.620354 0.171719,-0.181461 0.954488,1.002709 1.877412,2.840137 1.310974,2.609996 1.26815,2.573945 2.441183,2.055056 0.815654,-0.360804 1.061499,-0.39033 1.687734,-0.202705 1.00297,0.300497 1.605503,0.814371 2.454345,2.093208 0.913267,1.375895 1.48964,3.039894 1.48964,4.300621 v 0.981258 l -1.010961,-0.134108 c -0.556029,-0.07376 -1.466287,-0.30717 -2.022797,-0.51869 -1.453429,-0.552423 -1.64879,-0.511324 -1.923207,0.404604 -0.130079,0.434161 -0.289053,0.789316 -0.353278,0.789228 C 22.126025,39.34645 21.71825,39.1668 21.284089,38.94731 Z M 22.96153,24.342046 c -1.122833,-0.195788 -1.942539,-0.73815 -2.363898,-1.564083 -0.267163,-0.52368 -0.943866,-1.174636 -2.098576,-2.01873 -2.544985,-1.860384 -2.884745,-2.180591 -2.733086,-2.575806 0.0723,-0.188424 0.701327,-0.623132 1.397824,-0.966017 1.198011,-0.589779 1.351367,-0.616872 2.841337,-0.501974 0.866238,0.0668 1.574977,0.0524 1.574977,-0.032 0,-0.0844 0.115958,-0.312032 0.257683,-0.505853 0.237642,-0.324993 0.313155,-0.329227 0.970846,-0.05442 0.392239,0.163888 0.812879,0.484301 0.934755,0.712028 0.121875,0.227728 0.240031,1.382722 0.262567,2.566654 0.03763,1.977333 0.07993,2.194042 0.519403,2.66152 0.263135,0.279904 0.646398,0.508916 0.851694,0.508916 0.540804,0 1.136702,0.36335 1.136702,0.693105 0,0.690647 -2.105739,1.328886 -3.552228,1.07666 z m 13.664037,-0.887605 c -0.788079,-1.063717 -1.152906,-1.876927 -1.616213,-3.602555 -0.160148,-0.59649 -0.60903,-1.250545 -1.5237,-2.220143 -0.757279,-0.802754 -1.170809,-1.374536 -0.994106,-1.374536 0.166409,0 0.968839,0.127479 1.783175,0.283288 3.080233,0.589345 4.671836,1.727851 4.671836,3.341859 0,0.694066 -0.107796,0.944615 -0.592038,1.376077 -0.473778,0.422138 -0.595324,0.694741 -0.608487,1.364707 -0.0216,1.099619 -0.09217,1.702311 -0.213545,1.823685 -0.05423,0.05424 -0.462357,-0.39233 -0.906922,-0.992382 z"
     id="path863"
     inkscape:connector-curvature="0"
     sodipodi:nodetypes="ccsccsscccssccscscscccccscscscscsccccscscscccsscsccssccsccsssssssscssssssssssssscscs"
     inkscape:label="flame" />
</svg>
