<?xml version="1.0" encoding="UTF-8" standalone="no"?>
<!-- Generator: Adobe Illustrator 18.0.0, SVG Export Plug-In . SVG Version: 6.00 Build 0)  -->

<svg
   xmlns:dc="http://purl.org/dc/elements/1.1/"
   xmlns:cc="http://creativecommons.org/ns#"
   xmlns:rdf="http://www.w3.org/1999/02/22-rdf-syntax-ns#"
   xmlns:svg="http://www.w3.org/2000/svg"
   xmlns="http://www.w3.org/2000/svg"
   xmlns:sodipodi="http://sodipodi.sourceforge.net/DTD/sodipodi-0.dtd"
   xmlns:inkscape="http://www.inkscape.org/namespaces/inkscape"
   version="1.1"
   id="svg2"
   x="0px"
   y="0px"
   viewBox="0.9 -0.2 485.16298 81.303358"
   enable-background="new 0.9 -0.2 1186.1 199"
   xml:space="preserve"
   sodipodi:docname="gb_label.svg"
   width="485.16296"
   height="81.30336"
   inkscape:version="0.92.4 5da689c313, 2019-01-14"><metadata
   id="metadata39"><rdf:RDF><cc:Work
       rdf:about=""><dc:format>image/svg+xml</dc:format><dc:type
         rdf:resource="http://purl.org/dc/dcmitype/StillImage" /><dc:title></dc:title></cc:Work></rdf:RDF></metadata><defs
   id="defs37" /><sodipodi:namedview
   pagecolor="#ffffff"
   bordercolor="#666666"
   borderopacity="1"
   objecttolerance="10"
   gridtolerance="10"
   guidetolerance="10"
   inkscape:pageopacity="0"
   inkscape:pageshadow="2"
   inkscape:window-width="1600"
   inkscape:window-height="900"
   id="namedview35"
   showgrid="false"
   inkscape:pagecheckerboard="true"
   fit-margin-top="0"
   fit-margin-left="0"
   fit-margin-right="0"
   fit-margin-bottom="0"
   inkscape:zoom="0.6605466"
   inkscape:cx="526.10956"
   inkscape:cy="-71.620563"
   inkscape:window-x="0"
   inkscape:window-y="0"
   inkscape:window-maximized="0"
   inkscape:current-layer="svg2" />















<g
   id="g38"
   inkscape:label="logo"
   transform="matrix(0.40904134,0,0,0.40904134,0.53186278,-0.11818959)"><polyline
     transform="translate(-0.00239074,-0.13506056)"
     id="polyline2"
     points="1174.2,20.4 1174.2,27.6 1158.2,37.5 1174.2,37.5 1174.2,44.6 1151.3,44.6 1151.3,37.5 1167.3,27.5 1151.3,27.5   1151.3,20.4 1174.2,20.4 " /><polyline
     transform="translate(-0.00239074,-0.13506056)"
     id="polyline4"
     points="1171.9,83.1 1171.9,90 1168.7,90 1168.7,93.8 1166.5,93.8 1166.5,90 1151.3,90 1151.3,83.1 1166.5,83.1   1166.5,79.4 1168.7,79.4 1168.7,83.1 1171.9,83.1 " /><rect
     id="rect6"
     height="6.9000001"
     width="15.2"
     y="48.364941"
     x="1151.2976" /><rect
     id="rect8"
     height="6.9000001"
     width="4.6999998"
     y="48.364941"
     x="1169.4976" /><path
     inkscape:connector-curvature="0"
     id="path10"
     d="m 1167.5976,169.36493 c 0,-5.6 -3.8,-10.1 -8.6,-10.1 -4.7,0 -8.6,4.5 -8.6,10.1 0,5.6 3.9,10.1 8.6,10.1 4.7,-0.1 8.6,-4.6 8.6,-10.1 m -8.6,2.7 c 0,0 -2.3,0 -3.2,0 -2.4,0 -3.4,-1.4 -3.4,-2.8 0,-1.4 1,-2.8 3.4,-2.8 0.9,0 3.3,0 3.3,0 0,0 2.3,0 3.2,0 2.4,0 3.4,1.4 3.4,2.8 0,1.4 -1,2.8 -3.4,2.8 -1,0 -2.7,0 -3.3,0 z" /><path
     inkscape:connector-curvature="0"
     id="path12"
     d="m 1158.9976,150.26493 c 0,0 1.9,0 2.7,0 2.4,0 3,-1.59999 3,-2.69999 0,-1.1 -0.6,-2.7 -3,-2.7 -0.8,0 -2.7,0 -2.7,0 0,0 -1.9,0 -2.7,0 -2.4,0 -3,1.6 -3,2.7 0,1.1 0.6,2.69999 3,2.69999 0.9,0 2.7,0 2.7,0 m 15.2,-0.1 v 6.8 h -22.9 v -6.9 c 0,0 0.7,0 0.9,0 -1.7,-2.6 -1.7,-5.6 -0.6,-8 0.3,-0.6 2.2,-4.7 7.6,-4.7 4,0 8.4,3.8 8,8.8 -0.2,1.6 -0.8,2.8 -1.4,3.9 3.5,0.1 8.4,0.1 8.4,0.1 z" /><path
     inkscape:connector-curvature="0"
     id="path14"
     d="m 1167.1976,71.464939 c 0.1,2.6 -1.6,7.8 -7.7,7.8 -1.1,0 -8.3,0 -8.3,0 v -6.9 c 0,0 9.1,0 10,0 1.3,0 2.8,-1.3 2.8,-3.2 0,-1.9 -1.4,-3.3 -2.8,-3.3 -0.7,0 -10,0 -10,0 v -6.9 h 15.2 v 6.9 c 0,0 -1.2,0 -1.6,0 1.4,1.4 2.4,3.3 2.4,5.6" /><path
     inkscape:connector-curvature="0"
     id="path16"
     d="m 1167.1976,127.56494 c 0.1,2.6 -1.6,7.8 -7.7,7.8 -1.1,0 -8.3,0 -8.3,0 v -6.9 c 0,0 9.1,0 10,0 1.3,0 2.8,-1.3 2.8,-3.1 0,-1.9 -1.4,-3.3 -2.8,-3.3 -0.7,0 -10,0 -10,0 v -6.8 h 15.2 v 6.8 c 0,0 -1.2,0 -1.6,0 1.4,1.3 2.4,3.2 2.4,5.5" /><path
     inkscape:connector-curvature="0"
     id="path18"
     d="m 1156.5976,105.76494 c 0,0 -0.1,0 -0.9,0 -2.8,0 -3.4,-1.8 -3.4,-2.9 0,-1 0.6,-2.900001 3.4,-2.900001 0.8,0 3.1,0 3.1,0 0,0 0,12.999991 0,12.999991 4.7,0 8.6,-4.59999 8.6,-10.2 0,-5.599991 -3.8,-10.199991 -8.6,-10.199991 -4.8,0 -8.6,4.6 -8.6,10.199991 0,4.7 2.6,8.6 6.2,9.8 v -6.8 m 4.8,-5.7 c 1.3,0 2.2,0 3,0.5 0.9,0.5 1.4,1.5 1.4,2.4 0,0.90001 -0.4,1.90001 -1.4,2.40001 -0.8,0.4 -1.7,0.4 -3,0.4 z" /><path
     inkscape:connector-curvature="0"
     id="path20"
     d="m 1170.7976,179.86493 v 0.5 c 0,0.5 0.2,0.80001 0.6,0.80001 0.4,0 0.6,-0.30001 0.6,-0.90001 v -0.4 h -1.2 m -0.3,3.4 c -1.6,0 -2.9,-1.3 -2.9,-2.9 0,-1.6 1.3,-2.9 2.9,-2.9 1.6,0 2.8,1.3 2.8,2.9 0,1.6 -1.2,2.9 -2.8,2.9 z m 3.5,-2.9 c 0,-1.9 -1.6,-3.5 -3.5,-3.5 -2,0 -3.5,1.6 -3.5,3.5 0,2 1.6,3.5 3.5,3.5 1.9,0.1 3.5,-1.5 3.5,-3.5 z m -1.5,0.1 c 0,1.1 -0.4,1.7 -1.1,1.7 -0.5,0 -0.9,-0.3 -1.1,-0.9 l -1.7,0.9 v -1 l 1.6,-0.7 v -0.6 h -1.6 v -0.9 h 3.9 z" /><path
     inkscape:connector-curvature="0"
     id="path22"
     d="M 1144.2976,174.26493 V 24.964939 c 0,-10.2 8.3,-18.3999996 18.4,-18.3999996 10.1,0 18.4,8.2999996 18.4,18.3999996 V 174.26493 c 0,10.2 -8.3,18.5 -18.4,18.5 -10.2,0 -18.4,-8.3 -18.4,-18.5 m 42.7,0 V 24.964939 c 0,-13.4 -10.9,-24.29999956 -24.3,-24.29999956 -13.4,0 -24.3,10.79999956 -24.3,24.29999956 V 174.26493 c 0,13.5 10.9,24.30001 24.3,24.30001 13.4,0.1 24.3,-10.80001 24.3,-24.30001 z" /><path
     inkscape:connector-curvature="0"
     id="path24"
     d="m 215.69761,100.46494 16.4,-36.600001 7.2,36.600001 h -23.6 m 232.1,-95.7000006 -44.5,103.5000006 -19.7,-103.5000006 h -38.3 l -54.5,152.5000006 -25.5,-152.5000006 h -47.8 l -72.4,164.4000006 10.8,-68.7 H 83.997609 l -5.7,35.4 h 30.200001 l -3.5,18.9 c -17.200001,7.1 -46.400001,4.4 -58.900001,-18 -7.9,-14.2 -15.3,-45.800001 18,-74.900001 27.2,-23.7 74.200001,-28 101.300001,-15.6 0,0 3.4,-19.9 6,-38.2999996 -52.1,-18.0000004 -92.600001,-3 -119.700001,13.7999996 -37.1,22.7 -54.8999997,57.6 -49.9999997,105.000001 5.5,54.9 76.5999997,89.6 136.9000007,54.6 0.7,-0.3 1,-0.6 1.6,-0.7 l -5.8,12.8 h 40.5 l 25.5,-56.5 h 44.8 l 9.8,56.5 h 66 l 33.6,-105.500001 27.6,105.500001 h 25.8 l 44.3,-116.800001 17.5,117.500001 h 38.7 l -14.1,-189.4000006 z" /><polyline
     transform="translate(-0.00239074,-0.13506056)"
     id="polyline26"
     points="508.5,194.4 616.6,194.4 623.1,154 555.5,154 560.8,120.3 619.7,120.3 626.1,79.8 566.7,79.8 571.8,46.3   639.5,46.3 645.9,5.8 538.6,5.8 508.5,194.4 " /><polyline
     transform="translate(-0.00239074,-0.13506056)"
     id="polyline28"
     points="1043.8,65.1 1019.6,3.6 975.2,3.6 1021,103.1 1006.8,192.2 1045.7,192.2 1057.5,113.4 1127.4,3.6 1082,3.6   1043.8,65.1 " /><path
     inkscape:connector-curvature="0"
     id="path30"
     d="m 952.39761,117.36494 c -10.4,31.2 -35.6,49.39999 -56.1,40.1 -20.4,-9.1 -28.7,-42 -18.2,-73.400001 10.5,-31.5 35.6,-49.3 56,-40.2 20.5,9.2 28.8,42.1 18.3,73.500001 m -15.1,-110.9000006 c -43,-9.9 -87.7,24.2999996 -99.8,76.3999996 -11.9,52.200001 13.1,102.499991 56,112.499991 43,9.80001 87.6,-24.4 99.8,-76.49999 11.89999,-52.200001 -13.2,-102.500001 -56,-112.4000006 z" /><path
     inkscape:connector-curvature="0"
     id="path32"
     d="m 761.29761,81.864939 c -21.3,0 -26.8,0 -26.8,0 l 5.9,-35 c 0,0 0.8,0 25.2,0 27.4,0 21.8,35 -4.3,35 m -4.7,76.199991 c -21.4,0 -34.2,0 -34.2,0 l 6,-37.6 c 0,0 8.1,0 32.4,0 30.9,0 30,37.6 -4.2,37.6 z m 22.7,-151.0999906 c -20.9,-0.3 -72.6,0 -72.6,0 h 0.4 l -30,187.2999906 c 0,0 62.1,0 87.3,0 36,0 88.5,-52.9 40.6,-96.099991 49,-50.9 0.4,-90.5999996 -25.7,-91.1999996 z" /></g>
</svg>