<?xml version="1.0" encoding="UTF-8" standalone="no"?>
<svg
   xmlns:dc="http://purl.org/dc/elements/1.1/"
   xmlns:cc="http://creativecommons.org/ns#"
   xmlns:rdf="http://www.w3.org/1999/02/22-rdf-syntax-ns#"
   xmlns:svg="http://www.w3.org/2000/svg"
   xmlns="http://www.w3.org/2000/svg"
   xmlns:sodipodi="http://sodipodi.sourceforge.net/DTD/sodipodi-0.dtd"
   xmlns:inkscape="http://www.inkscape.org/namespaces/inkscape"
   version="1.1"
   id="svg71"
   x="0px"
   y="0px"
   viewBox="0 0 498.21899 126.2767"
   xml:space="preserve"
   sodipodi:docname="snes_label.svg"
   inkscape:version="0.92.4 5da689c313, 2019-01-14"
   width="498.21899"
   height="126.2767"><metadata
   id="metadata77"><rdf:RDF><cc:Work
       rdf:about=""><dc:format>image/svg+xml</dc:format><dc:type
         rdf:resource="http://purl.org/dc/dcmitype/StillImage" /><dc:title></dc:title></cc:Work></rdf:RDF></metadata><defs
   id="defs75" /><sodipodi:namedview
   pagecolor="#ffffff"
   bordercolor="#666666"
   borderopacity="1"
   objecttolerance="10"
   gridtolerance="10"
   guidetolerance="10"
   inkscape:pageopacity="0"
   inkscape:pageshadow="2"
   inkscape:window-width="1600"
   inkscape:window-height="900"
   id="namedview73"
   showgrid="false"
   inkscape:pagecheckerboard="true"
   inkscape:zoom="1.119249"
   inkscape:cx="294.6003"
   inkscape:cy="44.033797"
   inkscape:window-x="0"
   inkscape:window-y="0"
   inkscape:window-maximized="0"
   inkscape:current-layer="svg71"
   fit-margin-top="0"
   fit-margin-left="0"
   fit-margin-right="0"
   fit-margin-bottom="0" />
<style
   type="text/css"
   id="style2">
	.st0{fill:#FC0C18;}
	.st1{fill:#FC0C18;}
</style>
<g
   id="Layer_1"
   style="display:inline"
   transform="matrix(0.76531334,0,0,0.76531334,-18.750177,-13.392983)">
	<g
   id="g68"
   style="display:inline">
		<g
   id="g60"
   style="display:inline">
			<g
   id="g30">
				<path
   class="st0"
   d="m 50.4,45.6 c -0.3,1.8 -0.2,3.7 0.2,5.7 0.5,2 1.1,3.8 1.7,5.4 0.8,1.9 1.8,3.8 2.9,5.7 L 67,85 c 0.7,1.4 1.3,2.9 1.7,4.5 0.4,1.4 0.7,3.1 0.9,5 0.2,1.9 0.1,4 -0.3,6.3 L 67,114 c -0.7,3 -1.9,5.7 -3.5,8 -0.7,1 -1.5,2 -2.5,2.9 -1,1 -2.1,1.8 -3.5,2.6 -1.3,0.8 -2.8,1.4 -4.5,1.8 -1.7,0.5 -3.6,0.7 -5.7,0.7 h -8.4 c -2.1,0 -3.9,-0.2 -5.4,-0.7 -1.5,-0.5 -2.8,-1.1 -3.9,-1.8 -1.1,-0.7 -1.9,-1.6 -2.6,-2.6 -0.7,-1 -1.1,-1.9 -1.5,-2.9 -0.8,-2.3 -1,-5 -0.7,-8 L 29.1,89.5 H 42.6 L 38.3,114 c -0.1,0.6 0,1.2 0.1,1.7 0.2,0.4 0.4,0.8 0.8,1.2 0.4,0.4 1,0.5 1.8,0.5 h 8.4 c 0.8,0 1.5,-0.2 2,-0.5 0.5,-0.4 0.9,-0.7 1.2,-1.2 0.3,-0.5 0.6,-1.1 0.7,-1.7 l 2.1,-12.1 c 0.3,-1.8 0.2,-3.7 -0.2,-5.7 -0.5,-2 -1.1,-3.8 -1.7,-5.4 C 52.7,88.9 51.7,87 50.6,85.1 L 39,62.5 C 38.3,61.1 37.7,59.6 37.3,58 36.9,56.6 36.6,54.9 36.4,53 36.2,51.1 36.3,49 36.7,46.7 L 39,33.5 c 0.7,-3 1.9,-5.7 3.5,-8 0.7,-1 1.5,-2 2.5,-2.9 1,-1 2.1,-1.8 3.5,-2.6 1.3,-0.7 2.8,-1.4 4.5,-1.8 1.7,-0.5 3.6,-0.7 5.7,-0.7 h 8.4 c 2.1,0 3.9,0.2 5.4,0.7 1.5,0.5 2.8,1.1 3.9,1.8 1.1,0.8 1.9,1.6 2.6,2.6 0.6,1 1.1,1.9 1.5,2.9 0.8,2.3 1,5 0.7,8 L 76.9,58 H 63.4 l 4.3,-24.5 c 0.1,-0.6 0,-1.2 -0.1,-1.7 -0.2,-0.4 -0.4,-0.8 -0.8,-1.2 -0.4,-0.4 -1,-0.5 -1.8,-0.5 h -8.4 c -0.8,0 -1.5,0.2 -2,0.5 -0.5,0.4 -0.9,0.7 -1.2,1.2 -0.3,0.5 -0.6,1.1 -0.7,1.7 z"
   id="path4"
   inkscape:connector-curvature="0"
   style="fill:#fc0c18" />
				<path
   class="st0"
   d="m 93,17.5 h 13.5 l -17,96.5 c -0.1,0.6 0,1.2 0.1,1.7 0.2,0.4 0.4,0.8 0.8,1.2 0.4,0.4 1,0.5 1.8,0.5 h 8.4 c 0.8,0 1.5,-0.2 2,-0.5 0.5,-0.4 0.9,-0.7 1.2,-1.2 0.3,-0.5 0.6,-1.1 0.7,-1.7 l 17,-96.5 H 135 L 118,114 c -0.7,3 -1.9,5.7 -3.5,8 -0.7,1 -1.5,2 -2.5,2.9 -1,1 -2.1,1.8 -3.5,2.6 -1.3,0.8 -2.8,1.4 -4.5,1.8 -1.7,0.5 -3.6,0.7 -5.7,0.7 h -8.4 c -2.1,0 -3.9,-0.2 -5.4,-0.7 -1.5,-0.5 -2.8,-1.1 -3.9,-1.8 -1.1,-0.7 -1.9,-1.6 -2.6,-2.6 -0.7,-1 -1.1,-1.9 -1.5,-2.9 -0.8,-2.3 -1,-5 -0.7,-8 z"
   id="path6"
   inkscape:connector-curvature="0"
   style="fill:#fc0c18" />
				<path
   class="st0"
   d="m 144.2,17.5 h 25.3 c 2.1,0 3.9,0.2 5.4,0.7 1.5,0.5 2.8,1.1 3.9,1.8 1.1,0.8 1.9,1.6 2.6,2.6 0.6,1 1.1,1.9 1.5,2.9 0.8,2.3 1,5 0.7,8 L 178,65 c -0.7,3 -1.9,5.7 -3.5,8 -0.7,1 -1.5,2 -2.5,2.9 -1,1 -2.1,1.8 -3.5,2.6 -1.3,0.8 -2.8,1.4 -4.5,1.8 -1.7,0.5 -3.6,0.7 -5.7,0.7 h -11.8 l 2.2,-12.7 h 11.8 c 0.8,0 1.5,-0.2 2,-0.5 0.5,-0.4 0.9,-0.7 1.2,-1.2 0.3,-0.5 0.6,-1.1 0.7,-1.7 L 170,33.4 c 0.1,-0.6 0,-1.2 -0.1,-1.7 -0.2,-0.4 -0.4,-0.8 -0.8,-1.2 -0.4,-0.4 -1,-0.5 -1.8,-0.5 h -11.8 l -17.6,100 h -13.5 z"
   id="path8"
   inkscape:connector-curvature="0"
   style="fill:#fc0c18" />
				<path
   class="st0"
   d="m 199.9,68.4 h 16.9 l -2.2,12.7 h -16.9 l -6.4,36.3 h 16.9 L 206,130.1 H 175.6 L 195.4,17.6 h 30.4 l -2.2,12.7 h -16.9 z"
   id="path10"
   inkscape:connector-curvature="0"
   style="fill:#fc0c18" />
				<path
   class="st0"
   d="m 234.8,17.5 h 25.3 c 2.1,0 3.9,0.2 5.4,0.7 1.5,0.5 2.8,1.1 3.9,1.8 1.1,0.8 1.9,1.6 2.6,2.6 0.6,1 1.1,1.9 1.5,2.9 0.8,2.3 1,5 0.7,8 L 268.6,65 c -0.4,2.1 -1.2,3.9 -2.6,5.5 -1.4,1.6 -3,3 -4.8,4.2 1.4,1.2 2.5,2.6 3.3,4.2 0.8,1.6 1,3.4 0.7,5.5 l -8,45.6 h -13.5 l 8,-45.6 c 0.1,-0.6 0,-1.2 -0.1,-1.7 -0.2,-0.4 -0.4,-0.8 -0.8,-1.2 -0.4,-0.4 -1,-0.5 -1.8,-0.5 h -11.8 l -8.6,48.9 h -13.5 z m 4.5,50.9 h 9 2.8 c 0.8,0 1.5,-0.2 2,-0.5 0.5,-0.4 0.9,-0.7 1.2,-1.2 0.3,-0.5 0.6,-1.1 0.7,-1.7 l 5.6,-31.5 c 0.1,-0.6 0,-1.2 -0.1,-1.7 -0.2,-0.4 -0.4,-0.8 -0.8,-1.2 -0.4,-0.4 -1,-0.5 -1.8,-0.5 H 246 Z"
   id="path12"
   inkscape:connector-curvature="0"
   style="fill:#fc0c18" />
				<path
   class="st0"
   d="M 294.2,130 314,17.5 h 13.5 L 307.7,130 Z m 25.4,-67.5 7.9,-45 7.2,67.5 -7.9,45 z m 7.3,67.5 19.8,-112.5 h 13.5 L 340.4,130 Z"
   id="path14"
   inkscape:connector-curvature="0"
   style="fill:#fc0c18" />
				<path
   class="st0"
   d="m 369.2,17.5 h 13.5 L 362.9,130 h -13.5 z"
   id="path16"
   inkscape:connector-curvature="0"
   style="fill:#fc0c18" />
				<path
   class="st0"
   d="M 371.9,130 391.7,17.5 h 13.5 L 385.4,130 Z m 25.4,-67.5 7.9,-45 7.2,67.5 -7.9,45 z m 7.2,67.5 19.8,-112.5 h 13.5 L 418,130 Z"
   id="path18"
   inkscape:connector-curvature="0"
   style="fill:#fc0c18" />
				<path
   class="st0"
   d="M 446.8,17.5 H 480 l -2.2,12.7 h -9 L 451.2,130 H 436 l 17.6,-99.8 h -9 z"
   id="path20"
   inkscape:connector-curvature="0"
   style="fill:#fc0c18" />
				<path
   class="st0"
   d="m 493.5,68.4 h 16.9 l -2.2,12.7 h -16.9 l -6.4,36.3 h 16.9 l -2.2,12.7 H 469.2 L 489,17.5 h 30.4 l -2.2,12.7 h -16.9 z"
   id="path22"
   inkscape:connector-curvature="0"
   style="fill:#fc0c18" />
				<path
   class="st0"
   d="M 508.6,130 528.4,17.5 h 13.5 L 522.1,130 Z m 25.4,-67.5 7.9,-45 7.2,67.5 -7.9,45 z M 541.2,130 561,17.5 h 13.5 L 554.7,130 Z"
   id="path24"
   inkscape:connector-curvature="0"
   style="fill:#fc0c18" />
				<path
   class="st0"
   d="M 583.5,17.5 H 610 c 2.1,0 3.9,0.2 5.4,0.7 1.5,0.5 2.8,1.1 3.9,1.8 1.1,0.8 1.9,1.6 2.6,2.6 0.6,1 1.1,1.9 1.5,2.9 0.8,2.3 1,5 0.7,8 L 609.8,114 c -0.7,3 -1.9,5.7 -3.5,8 -0.7,1 -1.5,2 -2.5,2.9 -1,1 -2.1,1.8 -3.5,2.6 -1.3,0.8 -2.8,1.4 -4.5,1.8 -1.7,0.5 -3.6,0.7 -5.7,0.7 h -26.4 z m -4.1,99.8 h 12.9 c 0.8,0 1.5,-0.2 2,-0.5 0.5,-0.4 0.9,-0.7 1.2,-1.2 0.3,-0.5 0.6,-1.1 0.7,-1.7 l 14.2,-80.4 c 0.1,-0.6 0,-1.2 -0.1,-1.7 -0.2,-0.4 -0.4,-0.8 -0.8,-1.2 -0.4,-0.4 -1,-0.5 -1.8,-0.5 h -12.9 z"
   id="path26"
   inkscape:connector-curvature="0"
   style="fill:#fc0c18" />
				<path
   class="st0"
   d="m 633,33.5 c 0.7,-3 1.9,-5.7 3.5,-8 0.7,-1 1.5,-2 2.5,-2.9 1,-1 2.1,-1.8 3.5,-2.6 1.3,-0.7 2.8,-1.4 4.5,-1.8 1.7,-0.5 3.6,-0.7 5.7,-0.7 h 8.4 c 2.1,0 3.9,0.2 5.4,0.7 1.5,0.5 2.8,1.1 3.9,1.8 1.1,0.8 1.9,1.6 2.6,2.6 0.6,1 1.1,1.9 1.5,2.9 0.8,2.3 1,5 0.7,8 L 661,114 c -0.7,3 -1.9,5.7 -3.5,8 -0.7,1 -1.5,2 -2.5,2.9 -1,1 -2.1,1.8 -3.5,2.6 -1.3,0.8 -2.8,1.4 -4.5,1.8 -1.7,0.5 -3.6,0.7 -5.7,0.7 h -8.4 c -2.1,0 -3.9,-0.2 -5.4,-0.7 -1.5,-0.5 -2.8,-1.1 -3.9,-1.8 -1.1,-0.7 -1.9,-1.6 -2.6,-2.6 -0.7,-1 -1.1,-1.9 -1.5,-2.9 -0.8,-2.3 -1,-5 -0.7,-8 z m -0.7,80.5 c -0.1,0.6 0,1.2 0.1,1.7 0.2,0.4 0.4,0.8 0.8,1.2 0.4,0.4 1,0.5 1.8,0.5 h 8.4 c 0.8,0 1.5,-0.2 2,-0.5 0.5,-0.4 0.9,-0.7 1.2,-1.2 0.3,-0.5 0.6,-1.1 0.7,-1.7 l 14.2,-80.4 c 0.1,-0.6 0,-1.2 -0.1,-1.7 -0.2,-0.4 -0.4,-0.8 -0.8,-1.2 -0.4,-0.4 -1,-0.5 -1.8,-0.5 h -8.4 c -0.8,0 -1.5,0.2 -2,0.5 -0.5,0.4 -0.9,0.7 -1.2,1.2 -0.3,0.5 -0.6,1.1 -0.7,1.7 z"
   id="path28"
   inkscape:connector-curvature="0"
   style="fill:#fc0c18" />
			</g>
			<g
   id="g58">
				<path
   class="st1"
   d="m 50.4,45.6 c -0.3,1.8 -0.2,3.7 0.2,5.7 0.5,2 1.1,3.8 1.7,5.4 0.8,1.9 1.8,3.8 2.9,5.7 L 67,85 c 0.7,1.4 1.3,2.9 1.7,4.5 0.4,1.4 0.7,3.1 0.9,5 0.2,1.9 0.1,4 -0.3,6.3 L 67,114 c -0.7,3 -1.9,5.7 -3.5,8 -0.7,1 -1.5,2 -2.5,2.9 -1,1 -2.1,1.8 -3.5,2.6 -1.3,0.8 -2.8,1.4 -4.5,1.8 -1.7,0.5 -3.6,0.7 -5.7,0.7 h -8.4 c -2.1,0 -3.9,-0.2 -5.4,-0.7 -1.5,-0.5 -2.8,-1.1 -3.9,-1.8 -1.1,-0.7 -1.9,-1.6 -2.6,-2.6 -0.7,-1 -1.1,-1.9 -1.5,-2.9 -0.8,-2.3 -1,-5 -0.7,-8 L 29.1,89.5 H 42.6 L 38.3,114 c -0.1,0.6 0,1.2 0.1,1.7 0.2,0.4 0.4,0.8 0.8,1.2 0.4,0.4 1,0.5 1.8,0.5 h 8.4 c 0.8,0 1.5,-0.2 2,-0.5 0.5,-0.4 0.9,-0.7 1.2,-1.2 0.3,-0.5 0.6,-1.1 0.7,-1.7 l 2.1,-12.1 c 0.3,-1.8 0.2,-3.7 -0.2,-5.7 -0.5,-2 -1.1,-3.8 -1.7,-5.4 C 52.7,88.9 51.7,87 50.6,85.1 L 39,62.5 C 38.3,61.1 37.7,59.6 37.3,58 36.9,56.6 36.6,54.9 36.4,53 36.2,51.1 36.3,49 36.7,46.7 L 39,33.5 c 0.7,-3 1.9,-5.7 3.5,-8 0.7,-1 1.5,-2 2.5,-2.9 1,-1 2.1,-1.8 3.5,-2.6 1.3,-0.7 2.8,-1.4 4.5,-1.8 1.7,-0.5 3.6,-0.7 5.7,-0.7 h 8.4 c 2.1,0 3.9,0.2 5.4,0.7 1.5,0.5 2.8,1.1 3.9,1.8 1.1,0.8 1.9,1.6 2.6,2.6 0.6,1 1.1,1.9 1.5,2.9 0.8,2.3 1,5 0.7,8 L 76.9,58 H 63.4 l 4.3,-24.5 c 0.1,-0.6 0,-1.2 -0.1,-1.7 -0.2,-0.4 -0.4,-0.8 -0.8,-1.2 -0.4,-0.4 -1,-0.5 -1.8,-0.5 h -8.4 c -0.8,0 -1.5,0.2 -2,0.5 -0.5,0.4 -0.9,0.7 -1.2,1.2 -0.3,0.5 -0.6,1.1 -0.7,1.7 z"
   id="path32"
   inkscape:connector-curvature="0"
   style="fill:#fc0c18" />
				<path
   class="st1"
   d="m 93,17.5 h 13.5 l -17,96.5 c -0.1,0.6 0,1.2 0.1,1.7 0.2,0.4 0.4,0.8 0.8,1.2 0.4,0.4 1,0.5 1.8,0.5 h 8.4 c 0.8,0 1.5,-0.2 2,-0.5 0.5,-0.4 0.9,-0.7 1.2,-1.2 0.3,-0.5 0.6,-1.1 0.7,-1.7 l 17,-96.5 H 135 L 118,114 c -0.7,3 -1.9,5.7 -3.5,8 -0.7,1 -1.5,2 -2.5,2.9 -1,1 -2.1,1.8 -3.5,2.6 -1.3,0.8 -2.8,1.4 -4.5,1.8 -1.7,0.5 -3.6,0.7 -5.7,0.7 h -8.4 c -2.1,0 -3.9,-0.2 -5.4,-0.7 -1.5,-0.5 -2.8,-1.1 -3.9,-1.8 -1.1,-0.7 -1.9,-1.6 -2.6,-2.6 -0.7,-1 -1.1,-1.9 -1.5,-2.9 -0.8,-2.3 -1,-5 -0.7,-8 z"
   id="path34"
   inkscape:connector-curvature="0"
   style="fill:#fc0c18" />
				<path
   class="st1"
   d="m 144.2,17.5 h 25.3 c 2.1,0 3.9,0.2 5.4,0.7 1.5,0.5 2.8,1.1 3.9,1.8 1.1,0.8 1.9,1.6 2.6,2.6 0.6,1 1.1,1.9 1.5,2.9 0.8,2.3 1,5 0.7,8 L 178,65 c -0.7,3 -1.9,5.7 -3.5,8 -0.7,1 -1.5,2 -2.5,2.9 -1,1 -2.1,1.8 -3.5,2.6 -1.3,0.8 -2.8,1.4 -4.5,1.8 -1.7,0.5 -3.6,0.7 -5.7,0.7 h -11.8 l 2.2,-12.7 h 11.8 c 0.8,0 1.5,-0.2 2,-0.5 0.5,-0.4 0.9,-0.7 1.2,-1.2 0.3,-0.5 0.6,-1.1 0.7,-1.7 L 170,33.4 c 0.1,-0.6 0,-1.2 -0.1,-1.7 -0.2,-0.4 -0.4,-0.8 -0.8,-1.2 -0.4,-0.4 -1,-0.5 -1.8,-0.5 h -11.8 l -17.6,100 h -13.5 z"
   id="path36"
   inkscape:connector-curvature="0"
   style="fill:#fc0c18" />
				<path
   class="st1"
   d="m 199.9,68.4 h 16.9 l -2.2,12.7 h -16.9 l -6.4,36.3 h 16.9 L 206,130.1 H 175.6 L 195.4,17.6 h 30.4 l -2.2,12.7 h -16.9 z"
   id="path38"
   inkscape:connector-curvature="0"
   style="fill:#fc0c18" />
				<path
   class="st1"
   d="m 234.8,17.5 h 25.3 c 2.1,0 3.9,0.2 5.4,0.7 1.5,0.5 2.8,1.1 3.9,1.8 1.1,0.8 1.9,1.6 2.6,2.6 0.6,1 1.1,1.9 1.5,2.9 0.8,2.3 1,5 0.7,8 L 268.6,65 c -0.4,2.1 -1.2,3.9 -2.6,5.5 -1.4,1.6 -3,3 -4.8,4.2 1.4,1.2 2.5,2.6 3.3,4.2 0.8,1.6 1,3.4 0.7,5.5 l -8,45.6 h -13.5 l 8,-45.6 c 0.1,-0.6 0,-1.2 -0.1,-1.7 -0.2,-0.4 -0.4,-0.8 -0.8,-1.2 -0.4,-0.4 -1,-0.5 -1.8,-0.5 h -11.8 l -8.6,48.9 h -13.5 z m 4.5,50.9 h 9 2.8 c 0.8,0 1.5,-0.2 2,-0.5 0.5,-0.4 0.9,-0.7 1.2,-1.2 0.3,-0.5 0.6,-1.1 0.7,-1.7 l 5.6,-31.5 c 0.1,-0.6 0,-1.2 -0.1,-1.7 -0.2,-0.4 -0.4,-0.8 -0.8,-1.2 -0.4,-0.4 -1,-0.5 -1.8,-0.5 H 246 Z"
   id="path40"
   inkscape:connector-curvature="0"
   style="fill:#fc0c18" />
				<path
   class="st1"
   d="M 294.2,130 314,17.5 h 13.5 L 307.7,130 Z m 25.4,-67.5 7.9,-45 7.2,67.5 -7.9,45 z m 7.3,67.5 19.8,-112.5 h 13.5 L 340.4,130 Z"
   id="path42"
   inkscape:connector-curvature="0"
   style="fill:#fc0c18" />
				<path
   class="st1"
   d="m 369.2,17.5 h 13.5 L 362.9,130 h -13.5 z"
   id="path44"
   inkscape:connector-curvature="0"
   style="fill:#fc0c18" />
				<path
   class="st1"
   d="M 371.9,130 391.7,17.5 h 13.5 L 385.4,130 Z m 25.4,-67.5 7.9,-45 7.2,67.5 -7.9,45 z m 7.2,67.5 19.8,-112.5 h 13.5 L 418,130 Z"
   id="path46"
   inkscape:connector-curvature="0"
   style="fill:#fc0c18" />
				<path
   class="st1"
   d="M 446.8,17.5 H 480 l -2.2,12.7 h -9 L 451.2,130 H 436 l 17.6,-99.8 h -9 z"
   id="path48"
   inkscape:connector-curvature="0"
   style="fill:#fc0c18" />
				<path
   class="st1"
   d="m 493.5,68.4 h 16.9 l -2.2,12.7 h -16.9 l -6.4,36.3 h 16.9 l -2.2,12.7 H 469.2 L 489,17.5 h 30.4 l -2.2,12.7 h -16.9 z"
   id="path50"
   inkscape:connector-curvature="0"
   style="fill:#fc0c18" />
				<path
   class="st1"
   d="M 508.6,130 528.4,17.5 h 13.5 L 522.1,130 Z m 25.4,-67.5 7.9,-45 7.2,67.5 -7.9,45 z M 541.2,130 561,17.5 h 13.5 L 554.7,130 Z"
   id="path52"
   inkscape:connector-curvature="0"
   style="fill:#fc0c18" />
				<path
   class="st1"
   d="M 583.5,17.5 H 610 c 2.1,0 3.9,0.2 5.4,0.7 1.5,0.5 2.8,1.1 3.9,1.8 1.1,0.8 1.9,1.6 2.6,2.6 0.6,1 1.1,1.9 1.5,2.9 0.8,2.3 1,5 0.7,8 L 609.8,114 c -0.7,3 -1.9,5.7 -3.5,8 -0.7,1 -1.5,2 -2.5,2.9 -1,1 -2.1,1.8 -3.5,2.6 -1.3,0.8 -2.8,1.4 -4.5,1.8 -1.7,0.5 -3.6,0.7 -5.7,0.7 h -26.4 z m -4.1,99.8 h 12.9 c 0.8,0 1.5,-0.2 2,-0.5 0.5,-0.4 0.9,-0.7 1.2,-1.2 0.3,-0.5 0.6,-1.1 0.7,-1.7 l 14.2,-80.4 c 0.1,-0.6 0,-1.2 -0.1,-1.7 -0.2,-0.4 -0.4,-0.8 -0.8,-1.2 -0.4,-0.4 -1,-0.5 -1.8,-0.5 h -12.9 z"
   id="path54"
   inkscape:connector-curvature="0"
   style="fill:#fc0c18" />
				<path
   class="st1"
   d="m 633,33.5 c 0.7,-3 1.9,-5.7 3.5,-8 0.7,-1 1.5,-2 2.5,-2.9 1,-1 2.1,-1.8 3.5,-2.6 1.3,-0.7 2.8,-1.4 4.5,-1.8 1.7,-0.5 3.6,-0.7 5.7,-0.7 h 8.4 c 2.1,0 3.9,0.2 5.4,0.7 1.5,0.5 2.8,1.1 3.9,1.8 1.1,0.8 1.9,1.6 2.6,2.6 0.6,1 1.1,1.9 1.5,2.9 0.8,2.3 1,5 0.7,8 L 661,114 c -0.7,3 -1.9,5.7 -3.5,8 -0.7,1 -1.5,2 -2.5,2.9 -1,1 -2.1,1.8 -3.5,2.6 -1.3,0.8 -2.8,1.4 -4.5,1.8 -1.7,0.5 -3.6,0.7 -5.7,0.7 h -8.4 c -2.1,0 -3.9,-0.2 -5.4,-0.7 -1.5,-0.5 -2.8,-1.1 -3.9,-1.8 -1.1,-0.7 -1.9,-1.6 -2.6,-2.6 -0.7,-1 -1.1,-1.9 -1.5,-2.9 -0.8,-2.3 -1,-5 -0.7,-8 z m -0.7,80.5 c -0.1,0.6 0,1.2 0.1,1.7 0.2,0.4 0.4,0.8 0.8,1.2 0.4,0.4 1,0.5 1.8,0.5 h 8.4 c 0.8,0 1.5,-0.2 2,-0.5 0.5,-0.4 0.9,-0.7 1.2,-1.2 0.3,-0.5 0.6,-1.1 0.7,-1.7 l 14.2,-80.4 c 0.1,-0.6 0,-1.2 -0.1,-1.7 -0.2,-0.4 -0.4,-0.8 -0.8,-1.2 -0.4,-0.4 -1,-0.5 -1.8,-0.5 h -8.4 c -0.8,0 -1.5,0.2 -2,0.5 -0.5,0.4 -0.9,0.7 -1.2,1.2 -0.3,0.5 -0.6,1.1 -0.7,1.7 z"
   id="path56"
   inkscape:connector-curvature="0"
   style="fill:#fc0c18" />
			</g>
		</g>
		<g
   id="g66"
   style="display:inline">
			<g
   id="g64">
				<path
   class="st1"
   d="m 24.5,137.5 v 45 h 651 v -45 z"
   id="path62"
   inkscape:connector-curvature="0"
   style="fill:#ffffff;fill-opacity:1"
   sodipodi:nodetypes="ccccc" />
			</g>
		</g>
	<g
   id="g83"
   style="display:inline">
			<g
   id="g81">
				<path
   style="fill:#fc0c18"
   inkscape:connector-curvature="0"
   id="path79"
   d="m 232.5,164.8 h 7.2 l -0.4,-17.6 z M 176,146.9 c -0.7,-0.1 -1.5,-0.2 -2.4,-0.2 h -2.9 l -1.9,10.7 h 2.9 c 2,0 3.5,-0.4 4.5,-1.1 1.2,-0.9 2,-2.4 2.3,-4.4 0.3,-1.9 0.1,-3.2 -0.6,-4 -0.5,-0.5 -1.1,-0.8 -1.9,-1 z M 24.5,137.5 v 45 h 651 v -45 z m 28.4,9.5 h -10 L 41,157.4 h 9.4 l -0.7,3.8 h -9.4 l -1.9,11 H 49 L 48.3,176 H 33.2 L 39,143 h 14.6 z m 30.3,29.1 h -6.7 l -3.6,-22.9 c 0,-0.4 -0.2,-1.6 -0.4,-3.7 -0.1,-1.2 -0.2,-2.2 -0.3,-2.9 l -0.2,1.1 -0.2,0.9 -0.2,1.4 -0.4,2.1 -4.2,24 h -4.1 l 5.8,-33 h 7.1 l 3.1,19.6 c 0.6,4.6 1,7.8 1.2,9.7 0.1,-0.7 0.2,-1.7 0.3,-3.1 0.3,-2 0.4,-3.1 0.5,-3.4 l 4,-22.8 H 89 Z M 122,147 h -7.7 l -5.1,29.1 h -4.5 l 5.1,-29.1 h -7.6 l 0.7,-3.9 h 19.9 z m 28.7,0 h -10 l -1.8,10.4 h 9.4 l -0.7,3.8 h -9.4 l -1.9,11 h 10.6 l -0.7,3.8 H 131 l 5.8,-33 h 14.6 z m 32.4,4.6 c -0.5,2.7 -1.5,4.7 -3.2,5.9 -0.9,0.7 -2.2,1.2 -3.8,1.6 1,0.3 1.8,0.5 2.3,0.8 1.1,0.6 1.6,1.9 1.6,3.8 0,1.3 -0.2,3.5 -0.6,6.5 -0.2,2 -0.3,3.5 -0.1,4.4 0.1,0.5 0.2,0.9 0.3,1.4 h -5.1 c -0.1,-0.6 -0.2,-1.2 -0.2,-1.9 0,-0.4 0.2,-1.9 0.4,-4.4 0.3,-3.3 0.4,-5.5 0.4,-6.4 -0.1,-0.8 -0.5,-1.4 -1.1,-1.7 -0.5,-0.3 -1.1,-0.5 -1.7,-0.6 -0.5,-0.1 -1.2,-0.1 -2,-0.1 h -2.2 l -2.6,15 H 161 l 5.8,-33 h 8.3 c 2.2,0 3.9,0.2 4.9,0.5 2.8,1.2 3.9,3.9 3.1,8.2 z m 35,-4.6 h -7.7 l -5.1,29.1 h -4.5 l 5.1,-29.1 h -7.6 l 0.7,-3.9 h 19.9 z m 22.1,29.1 -0.2,-7.5 h -8.8 l -2.9,7.5 h -4.4 l 13.4,-33 h 6 l 1.8,33 z m 23.9,0 h -4.5 l 5.8,-33 h 4.5 z m 35.5,0 h -6.7 l -3.6,-22.9 c 0,-0.4 -0.2,-1.6 -0.4,-3.7 -0.1,-1.2 -0.2,-2.2 -0.3,-2.9 l -0.2,1.1 -0.2,0.9 -0.2,1.4 -0.4,2.1 -4.2,24 h -4.1 l 5.8,-33 h 7.1 l 3.1,19.6 c 0.6,4.6 1,7.8 1.2,9.7 0.1,-0.7 0.2,-1.7 0.3,-3.1 0.3,-2 0.4,-3.1 0.5,-3.4 l 4,-22.8 h 4.1 z m 41.9,0 h -3.9 l 5,-28.3 -12,28.3 h -4.5 l -2,-28.3 -5,28.3 h -3.9 l 5.8,-33 h 7.5 l 1.6,25.3 9.7,-25.3 h 7.5 z M 376.9,147 h -10 l -1.8,10.4 h 9.4 l -0.7,3.8 h -9.4 l -1.9,11 H 373 l -0.7,3.8 h -15.2 l 5.8,-33 h 14.6 z m 30.3,29.1 h -6.7 l -3.6,-22.9 c 0,-0.4 -0.2,-1.6 -0.4,-3.7 -0.1,-1.2 -0.2,-2.2 -0.3,-2.9 l -0.2,1.1 -0.2,0.9 -0.2,1.4 -0.4,2.1 -4.2,24 h -4.1 l 5.8,-33 h 7.1 l 3.1,19.6 c 0.6,4.6 1,7.8 1.2,9.7 0.1,-0.7 0.2,-1.7 0.3,-3.1 0.3,-2 0.4,-3.1 0.5,-3.4 l 4,-22.8 H 413 Z M 446,147 h -7.7 l -5.1,29.1 h -4.5 l 5.1,-29.1 h -7.6 l 0.7,-3.9 h 19.9 z m 51.6,4.6 c 0,0.1 -0.1,0.5 -0.2,1 h -4.6 c 0.1,-0.5 0.1,-0.8 0.2,-0.9 0.2,-1.1 0.2,-1.9 0.2,-2.4 -0.3,-2 -1.5,-3 -3.8,-3 -1.5,0 -2.7,0.5 -3.6,1.4 -0.8,0.8 -1.3,1.8 -1.5,3.1 -0.2,1.2 -0.1,2.1 0.3,2.9 0.5,1.1 1.4,2 2.8,2.8 l 2.7,1.6 c 2.4,1.5 4,3 4.7,4.5 0.6,1.3 0.7,3 0.3,5.1 -0.5,3 -1.9,5.3 -4,6.9 -1.9,1.4 -4.2,2 -7.1,2 -3.3,0 -5.7,-0.8 -7,-2.4 -1.3,-1.5 -1.6,-3.9 -1.1,-7.1 0.1,-0.3 0.2,-0.9 0.4,-1.9 h 4.6 c -0.1,0.6 -0.2,1.1 -0.3,1.3 -0.3,1.8 -0.3,3.2 0,4.2 0.5,1.5 1.8,2.2 3.9,2.2 1.9,0 3.3,-0.6 4.3,-1.7 0.8,-0.9 1.4,-2 1.6,-3.4 0.3,-1.6 0,-2.9 -0.9,-4 -0.7,-0.8 -1.9,-1.8 -3.8,-2.9 -1.9,-1.1 -3.4,-2.2 -4.4,-3.2 -1.6,-1.6 -2.2,-3.8 -1.6,-6.8 0.5,-2.8 1.7,-4.9 3.6,-6.4 1.8,-1.4 4.1,-2 6.8,-2 3.1,0 5.3,0.8 6.6,2.4 1.1,1.5 1.4,3.7 0.9,6.7 z m 23.2,10.8 -2.4,13.7 h -4.5 l 2.4,-13.7 -4.1,-19.3 h 5.2 l 2.3,14.5 7.6,-14.5 h 4.5 z m 41,-10.8 c 0,0.1 -0.1,0.5 -0.2,1 H 557 c 0.1,-0.5 0.1,-0.8 0.2,-0.9 0.2,-1.1 0.2,-1.9 0.2,-2.4 -0.3,-2 -1.5,-3 -3.8,-3 -1.5,0 -2.7,0.5 -3.6,1.4 -0.8,0.8 -1.3,1.8 -1.5,3.1 -0.2,1.2 -0.1,2.1 0.3,2.9 0.5,1.1 1.4,2 2.8,2.8 l 2.7,1.6 c 2.4,1.5 4,3 4.7,4.5 0.6,1.3 0.7,3 0.3,5.1 -0.5,3 -1.9,5.3 -4,6.9 -1.9,1.4 -4.2,2 -7.1,2 -3.3,0 -5.7,-0.8 -7,-2.4 -1.3,-1.5 -1.6,-3.9 -1.1,-7.1 0.1,-0.3 0.2,-0.9 0.4,-1.9 h 4.6 c -0.1,0.6 -0.2,1.1 -0.3,1.3 -0.3,1.8 -0.3,3.2 0,4.2 0.5,1.5 1.8,2.2 3.9,2.2 1.9,0 3.3,-0.6 4.3,-1.7 0.8,-0.9 1.4,-2 1.6,-3.4 0.3,-1.6 0,-2.9 -0.9,-4 -0.7,-0.8 -1.9,-1.8 -3.8,-2.9 -1.9,-1.1 -3.4,-2.2 -4.4,-3.2 -1.6,-1.6 -2.2,-3.8 -1.6,-6.8 0.5,-2.8 1.7,-4.9 3.6,-6.4 1.8,-1.4 4.1,-2 6.8,-2 3.1,0 5.3,0.8 6.6,2.4 1.1,1.5 1.5,3.7 0.9,6.7 z m 34.5,-4.6 h -7.7 l -5.1,29.1 H 579 l 5.1,-29.1 h -7.6 l 0.7,-3.9 H 597 Z m 28.8,0 h -10 l -1.8,10.4 h 9.4 l -0.7,3.8 h -9.4 l -1.9,11 h 10.6 l -0.7,3.8 h -15.2 l 5.8,-33 h 14.6 z m 36.9,29.1 h -3.9 l 5,-28.3 -12,28.3 h -4.5 l -2,-28.3 -5,28.3 h -3.9 l 5.8,-33 h 7.5 l 1.6,25.3 9.7,-25.3 h 7.5 z"
   class="st1" />
			</g>
		</g></g>
</g>
</svg>